0
SECTION
2
HEADER
9
$INSUNITS
70
4
9
$ACADVER
1
AC1014
9
$HANDSEED
5
FFFF
0
ENDSEC
0
SECTION
2
TABLES
0
TABLE
2
VPORT
5
8
100
AcDbSymbolTable
0
ENDTAB
0
TABLE
2
LTYPE
5
5
100
AcDbSymbolTable
0
LTYPE
5
14
100
AcDbSymbolTableRecord
100
AcDbLinetypeTableRecord
2
BYBLOCK
70
0
0
LTYPE
5
15
100
AcDbSymbolTableRecord
100
AcDbLinetypeTableRecord
2
BYLAYER
70
0
0
ENDTAB
0
TABLE
2
LAYER
5
2
100
AcDbSymbolTable
70
2
0
LAYER
5
50
100
AcDbSymbolTableRecord
100
AcDbLayerTableRecord
2
0
70
0
6
CONTINUOUS
0
ENDTAB
0
TABLE
2
STYLE
5
3
100
AcDbSymbolTable
70
1
0
STYLE
5
11
100
AcDbSymbolTableRecord
100
AcDbTextStyleTableRecord
2
STANDARD
70
0
0
ENDTAB
0
TABLE
2
VIEW
5
6
100
AcDbSymbolTable
70
0
0
ENDTAB
0
TABLE
2
UCS
5
7
100
AcDbSymbolTable
70
0
0
ENDTAB
0
TABLE
2
APPID
5
9
100
AcDbSymbolTable
70
2
0
APPID
5
12
100
AcDbSymbolTableRecord
100
AcDbRegAppTableRecord
2
ACAD
70
0
0
ENDTAB
0
TABLE
2
DIMSTYLE
5
A
100
AcDbSymbolTable
70
1
0
ENDTAB
0
TABLE
2
BLOCK_RECORD
5
1
100
AcDbSymbolTable
70
1
0
BLOCK_RECORD
5
1F
100
AcDbSymbolTableRecord
100
AcDbBlockTableRecord
2
*MODEL_SPACE
0
BLOCK_RECORD
5
1B
100
AcDbSymbolTableRecord
100
AcDbBlockTableRecord
2
*PAPER_SPACE
0
ENDTAB
0
ENDSEC
0
SECTION
2
BLOCKS
0
BLOCK
5
20
100
AcDbEntity
100
AcDbBlockBegin
2
*MODEL_SPACE
0
ENDBLK
5
21
100
AcDbEntity
100
AcDbBlockEnd
0
BLOCK
5
1C
100
AcDbEntity
100
AcDbBlockBegin
2
*PAPER_SPACE
0
ENDBLK
5
1D
100
AcDbEntity
100
AcDbBlockEnd
0
ENDSEC
0
SECTION
2
ENTITIES
0
LWPOLYLINE
5
100
100
AcDbEntity
8
0
100
AcDbPolyline
90
6
70
1
43
0.0
10
-138.99999679777773
20
49.141756896484026
42
-0.41421356237309764
10
-139.9999967977777
20
48.141756896484026
10
-154.00000320222236
20
48.141756896484019
42
-0.41421356237309764
10
-155.00000320222236
20
49.141756896484026
10
-155.00000320222236
20
99
42
-0.99999999999999989
10
-138.9999967977777
20
99
0
CIRCLE
5
101
100
AcDbEntity
8
0
100
AcDbCircle
10
-147.00000000000003
20
99
30
0
40
1.1500000000000021
210
0
220
-0
230
1
0
LWPOLYLINE
5
102
100
AcDbEntity
8
0
100
AcDbPolyline
90
8
70
1
43
0.0
10
-152.05824310351602
20
100.64907104541916
10
-152.05824310351602
20
97.350928954580937
10
-151.59907104541924
20
96.891756896483997
10
-149.90092895458085
20
96.891756896483997
10
-149.44175689648401
20
97.350928954580837
10
-149.44175689648401
20
100.64907104541908
10
-149.90092895458079
20
101.10824310351602
10
-151.59907104541918
20
101.10824310351602
0
LWPOLYLINE
5
103
100
AcDbEntity
8
0
100
AcDbPolyline
90
8
70
1
43
0.0
10
-149.10824310351603
20
103.59907104541924
10
-149.10824310351603
20
101.90092895458085
10
-148.64907104541916
20
101.44175689648399
10
-145.35092895458095
20
101.44175689648399
10
-144.891756896484
20
101.90092895458078
10
-144.891756896484
20
103.59907104541917
10
-145.35092895458087
20
104.05824310351602
10
-148.64907104541908
20
104.05824310351602
0
LWPOLYLINE
5
104
100
AcDbEntity
8
0
100
AcDbPolyline
90
8
70
1
43
0.0
10
-145.35092895458087
20
96.55824310351602
10
-148.64907104541908
20
96.55824310351602
10
-149.10824310351603
20
96.099071045419237
10
-149.10824310351603
20
94.400928954580849
10
-148.64907104541916
20
93.941756896483994
10
-145.35092895458095
20
93.941756896483994
10
-144.891756896484
20
94.400928954580777
10
-144.891756896484
20
96.099071045419166
0
LWPOLYLINE
5
105
100
AcDbEntity
8
0
100
AcDbPolyline
90
8
70
1
43
0.0
10
-142.40092895458079
20
101.10824310351602
10
-144.09907104541918
20
101.10824310351602
10
-144.55824310351602
20
100.64907104541916
10
-144.55824310351602
20
97.350928954580937
10
-144.09907104541924
20
96.891756896483997
10
-142.40092895458085
20
96.891756896483997
10
-141.94175689648401
20
97.350928954580837
10
-141.94175689648401
20
100.64907104541908
0
LWPOLYLINE
5
106
100
AcDbEntity
8
0
100
AcDbPolyline
90
4
70
1
43
0.0
10
-154.07273439670973
20
91.927265603290323
42
-0.53522562766775605
10
-154.07273439670976
20
106.07273439670971
42
-0.53522562766775894
10
-139.92726560329027
20
106.07273439670973
42
-0.53522562766775683
10
-139.92726560329029
20
91.92726560329028
42
-0.53522562766775772
0
ENDSEC
0
SECTION
2
OBJECTS
0
DICTIONARY
5
C
100
AcDbDictionary
3
ACAD_GROUP
350
D
3
ACAD_MLINESTYLE
350
17
0
DICTIONARY
5
D
100
AcDbDictionary
0
DICTIONARY
5
1A
330
C
100
AcDbDictionary
0
DICTIONARY
5
17
100
AcDbDictionary
0
ENDSEC
0
EOF
