%TF.GenerationSoftware,KiCad,Pcbnew,(6.0.4)*%
%TF.CreationDate,2022-04-15T12:20:46+02:00*%
%TF.ProjectId,rp2040_magslide_controller,72703230-3430-45f6-9d61-67736c696465,rev?*%
%TF.SameCoordinates,Original*%
%TF.FileFunction,Soldermask,Top*%
%TF.FilePolarity,Negative*%
%FSLAX46Y46*%
G04 Gerber Fmt 4.6, Leading zero omitted, Abs format (unit mm)*
G04 Created by KiCad (PCBNEW (6.0.4)) date 2022-04-15 12:20:46*
%MOMM*%
%LPD*%
G01*
G04 APERTURE LIST*
G04 Aperture macros list*
%AMRoundRect*
0 Rectangle with rounded corners*
0 $1 Rounding radius*
0 $2 $3 $4 $5 $6 $7 $8 $9 X,Y pos of 4 corners*
0 Add a 4 corners polygon primitive as box body*
4,1,4,$2,$3,$4,$5,$6,$7,$8,$9,$2,$3,0*
0 Add four circle primitives for the rounded corners*
1,1,$1+$1,$2,$3*
1,1,$1+$1,$4,$5*
1,1,$1+$1,$6,$7*
1,1,$1+$1,$8,$9*
0 Add four rect primitives between the rounded corners*
20,1,$1+$1,$2,$3,$4,$5,0*
20,1,$1+$1,$4,$5,$6,$7,0*
20,1,$1+$1,$6,$7,$8,$9,0*
20,1,$1+$1,$8,$9,$2,$3,0*%
%AMRotRect*
0 Rectangle, with rotation*
0 The origin of the aperture is its center*
0 $1 length*
0 $2 width*
0 $3 Rotation angle, in degrees counterclockwise*
0 Add horizontal line*
21,1,$1,$2,0,0,$3*%
%AMFreePoly0*
4,1,6,0.500000,-0.750000,-0.650000,-0.750000,-0.150000,0.000000,-0.650000,0.750000,0.500000,0.750000,0.500000,-0.750000,0.500000,-0.750000,$1*%
%AMFreePoly1*
4,1,6,1.000000,0.000000,0.500000,-0.750000,-0.500000,-0.750000,-0.500000,0.750000,0.500000,0.750000,1.000000,0.000000,1.000000,0.000000,$1*%
G04 Aperture macros list end*
%ADD10RoundRect,0.150000X-0.650000X-0.150000X0.650000X-0.150000X0.650000X0.150000X-0.650000X0.150000X0*%
%ADD11RoundRect,0.140000X0.140000X0.170000X-0.140000X0.170000X-0.140000X-0.170000X0.140000X-0.170000X0*%
%ADD12RoundRect,0.225000X0.225000X0.250000X-0.225000X0.250000X-0.225000X-0.250000X0.225000X-0.250000X0*%
%ADD13RotRect,1.400000X1.200000X135.000000*%
%ADD14R,1.750000X0.450000*%
%ADD15RoundRect,0.140000X-0.140000X-0.170000X0.140000X-0.170000X0.140000X0.170000X-0.140000X0.170000X0*%
%ADD16O,1.700000X1.700000*%
%ADD17R,1.700000X1.700000*%
%ADD18R,0.450000X1.750000*%
%ADD19O,1.800000X2.200000*%
%ADD20O,2.200000X1.800000*%
%ADD21C,1.200000*%
%ADD22R,1.200000X1.900000*%
%ADD23O,1.200000X1.900000*%
%ADD24R,1.500000X1.900000*%
%ADD25C,1.450000*%
%ADD26R,0.400000X1.350000*%
%ADD27RoundRect,0.225000X-0.225000X-0.250000X0.225000X-0.250000X0.225000X0.250000X-0.225000X0.250000X0*%
%ADD28RoundRect,0.135000X0.185000X-0.135000X0.185000X0.135000X-0.185000X0.135000X-0.185000X-0.135000X0*%
%ADD29RoundRect,0.140000X0.170000X-0.140000X0.170000X0.140000X-0.170000X0.140000X-0.170000X-0.140000X0*%
%ADD30FreePoly0,90.000000*%
%ADD31FreePoly1,90.000000*%
%ADD32C,3.200000*%
%ADD33R,0.750000X1.000000*%
%ADD34RoundRect,0.135000X-0.135000X-0.185000X0.135000X-0.185000X0.135000X0.185000X-0.135000X0.185000X0*%
%ADD35RoundRect,0.200000X0.275000X-0.200000X0.275000X0.200000X-0.275000X0.200000X-0.275000X-0.200000X0*%
%ADD36RoundRect,0.144000X-1.456000X-1.456000X1.456000X-1.456000X1.456000X1.456000X-1.456000X1.456000X0*%
%ADD37RoundRect,0.050000X-0.050000X-0.387500X0.050000X-0.387500X0.050000X0.387500X-0.050000X0.387500X0*%
%ADD38RoundRect,0.050000X-0.387500X-0.050000X0.387500X-0.050000X0.387500X0.050000X-0.387500X0.050000X0*%
%ADD39C,0.787400*%
%ADD40C,0.990600*%
%ADD41RoundRect,0.135000X-0.185000X0.135000X-0.185000X-0.135000X0.185000X-0.135000X0.185000X0.135000X0*%
%ADD42RoundRect,0.135000X0.135000X0.185000X-0.135000X0.185000X-0.135000X-0.185000X0.135000X-0.185000X0*%
%ADD43R,1.500000X2.000000*%
%ADD44R,3.800000X2.000000*%
G04 APERTURE END LIST*
D10*
%TO.C,U1*%
X180854800Y-87350600D03*
X180854800Y-88620600D03*
X180854800Y-89890600D03*
X180854800Y-91160600D03*
X188054800Y-91160600D03*
X188054800Y-89890600D03*
X188054800Y-88620600D03*
X188054800Y-87350600D03*
%TD*%
D11*
%TO.C,C14*%
X164586800Y-104269600D03*
X163626800Y-104269600D03*
%TD*%
D12*
%TO.C,C6*%
X184417000Y-138430000D03*
X182867000Y-138430000D03*
%TD*%
%TO.C,C2*%
X183401000Y-125730000D03*
X181851000Y-125730000D03*
%TD*%
%TO.C,C3*%
X183401000Y-127254000D03*
X181851000Y-127254000D03*
%TD*%
D13*
%TO.C,Y1*%
X170034858Y-111936777D03*
X168479223Y-110381142D03*
X167277142Y-111583223D03*
X168832777Y-113138858D03*
%TD*%
D14*
%TO.C,U5*%
X187496000Y-104667000D03*
X187496000Y-104017000D03*
X187496000Y-103367000D03*
X187496000Y-102717000D03*
X187496000Y-102067000D03*
X187496000Y-101417000D03*
X187496000Y-100767000D03*
X187496000Y-100117000D03*
X187496000Y-99467000D03*
X187496000Y-98817000D03*
X187496000Y-98167000D03*
X187496000Y-97517000D03*
X180296000Y-97517000D03*
X180296000Y-98167000D03*
X180296000Y-98817000D03*
X180296000Y-99467000D03*
X180296000Y-100117000D03*
X180296000Y-100767000D03*
X180296000Y-101417000D03*
X180296000Y-102067000D03*
X180296000Y-102717000D03*
X180296000Y-103367000D03*
X180296000Y-104017000D03*
X180296000Y-104667000D03*
%TD*%
D15*
%TO.C,C18*%
X179860000Y-106680000D03*
X180820000Y-106680000D03*
%TD*%
D16*
%TO.C,J4*%
X192298000Y-135412000D03*
X194838000Y-135412000D03*
X192298000Y-132872000D03*
X194838000Y-132872000D03*
X192298000Y-130332000D03*
X194838000Y-130332000D03*
X192298000Y-127792000D03*
X194838000Y-127792000D03*
X192298000Y-125252000D03*
X194838000Y-125252000D03*
X192298000Y-122712000D03*
X194838000Y-122712000D03*
X192298000Y-120172000D03*
X194838000Y-120172000D03*
X192298000Y-117632000D03*
X194838000Y-117632000D03*
X192298000Y-115092000D03*
X194838000Y-115092000D03*
X192298000Y-112552000D03*
X194838000Y-112552000D03*
X192298000Y-110012000D03*
X194838000Y-110012000D03*
X192298000Y-107472000D03*
X194838000Y-107472000D03*
X192298000Y-104932000D03*
X194838000Y-104932000D03*
X192298000Y-102392000D03*
X194838000Y-102392000D03*
X192298000Y-99852000D03*
X194838000Y-99852000D03*
X192298000Y-97312000D03*
X194838000Y-97312000D03*
X192298000Y-94772000D03*
X194838000Y-94772000D03*
X192298000Y-92232000D03*
X194838000Y-92232000D03*
X192298000Y-89692000D03*
X194838000Y-89692000D03*
X192298000Y-87152000D03*
D17*
X194838000Y-87152000D03*
%TD*%
D18*
%TO.C,U4*%
X187471000Y-113748000D03*
X186821000Y-113748000D03*
X186171000Y-113748000D03*
X185521000Y-113748000D03*
X184871000Y-113748000D03*
X184221000Y-113748000D03*
X183571000Y-113748000D03*
X182921000Y-113748000D03*
X182271000Y-113748000D03*
X181621000Y-113748000D03*
X180971000Y-113748000D03*
X180321000Y-113748000D03*
X180321000Y-120948000D03*
X180971000Y-120948000D03*
X181621000Y-120948000D03*
X182271000Y-120948000D03*
X182921000Y-120948000D03*
X183571000Y-120948000D03*
X184221000Y-120948000D03*
X184871000Y-120948000D03*
X185521000Y-120948000D03*
X186171000Y-120948000D03*
X186821000Y-120948000D03*
X187471000Y-120948000D03*
%TD*%
D19*
%TO.C,J2*%
X179703000Y-141278000D03*
X173103000Y-141278000D03*
X179253000Y-133278000D03*
X173553000Y-133278000D03*
D20*
X176403000Y-132478000D03*
D21*
X176403000Y-135778000D03*
X176403000Y-142778000D03*
%TD*%
D22*
%TO.C,J1*%
X182097000Y-79483700D03*
D23*
X175697000Y-79483700D03*
D24*
X180197000Y-79483700D03*
D23*
X182697000Y-79483700D03*
D25*
X181697000Y-82183700D03*
D22*
X176297000Y-79483700D03*
D24*
X178197000Y-79483700D03*
D25*
X176697000Y-82183700D03*
D26*
X177897000Y-82183700D03*
X178547000Y-82183700D03*
X179197000Y-82183700D03*
X179847000Y-82183700D03*
X180497000Y-82183700D03*
%TD*%
D27*
%TO.C,C9*%
X172125000Y-109000000D03*
X173675000Y-109000000D03*
%TD*%
D28*
%TO.C,R1*%
X176022000Y-127477000D03*
X176022000Y-126457000D03*
%TD*%
D29*
%TO.C,C15*%
X169291000Y-96873000D03*
X169291000Y-95913000D03*
%TD*%
D30*
%TO.C,JP2*%
X173102000Y-123354000D03*
D31*
X173102000Y-124804000D03*
%TD*%
D32*
%TO.C,H4*%
X193548000Y-81534000D03*
%TD*%
D29*
%TO.C,C4*%
X166116000Y-113764000D03*
X166116000Y-112804000D03*
%TD*%
D15*
%TO.C,C13*%
X175923000Y-102489000D03*
X176883000Y-102489000D03*
%TD*%
%TO.C,C20*%
X175923000Y-100457000D03*
X176883000Y-100457000D03*
%TD*%
D33*
%TO.C,SW1*%
X174299400Y-86172100D03*
X174299400Y-92172100D03*
X178049400Y-86172100D03*
X178049400Y-92172100D03*
%TD*%
D34*
%TO.C,R5*%
X163699000Y-101981000D03*
X164719000Y-101981000D03*
%TD*%
D15*
%TO.C,C8*%
X172240000Y-111455200D03*
X173200000Y-111455200D03*
%TD*%
D32*
%TO.C,H1*%
X164592000Y-81534000D03*
%TD*%
D34*
%TO.C,R2*%
X183083200Y-85559000D03*
X184103200Y-85559000D03*
%TD*%
D11*
%TO.C,C17*%
X164614800Y-105285600D03*
X163654800Y-105285600D03*
%TD*%
D35*
%TO.C,R9*%
X173355000Y-96710000D03*
X173355000Y-95060000D03*
%TD*%
D32*
%TO.C,H2*%
X193548000Y-141224000D03*
%TD*%
%TO.C,H3*%
X164592000Y-141224000D03*
%TD*%
D34*
%TO.C,R4*%
X185115200Y-85547200D03*
X186135200Y-85547200D03*
%TD*%
D15*
%TO.C,C19*%
X187530800Y-122834400D03*
X188490800Y-122834400D03*
%TD*%
D36*
%TO.C,U3*%
X170815000Y-102997000D03*
D37*
X168215000Y-99559500D03*
X168615000Y-99559500D03*
X169015000Y-99559500D03*
X169415000Y-99559500D03*
X169815000Y-99559500D03*
X170215000Y-99559500D03*
X170615000Y-99559500D03*
X171015000Y-99559500D03*
X171415000Y-99559500D03*
X171815000Y-99559500D03*
X172215000Y-99559500D03*
X172615000Y-99559500D03*
X173015000Y-99559500D03*
X173415000Y-99559500D03*
D38*
X174252500Y-100397000D03*
X174252500Y-100797000D03*
X174252500Y-101197000D03*
X174252500Y-101597000D03*
X174252500Y-101997000D03*
X174252500Y-102397000D03*
X174252500Y-102797000D03*
X174252500Y-103197000D03*
X174252500Y-103597000D03*
X174252500Y-103997000D03*
X174252500Y-104397000D03*
X174252500Y-104797000D03*
X174252500Y-105197000D03*
X174252500Y-105597000D03*
D37*
X173415000Y-106434500D03*
X173015000Y-106434500D03*
X172615000Y-106434500D03*
X172215000Y-106434500D03*
X171815000Y-106434500D03*
X171415000Y-106434500D03*
X171015000Y-106434500D03*
X170615000Y-106434500D03*
X170215000Y-106434500D03*
X169815000Y-106434500D03*
X169415000Y-106434500D03*
X169015000Y-106434500D03*
X168615000Y-106434500D03*
X168215000Y-106434500D03*
D38*
X167377500Y-105597000D03*
X167377500Y-105197000D03*
X167377500Y-104797000D03*
X167377500Y-104397000D03*
X167377500Y-103997000D03*
X167377500Y-103597000D03*
X167377500Y-103197000D03*
X167377500Y-102797000D03*
X167377500Y-102397000D03*
X167377500Y-101997000D03*
X167377500Y-101597000D03*
X167377500Y-101197000D03*
X167377500Y-100797000D03*
X167377500Y-100397000D03*
%TD*%
D39*
%TO.C,J3*%
X165608000Y-124841000D03*
X165608000Y-123571000D03*
X165608000Y-122301000D03*
X165608000Y-121031000D03*
X165608000Y-119761000D03*
X166878000Y-119761000D03*
X166878000Y-121031000D03*
X166878000Y-122301000D03*
X166878000Y-123571000D03*
X166878000Y-124841000D03*
D40*
X166243000Y-126111000D03*
X167259000Y-118491000D03*
X165227000Y-118491000D03*
%TD*%
D41*
%TO.C,R10*%
X181610000Y-122832400D03*
X181610000Y-123852400D03*
%TD*%
D34*
%TO.C,R6*%
X163699000Y-100965000D03*
X164719000Y-100965000D03*
%TD*%
D15*
%TO.C,C1*%
X187191800Y-85559000D03*
X188151800Y-85559000D03*
%TD*%
D35*
%TO.C,R8*%
X171831000Y-96710000D03*
X171831000Y-95060000D03*
%TD*%
D12*
%TO.C,C7*%
X184417000Y-139954000D03*
X182867000Y-139954000D03*
%TD*%
D15*
%TO.C,C10*%
X172240000Y-110439200D03*
X173200000Y-110439200D03*
%TD*%
D42*
%TO.C,R11*%
X178259200Y-98806000D03*
X177239200Y-98806000D03*
%TD*%
D43*
%TO.C,U2*%
X187974000Y-129692000D03*
X185674000Y-129692000D03*
D44*
X185674000Y-135992000D03*
D43*
X183374000Y-129692000D03*
%TD*%
D15*
%TO.C,C12*%
X175923000Y-101473000D03*
X176883000Y-101473000D03*
%TD*%
D29*
%TO.C,C11*%
X170307000Y-96873000D03*
X170307000Y-95913000D03*
%TD*%
D33*
%TO.C,SW2*%
X177084200Y-120685500D03*
X177084200Y-114685500D03*
X173334200Y-120685500D03*
X173334200Y-114685500D03*
%TD*%
D29*
%TO.C,C5*%
X171704000Y-113736000D03*
X171704000Y-112776000D03*
%TD*%
D28*
%TO.C,R3*%
X172974000Y-127477000D03*
X172974000Y-126457000D03*
%TD*%
D29*
%TO.C,C16*%
X165735000Y-99949000D03*
X165735000Y-98989000D03*
%TD*%
D42*
%TO.C,R7*%
X176913000Y-106553000D03*
X175893000Y-106553000D03*
%TD*%
D30*
%TO.C,JP1*%
X176126000Y-123340000D03*
D31*
X176126000Y-124790000D03*
%TD*%
M02*
