%TF.GenerationSoftware,KiCad,Pcbnew,(6.0.4)*%
%TF.CreationDate,2022-04-15T12:14:50+02:00*%
%TF.ProjectId,rp2040_magslide_controller,72703230-3430-45f6-9d61-67736c696465,rev?*%
%TF.SameCoordinates,Original*%
%TF.FileFunction,Copper,L4,Bot*%
%TF.FilePolarity,Positive*%
%FSLAX46Y46*%
G04 Gerber Fmt 4.6, Leading zero omitted, Abs format (unit mm)*
G04 Created by KiCad (PCBNEW (6.0.4)) date 2022-04-15 12:14:50*
%MOMM*%
%LPD*%
G01*
G04 APERTURE LIST*
%TA.AperFunction,ComponentPad*%
%ADD10O,1.700000X1.700000*%
%TD*%
%TA.AperFunction,ComponentPad*%
%ADD11R,1.700000X1.700000*%
%TD*%
%TA.AperFunction,ComponentPad*%
%ADD12O,1.800000X2.200000*%
%TD*%
%TA.AperFunction,ComponentPad*%
%ADD13O,2.200000X1.800000*%
%TD*%
%TA.AperFunction,ComponentPad*%
%ADD14O,1.200000X1.900000*%
%TD*%
%TA.AperFunction,ComponentPad*%
%ADD15C,1.450000*%
%TD*%
%TA.AperFunction,ComponentPad*%
%ADD16C,0.600000*%
%TD*%
%TA.AperFunction,ViaPad*%
%ADD17C,0.508000*%
%TD*%
%TA.AperFunction,ViaPad*%
%ADD18C,0.800000*%
%TD*%
%TA.AperFunction,Conductor*%
%ADD19C,0.200000*%
%TD*%
%TA.AperFunction,Conductor*%
%ADD20C,0.250000*%
%TD*%
G04 APERTURE END LIST*
D10*
%TO.P,J4,40,Pin_40*%
%TO.N,unconnected-(J4-Pad40)*%
X192298000Y-135412000D03*
%TO.P,J4,39,Pin_39*%
%TO.N,F23*%
X194838000Y-135412000D03*
%TO.P,J4,38,Pin_38*%
%TO.N,GND*%
X192298000Y-132872000D03*
%TO.P,J4,37,Pin_37*%
%TO.N,F22*%
X194838000Y-132872000D03*
%TO.P,J4,36,Pin_36*%
%TO.N,+5V*%
X192298000Y-130332000D03*
%TO.P,J4,35,Pin_35*%
%TO.N,F21*%
X194838000Y-130332000D03*
%TO.P,J4,34,Pin_34*%
%TO.N,extern_sda*%
X192298000Y-127792000D03*
%TO.P,J4,33,Pin_33*%
%TO.N,F20*%
X194838000Y-127792000D03*
%TO.P,J4,32,Pin_32*%
%TO.N,extern_scl*%
X192298000Y-125252000D03*
%TO.P,J4,31,Pin_31*%
%TO.N,GND*%
X194838000Y-125252000D03*
%TO.P,J4,30,Pin_30*%
%TO.N,F44*%
X192298000Y-122712000D03*
%TO.P,J4,29,Pin_29*%
%TO.N,+3V3*%
X194838000Y-122712000D03*
%TO.P,J4,28,Pin_28*%
%TO.N,F43*%
X192298000Y-120172000D03*
%TO.P,J4,27,Pin_27*%
%TO.N,F14*%
X194838000Y-120172000D03*
%TO.P,J4,26,Pin_26*%
%TO.N,F42*%
X192298000Y-117632000D03*
%TO.P,J4,25,Pin_25*%
%TO.N,F13*%
X194838000Y-117632000D03*
%TO.P,J4,24,Pin_24*%
%TO.N,F41*%
X192298000Y-115092000D03*
%TO.P,J4,23,Pin_23*%
%TO.N,F12*%
X194838000Y-115092000D03*
%TO.P,J4,22,Pin_22*%
%TO.N,F40*%
X192298000Y-112552000D03*
%TO.P,J4,21,Pin_21*%
%TO.N,F11*%
X194838000Y-112552000D03*
%TO.P,J4,20,Pin_20*%
%TO.N,GND*%
X192298000Y-110012000D03*
%TO.P,J4,19,Pin_19*%
%TO.N,F10*%
X194838000Y-110012000D03*
%TO.P,J4,18,Pin_18*%
%TO.N,+3V3*%
X192298000Y-107472000D03*
%TO.P,J4,17,Pin_17*%
%TO.N,GND*%
X194838000Y-107472000D03*
%TO.P,J4,16,Pin_16*%
%TO.N,F34*%
X192298000Y-104932000D03*
%TO.P,J4,15,Pin_15*%
%TO.N,+3V3*%
X194838000Y-104932000D03*
%TO.P,J4,14,Pin_14*%
%TO.N,F33*%
X192298000Y-102392000D03*
%TO.P,J4,13,Pin_13*%
%TO.N,F04*%
X194838000Y-102392000D03*
%TO.P,J4,12,Pin_12*%
%TO.N,F32*%
X192298000Y-99852000D03*
%TO.P,J4,11,Pin_11*%
%TO.N,F03*%
X194838000Y-99852000D03*
%TO.P,J4,10,Pin_10*%
%TO.N,F31*%
X192298000Y-97312000D03*
%TO.P,J4,9,Pin_9*%
%TO.N,F02*%
X194838000Y-97312000D03*
%TO.P,J4,8,Pin_8*%
%TO.N,F30*%
X192298000Y-94772000D03*
%TO.P,J4,7,Pin_7*%
%TO.N,F01*%
X194838000Y-94772000D03*
%TO.P,J4,6,Pin_6*%
%TO.N,GND*%
X192298000Y-92232000D03*
%TO.P,J4,5,Pin_5*%
%TO.N,F00*%
X194838000Y-92232000D03*
%TO.P,J4,4,Pin_4*%
%TO.N,+3V3*%
X192298000Y-89692000D03*
%TO.P,J4,3,Pin_3*%
%TO.N,GND*%
X194838000Y-89692000D03*
%TO.P,J4,2,Pin_2*%
%TO.N,F24*%
X192298000Y-87152000D03*
D11*
%TO.P,J4,1,Pin_1*%
%TO.N,+3V3*%
X194838000Y-87152000D03*
%TD*%
D12*
%TO.P,J2,4,4*%
%TO.N,GND*%
X179703000Y-141278000D03*
X173103000Y-141278000D03*
%TO.P,J2,3,3*%
%TO.N,board_sda*%
X179253000Y-133278000D03*
%TO.P,J2,2,2*%
%TO.N,board_scl*%
X173553000Y-133278000D03*
D13*
%TO.P,J2,1,1*%
%TO.N,+5V*%
X176403000Y-132478000D03*
%TD*%
D14*
%TO.P,J1,6,Shield*%
%TO.N,GND*%
X175697000Y-79483700D03*
X182697000Y-79483700D03*
D15*
X181697000Y-82183700D03*
X176697000Y-82183700D03*
%TD*%
D16*
%TO.P,U3,57,GND*%
%TO.N,GND*%
X170815000Y-102997000D03*
X172090000Y-101722000D03*
X170815000Y-101722000D03*
X169540000Y-104272000D03*
X169540000Y-101722000D03*
X170815000Y-104272000D03*
X169540000Y-102997000D03*
X172090000Y-102997000D03*
X172090000Y-104272000D03*
%TD*%
D17*
%TO.N,+3V3*%
X186334400Y-84531200D03*
%TO.N,GND*%
X188264800Y-84277200D03*
X182727600Y-90220800D03*
%TO.N,QSPI_SD0*%
X184200800Y-91186000D03*
%TO.N,+3V3*%
X171200801Y-110175988D03*
X163093392Y-102793792D03*
X168400000Y-103900000D03*
X185900000Y-139800000D03*
X168200000Y-125100000D03*
X167900000Y-96100000D03*
X187400000Y-131700000D03*
X177400000Y-127300000D03*
X175300000Y-104400000D03*
X177000000Y-107887020D03*
X171900000Y-127500000D03*
X175920400Y-103428800D03*
X186700000Y-122700000D03*
X164800000Y-99700000D03*
X179900000Y-107500000D03*
X171200000Y-100446500D03*
X174300000Y-99600000D03*
X163300000Y-100100000D03*
%TO.N,GND*%
X181900000Y-137600000D03*
X167800000Y-121500000D03*
X176500000Y-98100000D03*
X189800000Y-130600000D03*
X179500000Y-113900000D03*
X187800000Y-96500000D03*
X165400000Y-117500000D03*
X169200000Y-109500000D03*
X177900000Y-115200000D03*
X176733200Y-103327200D03*
X180904500Y-107400000D03*
X166000000Y-98100000D03*
X173100000Y-86100000D03*
X182300000Y-123600000D03*
X164500000Y-123600000D03*
X173273500Y-112800000D03*
X175818800Y-94132400D03*
X189300000Y-122700000D03*
X168700000Y-95200000D03*
X162856300Y-103460385D03*
X177327216Y-121772784D03*
X167500000Y-113800000D03*
X180700000Y-125500000D03*
X169500000Y-107887020D03*
%TO.N,+5V*%
X179900000Y-125500000D03*
X179189000Y-129692000D03*
D18*
X180492400Y-83769200D03*
D17*
%TO.N,board_sda*%
X171602400Y-123698000D03*
X168503600Y-102412800D03*
X178714400Y-100482400D03*
%TO.N,board_scl*%
X164751458Y-103446171D03*
X176072800Y-121666000D03*
%TO.N,SWDIO*%
X173100000Y-107887020D03*
X172110400Y-114858800D03*
%TO.N,SWCLK*%
X171348400Y-114808000D03*
X172243975Y-107943045D03*
%TO.N,dbg_rx*%
X165709600Y-101043500D03*
X164541200Y-120396000D03*
%TO.N,dbg_tx*%
X166319200Y-100643500D03*
X164642800Y-122123200D03*
D18*
%TO.N,F24*%
X182626000Y-118999000D03*
X183849499Y-103636299D03*
%TO.N,F00*%
X182969500Y-110617000D03*
X184912000Y-103632000D03*
%TO.N,F01*%
X183871786Y-111046983D03*
%TO.N,F30*%
X181483000Y-118999000D03*
%TO.N,F02*%
X185128500Y-109093000D03*
%TO.N,F03*%
X185420000Y-110490000D03*
%TO.N,F04*%
X186652500Y-108966000D03*
%TO.N,F10*%
X187452000Y-110109000D03*
%TO.N,F11*%
X188468000Y-110744000D03*
%TO.N,F12*%
X188326649Y-111733457D03*
%TO.N,F13*%
X188214000Y-118491000D03*
%TO.N,F14*%
X186944000Y-118618000D03*
D17*
%TO.N,extern_scl*%
X182829200Y-124460000D03*
X164784426Y-102630434D03*
%TO.N,extern_sda*%
X168467594Y-100598794D03*
X178900000Y-126900000D03*
D18*
%TO.N,F21*%
X185678983Y-118552009D03*
%TO.N,F22*%
X184785000Y-118999000D03*
%TO.N,F23*%
X183615457Y-118857649D03*
D17*
%TO.N,QSPI_CS*%
X167487600Y-98094800D03*
X179222400Y-87934800D03*
%TO.N,MUX0_EN*%
X180543200Y-123139200D03*
X165363597Y-103800918D03*
%TO.N,MUX1_EN*%
X166725600Y-106324400D03*
X178308000Y-97536000D03*
%TO.N,QSPI_SD1*%
X168376509Y-98191859D03*
X179120800Y-89103200D03*
%TO.N,QSPI_SD2*%
X179070000Y-90424000D03*
X168930009Y-97637600D03*
%TO.N,QSPI_SD0*%
X169568500Y-98048735D03*
%TO.N,QSPI_SCLK*%
X189636400Y-90017600D03*
X170132300Y-97621313D03*
%TO.N,QSPI_SD3*%
X170738800Y-98348800D03*
X189839600Y-88798400D03*
%TO.N,ADC_1*%
X182626000Y-100076000D03*
X177698400Y-105003600D03*
%TO.N,ADC_0*%
X178663600Y-108051600D03*
X179984400Y-116027200D03*
%TO.N,MUX_13*%
X181908819Y-97497124D03*
X169568432Y-105455489D03*
%TO.N,MUX_12*%
X182016400Y-98196400D03*
X168503600Y-104952800D03*
%TO.N,MUX_11*%
X186080400Y-98196400D03*
X167470556Y-107616572D03*
%TO.N,MUX_10*%
X185623200Y-98907600D03*
X167284400Y-106934000D03*
%TO.N,MUX_03*%
X179425600Y-121056400D03*
X166188330Y-105814959D03*
%TO.N,MUX_02*%
X180797200Y-122377200D03*
X166141060Y-105079461D03*
%TO.N,MUX_01*%
X177698400Y-112268000D03*
X166725589Y-107492800D03*
%TO.N,MUX_00*%
X169672000Y-115925600D03*
X178968400Y-115976400D03*
X166928800Y-115925600D03*
X166103783Y-103843500D03*
%TD*%
D19*
%TO.N,QSPI_SD3*%
X189839600Y-88798400D02*
X190189911Y-89148711D01*
X190189911Y-89148711D02*
X190189911Y-90276889D01*
X190189911Y-90276889D02*
X187006969Y-93459831D01*
X187006969Y-93459831D02*
X175627769Y-93459831D01*
X175627769Y-93459831D02*
X170738800Y-98348800D01*
%TO.N,QSPI_SCLK*%
X186746089Y-93060311D02*
X185292327Y-93060311D01*
X185292327Y-93060311D02*
X184281616Y-92049600D01*
X184281616Y-92049600D02*
X176377600Y-92049600D01*
X189636400Y-90017600D02*
X189636400Y-90170000D01*
X189636400Y-90170000D02*
X186746089Y-93060311D01*
X170805887Y-97621313D02*
X170132300Y-97621313D01*
X176377600Y-92049600D02*
X170805887Y-97621313D01*
%TO.N,QSPI_CS*%
X179222400Y-87934800D02*
X176987200Y-87934800D01*
X176987200Y-87934800D02*
X167487600Y-97434400D01*
X167487600Y-97434400D02*
X167487600Y-98094800D01*
%TO.N,QSPI_SD1*%
X179120800Y-89103200D02*
X179070000Y-89154000D01*
X179070000Y-89154000D02*
X176377600Y-89154000D01*
X168376509Y-97155091D02*
X168376509Y-98191859D01*
X176377600Y-89154000D02*
X168376509Y-97155091D01*
%TO.N,QSPI_SD2*%
X168930009Y-97363591D02*
X168930009Y-97637600D01*
X179070000Y-90424000D02*
X175869600Y-90424000D01*
X175869600Y-90424000D02*
X168930009Y-97363591D01*
%TO.N,+5V*%
X179900000Y-128981000D02*
X179189000Y-129692000D01*
X179900000Y-125500000D02*
X179900000Y-128981000D01*
%TO.N,board_sda*%
X179253000Y-131348600D02*
X179253000Y-133278000D01*
X171602400Y-123698000D02*
X179253000Y-131348600D01*
X174399616Y-100482400D02*
X178714400Y-100482400D01*
X170714162Y-99700000D02*
X173617216Y-99700000D01*
X168503600Y-102412800D02*
X168503600Y-101910562D01*
X173617216Y-99700000D02*
X174399616Y-100482400D01*
X168503600Y-101910562D02*
X170714162Y-99700000D01*
%TO.N,board_scl*%
X164751458Y-103446171D02*
X164751458Y-103492696D01*
X169886742Y-118800560D02*
X174528160Y-118800560D01*
X167301589Y-117646179D02*
X168732361Y-117646179D01*
X176072800Y-120345200D02*
X176072800Y-121666000D01*
X164344880Y-114689470D02*
X167301589Y-117646179D01*
X168732361Y-117646179D02*
X169886742Y-118800560D01*
X174528160Y-118800560D02*
X176072800Y-120345200D01*
X164344880Y-103899274D02*
X164344880Y-114689470D01*
X164751458Y-103492696D02*
X164344880Y-103899274D01*
%TO.N,SWDIO*%
X173100000Y-107887020D02*
X172720000Y-108267020D01*
X172720000Y-108267020D02*
X172720000Y-114249200D01*
X172720000Y-114249200D02*
X172110400Y-114858800D01*
%TO.N,SWCLK*%
X171805600Y-114350800D02*
X171348400Y-114808000D01*
X171805600Y-108381420D02*
X171805600Y-114350800D01*
X172243975Y-107943045D02*
X171805600Y-108381420D01*
%TO.N,dbg_rx*%
X162302789Y-102801627D02*
X164060916Y-101043500D01*
X164388800Y-120396000D02*
X162302789Y-118309989D01*
X164541200Y-120396000D02*
X164388800Y-120396000D01*
X164060916Y-101043500D02*
X165709600Y-101043500D01*
X162302789Y-118309989D02*
X162302789Y-102801627D01*
%TO.N,dbg_tx*%
X161903269Y-119383669D02*
X164642800Y-122123200D01*
X161903269Y-102636141D02*
X161903269Y-119383669D01*
X164049421Y-100489989D02*
X161903269Y-102636141D01*
X166319200Y-100643500D02*
X166165689Y-100489989D01*
X166165689Y-100489989D02*
X164049421Y-100489989D01*
D20*
%TO.N,F24*%
X183849499Y-103636299D02*
X182245000Y-105240798D01*
X182245000Y-118618000D02*
X182626000Y-118999000D01*
X182245000Y-105240798D02*
X182245000Y-118618000D01*
%TO.N,F00*%
X182969500Y-110617000D02*
X183515000Y-110071500D01*
X184912000Y-104207212D02*
X184912000Y-103632000D01*
X183515000Y-105604212D02*
X184912000Y-104207212D01*
X183515000Y-110071500D02*
X183515000Y-105604212D01*
%TO.N,F01*%
X184404000Y-110514769D02*
X184404000Y-105350930D01*
X193663489Y-95946511D02*
X194838000Y-94772000D01*
X185636511Y-102312479D02*
X192002479Y-95946511D01*
X183871786Y-111046983D02*
X184404000Y-110514769D01*
X192002479Y-95946511D02*
X193663489Y-95946511D01*
X184404000Y-105350930D02*
X185636511Y-104118419D01*
X185636511Y-104118419D02*
X185636511Y-102312479D01*
%TO.N,F30*%
X181483000Y-118999000D02*
X181483000Y-104978200D01*
X191689200Y-94772000D02*
X192298000Y-94772000D01*
X181483000Y-104978200D02*
X191689200Y-94772000D01*
%TO.N,F02*%
X185166000Y-109055500D02*
X185166000Y-105283000D01*
X193663489Y-98486511D02*
X194838000Y-97312000D01*
X185166000Y-105283000D02*
X191962489Y-98486511D01*
X185128500Y-109093000D02*
X185166000Y-109055500D01*
X191962489Y-98486511D02*
X193663489Y-98486511D01*
%TO.N,F03*%
X185420000Y-110490000D02*
X185928000Y-109982000D01*
X185928000Y-109982000D02*
X185928000Y-105410000D01*
X193663489Y-101026511D02*
X194838000Y-99852000D01*
X185928000Y-105410000D02*
X190311489Y-101026511D01*
X190311489Y-101026511D02*
X193663489Y-101026511D01*
%TO.N,F04*%
X191936990Y-103632000D02*
X193598000Y-103632000D01*
X186652500Y-108966000D02*
X186652500Y-108916490D01*
X186652500Y-108916490D02*
X191936990Y-103632000D01*
X193598000Y-103632000D02*
X194838000Y-102392000D01*
%TO.N,F10*%
X188723511Y-108837489D02*
X193663489Y-108837489D01*
X193663489Y-108837489D02*
X194838000Y-110012000D01*
X187452000Y-110109000D02*
X188723511Y-108837489D01*
%TO.N,F11*%
X188468000Y-110744000D02*
X188910511Y-111186511D01*
X188910511Y-111186511D02*
X193472511Y-111186511D01*
X193472511Y-111186511D02*
X194838000Y-112552000D01*
%TO.N,F12*%
X190510681Y-113917489D02*
X193663489Y-113917489D01*
X188326649Y-111733457D02*
X190510681Y-113917489D01*
X193663489Y-113917489D02*
X194838000Y-115092000D01*
%TO.N,F13*%
X188529511Y-118806511D02*
X193663489Y-118806511D01*
X188214000Y-118491000D02*
X188529511Y-118806511D01*
X193663489Y-118806511D02*
X194838000Y-117632000D01*
%TO.N,F14*%
X189672511Y-121346511D02*
X193663489Y-121346511D01*
X193663489Y-121346511D02*
X194838000Y-120172000D01*
X186944000Y-118618000D02*
X189672511Y-121346511D01*
D19*
%TO.N,extern_scl*%
X175519289Y-121061689D02*
X175519289Y-121895273D01*
X178084016Y-124460000D02*
X182829200Y-124460000D01*
X166909063Y-119335821D02*
X173793421Y-119335821D01*
X164784426Y-102630434D02*
X163945360Y-103469500D01*
X173793421Y-119335821D02*
X175519289Y-121061689D01*
X163945360Y-103469500D02*
X163945360Y-114854956D01*
X163945360Y-114854956D02*
X166370000Y-117279596D01*
X166370000Y-117279596D02*
X166370000Y-118796758D01*
X166370000Y-118796758D02*
X166909063Y-119335821D01*
X175519289Y-121895273D02*
X178084016Y-124460000D01*
%TO.N,extern_sda*%
X164230915Y-102618939D02*
X164230915Y-102401161D01*
X163545841Y-103304013D02*
X164230915Y-102618939D01*
X164230915Y-102401161D02*
X164727276Y-101904800D01*
X163545840Y-118617856D02*
X163545841Y-103304013D01*
X176179689Y-123144489D02*
X168072473Y-123144489D01*
X165963600Y-101904800D02*
X167269606Y-100598794D01*
X164727276Y-101904800D02*
X165963600Y-101904800D01*
X167269606Y-100598794D02*
X168467594Y-100598794D01*
X178900000Y-125864800D02*
X176179689Y-123144489D01*
X178900000Y-126900000D02*
X178900000Y-125864800D01*
X168072473Y-123144489D02*
X163545840Y-118617856D01*
D20*
%TO.N,F21*%
X185678983Y-125373993D02*
X191876990Y-131572000D01*
X191876990Y-131572000D02*
X193598000Y-131572000D01*
X193598000Y-131572000D02*
X194838000Y-130332000D01*
X185678983Y-118552009D02*
X185678983Y-125373993D01*
%TO.N,F22*%
X193663489Y-134046511D02*
X194838000Y-132872000D01*
X184785000Y-127020010D02*
X191811501Y-134046511D01*
X191811501Y-134046511D02*
X193663489Y-134046511D01*
X184785000Y-118999000D02*
X184785000Y-127020010D01*
%TO.N,F23*%
X183615457Y-129767457D02*
X190500000Y-136652000D01*
X193598000Y-136652000D02*
X194838000Y-135412000D01*
X190500000Y-136652000D02*
X193598000Y-136652000D01*
X183615457Y-118857649D02*
X183615457Y-129767457D01*
D19*
%TO.N,MUX0_EN*%
X170052228Y-118401040D02*
X174738240Y-118401040D01*
X165363597Y-103800918D02*
X164744400Y-104420115D01*
X179476400Y-123139200D02*
X180543200Y-123139200D01*
X164744400Y-104420115D02*
X164744400Y-114523984D01*
X168130299Y-116479111D02*
X170052228Y-118401040D01*
X174738240Y-118401040D02*
X179476400Y-123139200D01*
X166699527Y-116479111D02*
X168130299Y-116479111D01*
X164744400Y-114523984D02*
X166699527Y-116479111D01*
%TO.N,MUX1_EN*%
X167335200Y-102513956D02*
X170946845Y-98902311D01*
X166725600Y-105948016D02*
X167335200Y-105338416D01*
X166725600Y-106324400D02*
X166725600Y-105948016D01*
X167335200Y-105338416D02*
X167335200Y-102513956D01*
X170946845Y-98902311D02*
X176941689Y-98902311D01*
X176941689Y-98902311D02*
X178308000Y-97536000D01*
%TO.N,QSPI_SD0*%
X169568500Y-97385500D02*
X175768000Y-91186000D01*
X169568500Y-98048735D02*
X169568500Y-97385500D01*
X175768000Y-91186000D02*
X184200800Y-91186000D01*
%TO.N,ADC_1*%
X182626000Y-100076000D02*
X177698400Y-105003600D01*
%TO.N,ADC_0*%
X178663600Y-114706400D02*
X178663600Y-108051600D01*
X179984400Y-116027200D02*
X178663600Y-114706400D01*
%TO.N,MUX_13*%
X182569911Y-98862089D02*
X182569911Y-97967127D01*
X169568432Y-105455489D02*
X169612943Y-105500000D01*
X182099908Y-97497124D02*
X181908819Y-97497124D01*
X175932000Y-105500000D02*
X182569911Y-98862089D01*
X169612943Y-105500000D02*
X175932000Y-105500000D01*
X182569911Y-97967127D02*
X182099908Y-97497124D01*
%TO.N,MUX_12*%
X170053673Y-104901989D02*
X170251684Y-105100000D01*
X175766994Y-105100000D02*
X182016400Y-98850594D01*
X168503600Y-104952800D02*
X168554411Y-104901989D01*
X168554411Y-104901989D02*
X170053673Y-104901989D01*
X170251684Y-105100000D02*
X175766994Y-105100000D01*
X182016400Y-98850594D02*
X182016400Y-98196400D01*
%TO.N,MUX_11*%
X167753608Y-107333520D02*
X178168686Y-107333520D01*
X178168686Y-107333520D02*
X186176711Y-99325495D01*
X167470556Y-107616572D02*
X167753608Y-107333520D01*
X186176711Y-98292711D02*
X186080400Y-98196400D01*
X186176711Y-99325495D02*
X186176711Y-98292711D01*
%TO.N,MUX_10*%
X185623200Y-99314000D02*
X178003200Y-106934000D01*
X185623200Y-98907600D02*
X185623200Y-99314000D01*
X178003200Y-106934000D02*
X167284400Y-106934000D01*
%TO.N,MUX_03*%
X166188330Y-105814959D02*
X166172089Y-105831200D01*
X166172089Y-105831200D02*
X166172089Y-113390889D01*
X166172089Y-113390889D02*
X170383200Y-117602000D01*
X178816000Y-121056400D02*
X179425600Y-121056400D01*
X175361600Y-117602000D02*
X178816000Y-121056400D01*
X170383200Y-117602000D02*
X175361600Y-117602000D01*
%TO.N,MUX_02*%
X166141060Y-105079461D02*
X165557200Y-105663321D01*
X175196114Y-118001520D02*
X179571794Y-122377200D01*
X165557200Y-113341006D02*
X170217714Y-118001520D01*
X170217714Y-118001520D02*
X175196114Y-118001520D01*
X179571794Y-122377200D02*
X180797200Y-122377200D01*
X165557200Y-105663321D02*
X165557200Y-113341006D01*
%TO.N,MUX_01*%
X170484800Y-115519200D02*
X174447200Y-115519200D01*
X166725600Y-107492811D02*
X166725600Y-111760000D01*
X166725589Y-107492800D02*
X166725600Y-107492811D01*
X174447200Y-115519200D02*
X177698400Y-112268000D01*
X166725600Y-111760000D02*
X170484800Y-115519200D01*
%TO.N,MUX_00*%
X165157680Y-114154480D02*
X166928800Y-115925600D01*
X169722800Y-115976400D02*
X178968400Y-115976400D01*
X169672000Y-115925600D02*
X169722800Y-115976400D01*
X166103783Y-103843500D02*
X165157680Y-104789603D01*
X165157680Y-104789603D02*
X165157680Y-114154480D01*
%TD*%
M02*
