%TF.GenerationSoftware,KiCad,Pcbnew,(6.0.0)*%
%TF.CreationDate,2022-05-16T20:33:28+02:00*%
%TF.ProjectId,rp2040_magslide_controller,72703230-3430-45f6-9d61-67736c696465,rev?*%
%TF.SameCoordinates,Original*%
%TF.FileFunction,Paste,Top*%
%TF.FilePolarity,Positive*%
%FSLAX46Y46*%
G04 Gerber Fmt 4.6, Leading zero omitted, Abs format (unit mm)*
G04 Created by KiCad (PCBNEW (6.0.0)) date 2022-05-16 20:33:28*
%MOMM*%
%LPD*%
G01*
G04 APERTURE LIST*
G04 Aperture macros list*
%AMRoundRect*
0 Rectangle with rounded corners*
0 $1 Rounding radius*
0 $2 $3 $4 $5 $6 $7 $8 $9 X,Y pos of 4 corners*
0 Add a 4 corners polygon primitive as box body*
4,1,4,$2,$3,$4,$5,$6,$7,$8,$9,$2,$3,0*
0 Add four circle primitives for the rounded corners*
1,1,$1+$1,$2,$3*
1,1,$1+$1,$4,$5*
1,1,$1+$1,$6,$7*
1,1,$1+$1,$8,$9*
0 Add four rect primitives between the rounded corners*
20,1,$1+$1,$2,$3,$4,$5,0*
20,1,$1+$1,$4,$5,$6,$7,0*
20,1,$1+$1,$6,$7,$8,$9,0*
20,1,$1+$1,$8,$9,$2,$3,0*%
G04 Aperture macros list end*
%ADD10RoundRect,0.140000X0.140000X0.170000X-0.140000X0.170000X-0.140000X-0.170000X0.140000X-0.170000X0*%
%ADD11RoundRect,0.087500X-0.087500X-0.187500X0.087500X-0.187500X0.087500X0.187500X-0.087500X0.187500X0*%
%ADD12RoundRect,0.087500X-0.187500X-0.087500X0.187500X-0.087500X0.187500X0.087500X-0.187500X0.087500X0*%
%ADD13R,1.400000X1.200000*%
%ADD14R,0.700000X0.400000*%
%ADD15RoundRect,0.250000X-0.292217X-0.292217X0.292217X-0.292217X0.292217X0.292217X-0.292217X0.292217X0*%
%ADD16RoundRect,0.050000X-0.387500X-0.050000X0.387500X-0.050000X0.387500X0.050000X-0.387500X0.050000X0*%
%ADD17RoundRect,0.050000X-0.050000X-0.387500X0.050000X-0.387500X0.050000X0.387500X-0.050000X0.387500X0*%
%ADD18RoundRect,0.150000X0.512500X0.150000X-0.512500X0.150000X-0.512500X-0.150000X0.512500X-0.150000X0*%
%ADD19RoundRect,0.150000X-0.650000X-0.150000X0.650000X-0.150000X0.650000X0.150000X-0.650000X0.150000X0*%
%ADD20RoundRect,0.135000X0.185000X-0.135000X0.185000X0.135000X-0.185000X0.135000X-0.185000X-0.135000X0*%
%ADD21RoundRect,0.135000X-0.135000X-0.185000X0.135000X-0.185000X0.135000X0.185000X-0.135000X0.185000X0*%
%ADD22RoundRect,0.140000X0.170000X-0.140000X0.170000X0.140000X-0.170000X0.140000X-0.170000X-0.140000X0*%
%ADD23RoundRect,0.225000X0.250000X-0.225000X0.250000X0.225000X-0.250000X0.225000X-0.250000X-0.225000X0*%
%ADD24RoundRect,0.140000X-0.140000X-0.170000X0.140000X-0.170000X0.140000X0.170000X-0.140000X0.170000X0*%
%ADD25RoundRect,0.225000X-0.225000X-0.250000X0.225000X-0.250000X0.225000X0.250000X-0.225000X0.250000X0*%
%ADD26RoundRect,0.225000X-0.250000X0.225000X-0.250000X-0.225000X0.250000X-0.225000X0.250000X0.225000X0*%
%ADD27RoundRect,0.140000X-0.170000X0.140000X-0.170000X-0.140000X0.170000X-0.140000X0.170000X0.140000X0*%
%ADD28RoundRect,0.150000X-0.150000X0.587500X-0.150000X-0.587500X0.150000X-0.587500X0.150000X0.587500X0*%
%ADD29RoundRect,0.150000X0.150000X-0.587500X0.150000X0.587500X-0.150000X0.587500X-0.150000X-0.587500X0*%
%ADD30RoundRect,0.150000X-0.587500X-0.150000X0.587500X-0.150000X0.587500X0.150000X-0.587500X0.150000X0*%
%ADD31RoundRect,0.150000X0.587500X0.150000X-0.587500X0.150000X-0.587500X-0.150000X0.587500X-0.150000X0*%
G04 APERTURE END LIST*
D10*
%TO.C,C18*%
X172780000Y-101600000D03*
X171820000Y-101600000D03*
%TD*%
D11*
%TO.C,U4*%
X179500000Y-103595000D03*
X180000000Y-103595000D03*
X180500000Y-103595000D03*
D12*
X181225000Y-103820000D03*
X181225000Y-104320000D03*
X181225000Y-104820000D03*
X181225000Y-105320000D03*
X181225000Y-105820000D03*
D11*
X180500000Y-106045000D03*
X180000000Y-106045000D03*
X179500000Y-106045000D03*
D12*
X178775000Y-105820000D03*
X178775000Y-105320000D03*
X178775000Y-104820000D03*
X178775000Y-104320000D03*
X178775000Y-103820000D03*
%TD*%
D13*
%TO.C,Y1*%
X175600000Y-105570000D03*
X173400000Y-105570000D03*
X173400000Y-103870000D03*
X175600000Y-103870000D03*
%TD*%
D14*
%TO.C,U5*%
X185600000Y-98820000D03*
X185600000Y-98170000D03*
X185600000Y-97520000D03*
X183700000Y-97520000D03*
X183700000Y-98820000D03*
X183700000Y-98170000D03*
%TD*%
D15*
%TO.C,U3*%
X177862500Y-97832500D03*
X177862500Y-99107500D03*
X179137500Y-97832500D03*
X179137500Y-99107500D03*
D16*
X175062500Y-95870000D03*
X175062500Y-96270000D03*
X175062500Y-96670000D03*
X175062500Y-97070000D03*
X175062500Y-97470000D03*
X175062500Y-97870000D03*
X175062500Y-98270000D03*
X175062500Y-98670000D03*
X175062500Y-99070000D03*
X175062500Y-99470000D03*
X175062500Y-99870000D03*
X175062500Y-100270000D03*
X175062500Y-100670000D03*
X175062500Y-101070000D03*
D17*
X175900000Y-101907500D03*
X176300000Y-101907500D03*
X176700000Y-101907500D03*
X177100000Y-101907500D03*
X177500000Y-101907500D03*
X177900000Y-101907500D03*
X178300000Y-101907500D03*
X178700000Y-101907500D03*
X179100000Y-101907500D03*
X179500000Y-101907500D03*
X179900000Y-101907500D03*
X180300000Y-101907500D03*
X180700000Y-101907500D03*
X181100000Y-101907500D03*
D16*
X181937500Y-101070000D03*
X181937500Y-100670000D03*
X181937500Y-100270000D03*
X181937500Y-99870000D03*
X181937500Y-99470000D03*
X181937500Y-99070000D03*
X181937500Y-98670000D03*
X181937500Y-98270000D03*
X181937500Y-97870000D03*
X181937500Y-97470000D03*
X181937500Y-97070000D03*
X181937500Y-96670000D03*
X181937500Y-96270000D03*
X181937500Y-95870000D03*
D17*
X181100000Y-95032500D03*
X180700000Y-95032500D03*
X180300000Y-95032500D03*
X179900000Y-95032500D03*
X179500000Y-95032500D03*
X179100000Y-95032500D03*
X178700000Y-95032500D03*
X178300000Y-95032500D03*
X177900000Y-95032500D03*
X177500000Y-95032500D03*
X177100000Y-95032500D03*
X176700000Y-95032500D03*
X176300000Y-95032500D03*
X175900000Y-95032500D03*
%TD*%
D18*
%TO.C,U2*%
X171962500Y-89020000D03*
X171962500Y-87120000D03*
X174237500Y-87120000D03*
X174237500Y-88070000D03*
X174237500Y-89020000D03*
%TD*%
D19*
%TO.C,U1*%
X177300000Y-87665000D03*
X177300000Y-88935000D03*
X177300000Y-90205000D03*
X177300000Y-91475000D03*
X184500000Y-91475000D03*
X184500000Y-90205000D03*
X184500000Y-88935000D03*
X184500000Y-87665000D03*
%TD*%
D20*
%TO.C,R7*%
X183400000Y-101960000D03*
X183400000Y-102980000D03*
%TD*%
%TO.C,R6*%
X185800000Y-101960000D03*
X185800000Y-102980000D03*
%TD*%
D21*
%TO.C,R5*%
X172760000Y-98770000D03*
X171740000Y-98770000D03*
%TD*%
%TO.C,R4*%
X182510000Y-85970000D03*
X181490000Y-85970000D03*
%TD*%
%TO.C,R2*%
X172760000Y-97670000D03*
X171740000Y-97670000D03*
%TD*%
D22*
%TO.C,C20*%
X184600000Y-101990000D03*
X184600000Y-102950000D03*
%TD*%
D23*
%TO.C,C19*%
X183250000Y-104295000D03*
X183250000Y-105845000D03*
%TD*%
D10*
%TO.C,C17*%
X179820000Y-93470000D03*
X180780000Y-93470000D03*
%TD*%
D24*
%TO.C,C16*%
X182880000Y-93470000D03*
X181920000Y-93470000D03*
%TD*%
D10*
%TO.C,C15*%
X171800000Y-99970000D03*
X172760000Y-99970000D03*
%TD*%
%TO.C,C14*%
X171770000Y-96570000D03*
X172730000Y-96570000D03*
%TD*%
D24*
%TO.C,C13*%
X185180000Y-94570000D03*
X184220000Y-94570000D03*
%TD*%
%TO.C,C12*%
X184330000Y-100320000D03*
X183370000Y-100320000D03*
%TD*%
%TO.C,C11*%
X185180000Y-93470000D03*
X184220000Y-93470000D03*
%TD*%
%TO.C,C10*%
X185660000Y-104170000D03*
X184700000Y-104170000D03*
%TD*%
D25*
%TO.C,C9*%
X185575000Y-95970000D03*
X184025000Y-95970000D03*
%TD*%
D24*
%TO.C,C8*%
X185660000Y-105270000D03*
X184700000Y-105270000D03*
%TD*%
D26*
%TO.C,C7*%
X171800000Y-92145000D03*
X171800000Y-90595000D03*
%TD*%
D22*
%TO.C,C5*%
X177250000Y-103890000D03*
X177250000Y-104850000D03*
%TD*%
D27*
%TO.C,C4*%
X171750000Y-105550000D03*
X171750000Y-104590000D03*
%TD*%
D26*
%TO.C,C2*%
X174200000Y-92145000D03*
X174200000Y-90595000D03*
%TD*%
D24*
%TO.C,C1*%
X184580000Y-85970000D03*
X183620000Y-85970000D03*
%TD*%
D28*
%TO.C,S4*%
X178640000Y-122687500D03*
X177690000Y-120812500D03*
X179590000Y-120812500D03*
%TD*%
D29*
%TO.C,S2*%
X178640000Y-113312500D03*
X179590000Y-115187500D03*
X177690000Y-115187500D03*
%TD*%
D30*
%TO.C,S1*%
X183327500Y-118000000D03*
X181452500Y-118950000D03*
X181452500Y-117050000D03*
%TD*%
D31*
%TO.C,S3*%
X173952500Y-118000000D03*
X175827500Y-117050000D03*
X175827500Y-118950000D03*
%TD*%
M02*
