M48
; DRILL file {KiCad (6.0.0)} date Mon May 16 20:33:28 2022
; FORMAT={-:-/ absolute / inch / decimal}
; #@! TF.CreationDate,2022-05-16T20:33:28+02:00
; #@! TF.GenerationSoftware,Kicad,Pcbnew,(6.0.0)
; #@! TF.FileFunction,Plated,1,4,PTH
FMAT,2
INCH
; #@! TA.AperFunction,Plated,PTH,ViaDrill
T1C0.0100
; #@! TA.AperFunction,Plated,PTH,ComponentDrill
T2C0.0138
; #@! TA.AperFunction,Plated,PTH,ComponentDrill
T3C0.0197
; #@! TA.AperFunction,Plated,PTH,ComponentDrill
T4C0.0315
%
G90
G05
T1
X6.7402Y-3.7992
X6.7441Y-3.9488
X6.7677Y-3.4685
X6.7835Y-4.2362
X6.8039Y-3.6063
X6.811Y-3.4673
X6.8268Y-4.1929
X6.8345Y-3.7943
X6.8372Y-3.8687
X6.8386Y-4.0039
X6.8398Y-3.8217
X6.8465Y-4.6732
X6.8475Y-3.7697
X6.8896Y-3.752
X6.9094Y-4.7205
X6.932Y-3.8462
X6.932Y-3.874
X6.932Y-3.9134
X6.9488Y-4.7717
X6.9567Y-4.5354
X6.9646Y-3.1772
X6.9764Y-3.7835
X6.9803Y-3.4173
X6.9843Y-4.0551
X6.9942Y-3.6957
X6.9961Y-3.9606
X6.9961Y-4.1614
X7.0079Y-4.4409
X7.0197Y-4.2047
X7.0218Y-3.6999
X7.0394Y-3.5709
X7.053Y-3.9585
X7.0669Y-4.8189
X7.0687Y-4.0499
X7.0748Y-4.2047
X7.0846Y-3.9637
X7.0906Y-3.2953
X7.0945Y-4.311
X7.0984Y-3.7783
X7.0984Y-4.0472
X7.1024Y-3.1693
X7.1024Y-4.1417
X7.1063Y-3.6417
X7.1102Y-3.9745
X7.1102Y-4.748
X7.1142Y-4.2008
X7.1208Y-3.5527
X7.1242Y-3.8929
X7.1242Y-3.9252
X7.126Y-4.0591
X7.1286Y-3.8606
X7.1378Y-3.6496
X7.1496Y-3.0591
X7.1496Y-3.1181
X7.1535Y-4.5787
X7.1575Y-3.1535
X7.1614Y-2.9724
X7.1614Y-4.7283
X7.1654Y-3.739
X7.1832Y-4.2073
X7.1871Y-4.0433
X7.189Y-4.2559
X7.196Y-4.0697
X7.2008Y-3.6378
X7.2008Y-3.7795
X7.2008Y-3.811
X7.2066Y-4.6142
X7.2126Y-3.5106
X7.2126Y-3.7205
X7.2205Y-4.1969
X7.2283Y-3.6496
X7.2441Y-3.3465
X7.2559Y-4.1811
X7.2562Y-3.6496
X7.2639Y-3.8505
X7.2717Y-3.0984
X7.2738Y-3.8098
X7.2756Y-3.0394
X7.2874Y-3.3425
X7.2913Y-4.2717
X7.3173Y-3.815
X7.3228Y-3.6811
X7.3307Y-3.8661
T2
X6.9774Y-3.8266
X6.9774Y-3.8768
X6.9774Y-3.927
X7.0276Y-3.8266
X7.0276Y-3.8768
X7.0276Y-3.927
X7.0778Y-3.8266
X7.0778Y-3.8768
X7.0778Y-3.927
T3
X6.7795Y-3.6996
X6.7795Y-3.739
T4
G00X6.7736Y-2.985
M15
G01X6.7736Y-3.0126
M16
G05
G00X6.7913Y-3.3
M15
G01X6.7913Y-3.3276
M16
G05
G00X6.8898Y-3.3453
M15
G01X6.9173Y-3.3453
M16
G05
G00X7.0157Y-3.3
M15
G01X7.0157Y-3.3276
M16
G05
G00X7.0335Y-2.985
M15
G01X7.0335Y-3.0126
M16
G05
T0
M30
