%TF.GenerationSoftware,KiCad,Pcbnew,(6.0.5)*%
%TF.CreationDate,2022-05-17T06:41:27+02:00*%
%TF.ProjectId,rp2040_magslide_controller,72703230-3430-45f6-9d61-67736c696465,rev?*%
%TF.SameCoordinates,Original*%
%TF.FileFunction,Copper,L3,Inr*%
%TF.FilePolarity,Positive*%
%FSLAX46Y46*%
G04 Gerber Fmt 4.6, Leading zero omitted, Abs format (unit mm)*
G04 Created by KiCad (PCBNEW (6.0.5)) date 2022-05-17 06:41:27*
%MOMM*%
%LPD*%
G01*
G04 APERTURE LIST*
%TA.AperFunction,ComponentPad*%
%ADD10C,0.600000*%
%TD*%
%TA.AperFunction,ComponentPad*%
%ADD11R,0.850000X0.850000*%
%TD*%
%TA.AperFunction,ComponentPad*%
%ADD12O,0.850000X0.850000*%
%TD*%
%TA.AperFunction,ComponentPad*%
%ADD13O,2.200000X1.800000*%
%TD*%
%TA.AperFunction,ComponentPad*%
%ADD14O,1.800000X2.200000*%
%TD*%
%TA.AperFunction,ViaPad*%
%ADD15C,0.508000*%
%TD*%
G04 APERTURE END LIST*
D10*
%TO.N,GND*%
%TO.C,U3*%
X179775000Y-97195000D03*
X177225000Y-97195000D03*
X179775000Y-98470000D03*
X178500000Y-98470000D03*
X179775000Y-99745000D03*
X178500000Y-97195000D03*
X177225000Y-99745000D03*
X177225000Y-98470000D03*
X178500000Y-99745000D03*
%TD*%
D11*
%TO.N,+3V3*%
%TO.C,J1*%
X172200000Y-93970000D03*
D12*
%TO.N,PRESSURE*%
X172200000Y-94970000D03*
%TD*%
D13*
%TO.N,+5V*%
%TO.C,J2*%
X175350000Y-84970000D03*
D14*
%TO.N,board_scl*%
X178200000Y-84170000D03*
%TO.N,board_sda*%
X172500000Y-84170000D03*
%TO.N,GND*%
X178650000Y-76170000D03*
X172050000Y-76170000D03*
%TD*%
D15*
%TO.N,+3V3*%
X179146469Y-100546468D03*
X176700000Y-115200000D03*
X184307503Y-92700000D03*
X182000000Y-94970000D03*
X182779201Y-103370537D03*
X171900000Y-88100000D03*
X181000000Y-103100000D03*
X180600000Y-120600000D03*
X181700000Y-116300000D03*
X181900000Y-75500000D03*
X183400000Y-106600000D03*
X173700000Y-101700000D03*
X174996500Y-95300000D03*
X175500000Y-119900000D03*
X180953500Y-99700000D03*
X176071989Y-99400000D03*
X184000000Y-85000000D03*
X181300000Y-92700000D03*
X180700000Y-106700000D03*
%TO.N,GND*%
X182600000Y-108100000D03*
X172819641Y-91600000D03*
X184800000Y-77200000D03*
X186200000Y-98200000D03*
X183046500Y-117200000D03*
X178000000Y-112800000D03*
X178800000Y-90700000D03*
X181600000Y-79200000D03*
X185100000Y-84900000D03*
X182900000Y-92400000D03*
X173000000Y-88070000D03*
X178300000Y-106800000D03*
X180500000Y-92500000D03*
X179500000Y-122400000D03*
X171200000Y-96500000D03*
X182453500Y-106865756D03*
X186000000Y-93500000D03*
X173900000Y-118700000D03*
X180400000Y-105200000D03*
X171300000Y-100300000D03*
X180400000Y-80500000D03*
%TO.N,Net-(C4-Pad2)*%
X177400000Y-103000000D03*
X173400000Y-106500000D03*
%TO.N,+1V1*%
X182900000Y-96000000D03*
X180300000Y-95970000D03*
X179948279Y-100678148D03*
X184300000Y-106200000D03*
%TO.N,board_sda*%
X176071989Y-97692497D03*
X180100000Y-83700000D03*
%TO.N,board_scl*%
X177300000Y-86800000D03*
X176071989Y-98400000D03*
%TO.N,SWDIO*%
X180300000Y-102800000D03*
X181600000Y-77700000D03*
%TO.N,SWCLK*%
X181800000Y-80100000D03*
X179544426Y-102866489D03*
%TO.N,dbg_rx*%
X173596451Y-96375216D03*
X176900000Y-80700000D03*
%TO.N,dbg_tx*%
X173926652Y-95749495D03*
X184700000Y-78700000D03*
%TO.N,PRESSURE*%
X172300000Y-107600000D03*
%TO.N,SENS4*%
X176500000Y-121200000D03*
%TO.N,Net-(JP1-Pad2)*%
X185860511Y-96900000D03*
%TO.N,ADC4*%
X177200000Y-96100000D03*
X183600000Y-92700000D03*
X183200000Y-94500000D03*
%TO.N,Net-(R7-Pad2)*%
X182553500Y-102700000D03*
X180600000Y-100953500D03*
%TO.N,MUX_OUT*%
X184753500Y-96768234D03*
%TO.N,Net-(R2-Pad2)*%
X173730000Y-97070000D03*
X179700000Y-106800000D03*
%TO.N,Net-(R5-Pad2)*%
X173665000Y-98265000D03*
X177700000Y-105700000D03*
%TO.N,SENS1*%
X181900000Y-120100000D03*
X181066039Y-98058906D03*
%TO.N,QSPI_SCLK*%
X177653500Y-93870000D03*
X180868276Y-90238276D03*
%TO.N,QSPI_SD3*%
X178352687Y-93978150D03*
X183200000Y-89170000D03*
%TO.N,SENS2*%
X180200000Y-109500000D03*
X180953500Y-98879456D03*
%TO.N,SENS3*%
X182900000Y-96800000D03*
X185200000Y-108500000D03*
%TO.N,ADC4_SEL*%
X184502251Y-97802251D03*
X177700000Y-100600000D03*
%TD*%
%TA.AperFunction,Conductor*%
%TO.N,GND*%
G36*
X185610019Y-73151757D02*
G01*
X185624852Y-73154067D01*
X185624856Y-73154067D01*
X185633725Y-73155448D01*
X185642627Y-73154284D01*
X185642632Y-73154284D01*
X185642751Y-73154268D01*
X185673189Y-73153997D01*
X185735271Y-73160992D01*
X185762776Y-73167270D01*
X185839870Y-73194245D01*
X185865286Y-73206484D01*
X185934446Y-73249939D01*
X185956502Y-73267527D01*
X186014259Y-73325281D01*
X186031851Y-73347340D01*
X186075305Y-73416492D01*
X186087548Y-73441913D01*
X186114526Y-73519006D01*
X186120805Y-73546511D01*
X186127043Y-73601854D01*
X186126708Y-73617646D01*
X186127803Y-73617659D01*
X186127694Y-73626628D01*
X186126312Y-73635503D01*
X186130243Y-73665553D01*
X186130439Y-73667054D01*
X186131503Y-73683396D01*
X186131503Y-96022452D01*
X186111501Y-96090573D01*
X186057845Y-96137066D01*
X185990585Y-96147566D01*
X185865868Y-96132694D01*
X185858865Y-96133430D01*
X185858864Y-96133430D01*
X185814469Y-96138096D01*
X185695739Y-96150575D01*
X185686107Y-96153854D01*
X185540467Y-96203434D01*
X185540464Y-96203435D01*
X185533800Y-96205704D01*
X185527805Y-96209392D01*
X185527801Y-96209394D01*
X185454815Y-96254296D01*
X185386314Y-96272954D01*
X185318600Y-96251615D01*
X185299387Y-96235762D01*
X185239272Y-96175226D01*
X185234309Y-96170228D01*
X185157407Y-96121425D01*
X185095816Y-96082338D01*
X185095813Y-96082336D01*
X185089873Y-96078567D01*
X185083240Y-96076205D01*
X184935354Y-96023545D01*
X184935349Y-96023544D01*
X184928719Y-96021183D01*
X184921731Y-96020350D01*
X184921728Y-96020349D01*
X184806155Y-96006568D01*
X184758857Y-96000928D01*
X184751854Y-96001664D01*
X184751853Y-96001664D01*
X184707458Y-96006330D01*
X184588728Y-96018809D01*
X184581044Y-96021425D01*
X184433456Y-96071668D01*
X184433453Y-96071669D01*
X184426789Y-96073938D01*
X184281088Y-96163574D01*
X184276057Y-96168501D01*
X184276054Y-96168503D01*
X184242075Y-96201778D01*
X184158866Y-96283262D01*
X184155047Y-96289187D01*
X184155046Y-96289189D01*
X184151082Y-96295340D01*
X184066198Y-96427054D01*
X184063787Y-96433677D01*
X184063786Y-96433680D01*
X184010100Y-96581181D01*
X184010099Y-96581186D01*
X184007690Y-96587804D01*
X183986250Y-96757520D01*
X184002943Y-96927770D01*
X184011179Y-96952527D01*
X184052402Y-97076449D01*
X184054925Y-97147401D01*
X184021002Y-97206244D01*
X183912654Y-97312346D01*
X183907617Y-97317279D01*
X183903798Y-97323204D01*
X183903797Y-97323206D01*
X183885681Y-97351317D01*
X183814949Y-97461071D01*
X183812538Y-97467694D01*
X183812537Y-97467697D01*
X183758851Y-97615198D01*
X183758850Y-97615203D01*
X183756441Y-97621821D01*
X183735001Y-97791537D01*
X183751694Y-97961787D01*
X183805691Y-98124107D01*
X183809338Y-98130129D01*
X183809339Y-98130131D01*
X183890657Y-98264405D01*
X183890660Y-98264408D01*
X183894307Y-98270431D01*
X184013140Y-98393485D01*
X184019036Y-98397343D01*
X184097753Y-98448854D01*
X184156281Y-98487154D01*
X184162885Y-98489610D01*
X184162887Y-98489611D01*
X184310008Y-98544325D01*
X184310010Y-98544325D01*
X184316618Y-98546783D01*
X184393549Y-98557048D01*
X184479200Y-98568477D01*
X184479204Y-98568477D01*
X184486181Y-98569408D01*
X184493192Y-98568770D01*
X184493196Y-98568770D01*
X184649524Y-98554543D01*
X184649526Y-98554543D01*
X184656543Y-98553904D01*
X184663241Y-98551728D01*
X184663244Y-98551727D01*
X184812540Y-98503217D01*
X184812542Y-98503216D01*
X184819236Y-98501041D01*
X184906781Y-98448854D01*
X184960123Y-98417056D01*
X184960125Y-98417055D01*
X184966175Y-98413448D01*
X185090056Y-98295478D01*
X185098703Y-98282464D01*
X185140489Y-98219570D01*
X185184722Y-98152994D01*
X185245469Y-97993077D01*
X185259126Y-97895904D01*
X185268726Y-97827598D01*
X185268726Y-97827595D01*
X185269277Y-97823676D01*
X185269576Y-97802251D01*
X185253707Y-97660781D01*
X185265991Y-97590856D01*
X185314130Y-97538671D01*
X185382839Y-97520797D01*
X185447915Y-97541304D01*
X185497779Y-97573934D01*
X185514541Y-97584903D01*
X185521145Y-97587359D01*
X185521147Y-97587360D01*
X185668268Y-97642074D01*
X185668270Y-97642074D01*
X185674878Y-97644532D01*
X185742381Y-97653539D01*
X185837460Y-97666226D01*
X185837464Y-97666226D01*
X185844441Y-97667157D01*
X185851453Y-97666519D01*
X185851457Y-97666519D01*
X185994084Y-97653539D01*
X186063737Y-97667285D01*
X186114901Y-97716506D01*
X186131503Y-97779020D01*
X186131503Y-108115559D01*
X186111501Y-108183680D01*
X186057845Y-108230173D01*
X185987571Y-108240277D01*
X185922991Y-108210783D01*
X185893100Y-108171612D01*
X185891999Y-108168450D01*
X185801348Y-108023378D01*
X185788159Y-108010096D01*
X185729219Y-107950743D01*
X185680809Y-107901994D01*
X185615539Y-107860573D01*
X185542316Y-107814104D01*
X185542313Y-107814102D01*
X185536373Y-107810333D01*
X185529740Y-107807971D01*
X185381854Y-107755311D01*
X185381849Y-107755310D01*
X185375219Y-107752949D01*
X185368231Y-107752116D01*
X185368228Y-107752115D01*
X185252655Y-107738334D01*
X185205357Y-107732694D01*
X185198354Y-107733430D01*
X185198353Y-107733430D01*
X185153958Y-107738096D01*
X185035228Y-107750575D01*
X185025071Y-107754033D01*
X184879956Y-107803434D01*
X184879953Y-107803435D01*
X184873289Y-107805704D01*
X184727588Y-107895340D01*
X184722557Y-107900267D01*
X184722554Y-107900269D01*
X184671012Y-107950743D01*
X184605366Y-108015028D01*
X184601547Y-108020953D01*
X184601546Y-108020955D01*
X184596135Y-108029352D01*
X184512698Y-108158820D01*
X184510287Y-108165443D01*
X184510286Y-108165446D01*
X184456600Y-108312947D01*
X184456599Y-108312952D01*
X184454190Y-108319570D01*
X184432750Y-108489286D01*
X184449443Y-108659536D01*
X184503440Y-108821856D01*
X184507087Y-108827878D01*
X184507088Y-108827880D01*
X184588406Y-108962154D01*
X184588409Y-108962157D01*
X184592056Y-108968180D01*
X184710889Y-109091234D01*
X184716785Y-109095092D01*
X184824297Y-109165446D01*
X184854030Y-109184903D01*
X184860634Y-109187359D01*
X184860636Y-109187360D01*
X185007757Y-109242074D01*
X185007759Y-109242074D01*
X185014367Y-109244532D01*
X185093454Y-109255085D01*
X185176949Y-109266226D01*
X185176953Y-109266226D01*
X185183930Y-109267157D01*
X185190941Y-109266519D01*
X185190945Y-109266519D01*
X185347273Y-109252292D01*
X185347275Y-109252292D01*
X185354292Y-109251653D01*
X185360990Y-109249477D01*
X185360993Y-109249476D01*
X185510289Y-109200966D01*
X185510291Y-109200965D01*
X185516985Y-109198790D01*
X185572920Y-109165446D01*
X185657872Y-109114805D01*
X185657874Y-109114804D01*
X185663924Y-109111197D01*
X185787805Y-108993227D01*
X185801079Y-108973249D01*
X185878570Y-108856614D01*
X185882471Y-108850743D01*
X185884972Y-108844158D01*
X185884975Y-108844153D01*
X185887715Y-108836939D01*
X185930603Y-108780361D01*
X185997272Y-108755951D01*
X186066554Y-108771460D01*
X186116453Y-108821964D01*
X186131503Y-108881682D01*
X186131503Y-117950633D01*
X186130003Y-117970018D01*
X186126312Y-117993724D01*
X186127476Y-118002627D01*
X186127476Y-118002628D01*
X186129208Y-118015874D01*
X186130192Y-118036704D01*
X186122384Y-118255315D01*
X186112576Y-118529945D01*
X186111934Y-118538917D01*
X186055731Y-119061677D01*
X186054451Y-119070579D01*
X185961098Y-119588005D01*
X185959187Y-119596793D01*
X185841078Y-120059536D01*
X185829157Y-120106240D01*
X185826624Y-120114865D01*
X185824598Y-120120955D01*
X185660583Y-120613741D01*
X185657440Y-120622168D01*
X185456231Y-121107930D01*
X185452494Y-121116112D01*
X185362857Y-121295184D01*
X185234934Y-121550743D01*
X185217152Y-121586266D01*
X185212842Y-121594160D01*
X184944549Y-122046341D01*
X184939686Y-122053908D01*
X184639822Y-122485795D01*
X184634432Y-122492995D01*
X184304527Y-122902383D01*
X184298637Y-122909181D01*
X183940359Y-123293999D01*
X183933999Y-123300359D01*
X183549181Y-123658637D01*
X183542383Y-123664527D01*
X183132995Y-123994432D01*
X183125795Y-123999822D01*
X182693908Y-124299686D01*
X182686341Y-124304549D01*
X182234160Y-124572842D01*
X182226266Y-124577152D01*
X181756112Y-124812494D01*
X181747930Y-124816231D01*
X181262168Y-125017440D01*
X181253741Y-125020583D01*
X180886062Y-125142958D01*
X180754865Y-125186624D01*
X180746244Y-125189156D01*
X180236795Y-125319186D01*
X180228005Y-125321098D01*
X179710579Y-125414451D01*
X179701677Y-125415731D01*
X179178917Y-125471934D01*
X179169945Y-125472576D01*
X178644497Y-125491342D01*
X178635503Y-125491342D01*
X178110055Y-125472576D01*
X178101083Y-125471934D01*
X177578323Y-125415731D01*
X177569421Y-125414451D01*
X177051995Y-125321098D01*
X177043205Y-125319186D01*
X176533756Y-125189156D01*
X176525135Y-125186624D01*
X176393938Y-125142958D01*
X176026259Y-125020583D01*
X176017832Y-125017440D01*
X175532070Y-124816231D01*
X175523888Y-124812494D01*
X175053734Y-124577152D01*
X175045840Y-124572842D01*
X174593659Y-124304549D01*
X174586092Y-124299686D01*
X174154205Y-123999822D01*
X174147005Y-123994432D01*
X173737617Y-123664527D01*
X173730819Y-123658637D01*
X173346001Y-123300359D01*
X173339641Y-123293999D01*
X172981363Y-122909181D01*
X172975473Y-122902383D01*
X172645568Y-122492995D01*
X172640178Y-122485795D01*
X172340314Y-122053908D01*
X172335451Y-122046341D01*
X172067158Y-121594160D01*
X172062848Y-121586266D01*
X172045067Y-121550743D01*
X171917143Y-121295184D01*
X171827506Y-121116112D01*
X171823769Y-121107930D01*
X171622560Y-120622168D01*
X171619417Y-120613741D01*
X171455402Y-120120955D01*
X171453376Y-120114865D01*
X171450843Y-120106240D01*
X171438923Y-120059536D01*
X171395469Y-119889286D01*
X174732750Y-119889286D01*
X174749443Y-120059536D01*
X174803440Y-120221856D01*
X174807087Y-120227878D01*
X174807088Y-120227880D01*
X174888406Y-120362154D01*
X174888409Y-120362157D01*
X174892056Y-120368180D01*
X175010889Y-120491234D01*
X175154030Y-120584903D01*
X175160634Y-120587359D01*
X175160636Y-120587360D01*
X175307757Y-120642074D01*
X175307759Y-120642074D01*
X175314367Y-120644532D01*
X175393454Y-120655085D01*
X175476949Y-120666226D01*
X175476953Y-120666226D01*
X175483930Y-120667157D01*
X175490941Y-120666519D01*
X175490945Y-120666519D01*
X175647273Y-120652292D01*
X175647275Y-120652292D01*
X175654292Y-120651653D01*
X175660997Y-120649474D01*
X175660999Y-120649474D01*
X175686995Y-120641028D01*
X175757962Y-120639001D01*
X175818760Y-120675663D01*
X175850085Y-120739376D01*
X175841991Y-120809910D01*
X175831841Y-120829116D01*
X175812698Y-120858820D01*
X175810287Y-120865443D01*
X175810286Y-120865446D01*
X175756600Y-121012947D01*
X175756599Y-121012952D01*
X175754190Y-121019570D01*
X175732750Y-121189286D01*
X175749443Y-121359536D01*
X175803440Y-121521856D01*
X175807087Y-121527878D01*
X175807088Y-121527880D01*
X175888406Y-121662154D01*
X175888409Y-121662157D01*
X175892056Y-121668180D01*
X176010889Y-121791234D01*
X176154030Y-121884903D01*
X176160634Y-121887359D01*
X176160636Y-121887360D01*
X176307757Y-121942074D01*
X176307759Y-121942074D01*
X176314367Y-121944532D01*
X176393454Y-121955085D01*
X176476949Y-121966226D01*
X176476953Y-121966226D01*
X176483930Y-121967157D01*
X176490941Y-121966519D01*
X176490945Y-121966519D01*
X176647273Y-121952292D01*
X176647275Y-121952292D01*
X176654292Y-121951653D01*
X176660990Y-121949477D01*
X176660993Y-121949476D01*
X176810289Y-121900966D01*
X176810291Y-121900965D01*
X176816985Y-121898790D01*
X176963924Y-121811197D01*
X177087805Y-121693227D01*
X177101079Y-121673249D01*
X177156193Y-121590295D01*
X177182471Y-121550743D01*
X177243218Y-121390826D01*
X177244198Y-121383854D01*
X177266475Y-121225347D01*
X177266475Y-121225344D01*
X177267026Y-121221425D01*
X177267325Y-121200000D01*
X177248256Y-121030000D01*
X177212695Y-120927880D01*
X177194314Y-120875097D01*
X177194313Y-120875095D01*
X177191999Y-120868450D01*
X177175518Y-120842074D01*
X177105081Y-120729352D01*
X177101348Y-120723378D01*
X176980809Y-120601994D01*
X176960784Y-120589286D01*
X179832750Y-120589286D01*
X179849443Y-120759536D01*
X179903440Y-120921856D01*
X179907087Y-120927878D01*
X179907088Y-120927880D01*
X179988406Y-121062154D01*
X179988409Y-121062157D01*
X179992056Y-121068180D01*
X180110889Y-121191234D01*
X180254030Y-121284903D01*
X180260634Y-121287359D01*
X180260636Y-121287360D01*
X180407757Y-121342074D01*
X180407759Y-121342074D01*
X180414367Y-121344532D01*
X180474286Y-121352527D01*
X180576949Y-121366226D01*
X180576953Y-121366226D01*
X180583930Y-121367157D01*
X180590941Y-121366519D01*
X180590945Y-121366519D01*
X180747273Y-121352292D01*
X180747275Y-121352292D01*
X180754292Y-121351653D01*
X180760990Y-121349477D01*
X180760993Y-121349476D01*
X180910289Y-121300966D01*
X180910291Y-121300965D01*
X180916985Y-121298790D01*
X180952369Y-121277697D01*
X181057872Y-121214805D01*
X181057874Y-121214804D01*
X181063924Y-121211197D01*
X181187805Y-121093227D01*
X181201079Y-121073249D01*
X181278570Y-120956614D01*
X181282471Y-120950743D01*
X181331341Y-120822093D01*
X181374230Y-120765515D01*
X181440899Y-120741106D01*
X181510180Y-120756616D01*
X181518102Y-120761392D01*
X181554030Y-120784903D01*
X181560634Y-120787359D01*
X181560636Y-120787360D01*
X181707757Y-120842074D01*
X181707759Y-120842074D01*
X181714367Y-120844532D01*
X181793454Y-120855085D01*
X181876949Y-120866226D01*
X181876953Y-120866226D01*
X181883930Y-120867157D01*
X181890941Y-120866519D01*
X181890945Y-120866519D01*
X182047273Y-120852292D01*
X182047275Y-120852292D01*
X182054292Y-120851653D01*
X182060990Y-120849477D01*
X182060993Y-120849476D01*
X182210289Y-120800966D01*
X182210291Y-120800965D01*
X182216985Y-120798790D01*
X182271620Y-120766221D01*
X182357872Y-120714805D01*
X182357874Y-120714804D01*
X182363924Y-120711197D01*
X182487805Y-120593227D01*
X182493336Y-120584903D01*
X182540374Y-120514104D01*
X182582471Y-120450743D01*
X182643218Y-120290826D01*
X182648549Y-120252893D01*
X182666475Y-120125347D01*
X182666475Y-120125344D01*
X182667026Y-120121425D01*
X182667325Y-120100000D01*
X182648256Y-119930000D01*
X182642721Y-119914104D01*
X182594314Y-119775097D01*
X182594313Y-119775095D01*
X182591999Y-119768450D01*
X182565825Y-119726562D01*
X182505081Y-119629352D01*
X182501348Y-119623378D01*
X182488159Y-119610096D01*
X182385772Y-119506992D01*
X182380809Y-119501994D01*
X182315539Y-119460573D01*
X182242316Y-119414104D01*
X182242313Y-119414102D01*
X182236373Y-119410333D01*
X182229740Y-119407971D01*
X182081854Y-119355311D01*
X182081849Y-119355310D01*
X182075219Y-119352949D01*
X182068231Y-119352116D01*
X182068228Y-119352115D01*
X181952655Y-119338334D01*
X181905357Y-119332694D01*
X181898354Y-119333430D01*
X181898353Y-119333430D01*
X181853958Y-119338096D01*
X181735228Y-119350575D01*
X181725071Y-119354033D01*
X181579956Y-119403434D01*
X181579953Y-119403435D01*
X181573289Y-119405704D01*
X181427588Y-119495340D01*
X181422557Y-119500267D01*
X181422554Y-119500269D01*
X181363573Y-119558028D01*
X181305366Y-119615028D01*
X181301547Y-119620953D01*
X181301546Y-119620955D01*
X181296135Y-119629352D01*
X181212698Y-119758820D01*
X181210287Y-119765443D01*
X181210286Y-119765446D01*
X181169649Y-119877097D01*
X181127555Y-119934269D01*
X181061234Y-119959607D01*
X180991742Y-119945066D01*
X180983734Y-119940389D01*
X180942316Y-119914104D01*
X180942313Y-119914102D01*
X180936373Y-119910333D01*
X180929740Y-119907971D01*
X180781854Y-119855311D01*
X180781849Y-119855310D01*
X180775219Y-119852949D01*
X180768231Y-119852116D01*
X180768228Y-119852115D01*
X180652655Y-119838334D01*
X180605357Y-119832694D01*
X180598354Y-119833430D01*
X180598353Y-119833430D01*
X180553958Y-119838096D01*
X180435228Y-119850575D01*
X180425071Y-119854033D01*
X180279956Y-119903434D01*
X180279953Y-119903435D01*
X180273289Y-119905704D01*
X180127588Y-119995340D01*
X180122557Y-120000267D01*
X180122554Y-120000269D01*
X180069190Y-120052527D01*
X180005366Y-120115028D01*
X179912698Y-120258820D01*
X179910287Y-120265443D01*
X179910286Y-120265446D01*
X179856600Y-120412947D01*
X179856599Y-120412952D01*
X179854190Y-120419570D01*
X179832750Y-120589286D01*
X176960784Y-120589286D01*
X176915539Y-120560573D01*
X176842316Y-120514104D01*
X176842313Y-120514102D01*
X176836373Y-120510333D01*
X176829740Y-120507971D01*
X176681854Y-120455311D01*
X176681849Y-120455310D01*
X176675219Y-120452949D01*
X176668231Y-120452116D01*
X176668228Y-120452115D01*
X176552655Y-120438334D01*
X176505357Y-120432694D01*
X176498354Y-120433430D01*
X176498353Y-120433430D01*
X176453958Y-120438096D01*
X176335228Y-120450575D01*
X176328563Y-120452844D01*
X176328554Y-120452846D01*
X176316627Y-120456907D01*
X176245695Y-120459928D01*
X176184390Y-120424120D01*
X176152176Y-120360852D01*
X176159281Y-120290212D01*
X176171068Y-120267907D01*
X176178570Y-120256616D01*
X176178573Y-120256609D01*
X176182471Y-120250743D01*
X176230105Y-120125347D01*
X176240718Y-120097408D01*
X176240719Y-120097406D01*
X176243218Y-120090826D01*
X176261660Y-119959607D01*
X176266475Y-119925347D01*
X176266475Y-119925344D01*
X176267026Y-119921425D01*
X176267214Y-119907971D01*
X176267270Y-119903962D01*
X176267270Y-119903957D01*
X176267325Y-119900000D01*
X176248256Y-119730000D01*
X176223358Y-119658500D01*
X176194314Y-119575097D01*
X176194313Y-119575095D01*
X176191999Y-119568450D01*
X176136553Y-119479717D01*
X176105081Y-119429352D01*
X176101348Y-119423378D01*
X176088159Y-119410096D01*
X175985772Y-119306992D01*
X175980809Y-119301994D01*
X175915539Y-119260573D01*
X175842316Y-119214104D01*
X175842313Y-119214102D01*
X175836373Y-119210333D01*
X175829740Y-119207971D01*
X175681854Y-119155311D01*
X175681849Y-119155310D01*
X175675219Y-119152949D01*
X175668231Y-119152116D01*
X175668228Y-119152115D01*
X175552655Y-119138334D01*
X175505357Y-119132694D01*
X175498354Y-119133430D01*
X175498353Y-119133430D01*
X175453958Y-119138096D01*
X175335228Y-119150575D01*
X175325071Y-119154033D01*
X175179956Y-119203434D01*
X175179953Y-119203435D01*
X175173289Y-119205704D01*
X175027588Y-119295340D01*
X175022557Y-119300267D01*
X175022554Y-119300269D01*
X174968759Y-119352949D01*
X174905366Y-119415028D01*
X174901547Y-119420953D01*
X174901546Y-119420955D01*
X174896135Y-119429352D01*
X174812698Y-119558820D01*
X174810287Y-119565443D01*
X174810286Y-119565446D01*
X174756600Y-119712947D01*
X174756599Y-119712952D01*
X174754190Y-119719570D01*
X174732750Y-119889286D01*
X171395469Y-119889286D01*
X171320813Y-119596793D01*
X171318902Y-119588005D01*
X171225549Y-119070579D01*
X171224269Y-119061677D01*
X171168066Y-118538917D01*
X171167424Y-118529945D01*
X171150213Y-118048025D01*
X171151878Y-118022632D01*
X171152765Y-118017355D01*
X171153573Y-118012552D01*
X171153726Y-118000000D01*
X176976372Y-118000000D01*
X176996854Y-118260249D01*
X176998008Y-118265056D01*
X176998009Y-118265062D01*
X177036424Y-118425069D01*
X177057796Y-118514089D01*
X177157697Y-118755271D01*
X177294097Y-118977856D01*
X177463637Y-119176363D01*
X177662144Y-119345903D01*
X177884729Y-119482303D01*
X177889299Y-119484196D01*
X177889303Y-119484198D01*
X178108753Y-119575097D01*
X178125911Y-119582204D01*
X178214931Y-119603576D01*
X178374938Y-119641991D01*
X178374944Y-119641992D01*
X178379751Y-119643146D01*
X178470884Y-119650318D01*
X178572385Y-119658307D01*
X178572394Y-119658307D01*
X178574842Y-119658500D01*
X178705158Y-119658500D01*
X178707606Y-119658307D01*
X178707615Y-119658307D01*
X178809116Y-119650318D01*
X178900249Y-119643146D01*
X178905056Y-119641992D01*
X178905062Y-119641991D01*
X179065069Y-119603576D01*
X179154089Y-119582204D01*
X179171247Y-119575097D01*
X179390697Y-119484198D01*
X179390701Y-119484196D01*
X179395271Y-119482303D01*
X179617856Y-119345903D01*
X179816363Y-119176363D01*
X179985903Y-118977856D01*
X180122303Y-118755271D01*
X180222204Y-118514089D01*
X180243576Y-118425069D01*
X180281991Y-118265062D01*
X180281992Y-118265056D01*
X180283146Y-118260249D01*
X180303628Y-118000000D01*
X180283146Y-117739751D01*
X180281992Y-117734944D01*
X180281991Y-117734938D01*
X180223359Y-117490723D01*
X180222204Y-117485911D01*
X180122303Y-117244729D01*
X179985903Y-117022144D01*
X179816363Y-116823637D01*
X179617856Y-116654097D01*
X179395271Y-116517697D01*
X179390701Y-116515804D01*
X179390697Y-116515802D01*
X179158662Y-116419690D01*
X179158660Y-116419689D01*
X179154089Y-116417796D01*
X179065069Y-116396424D01*
X178905062Y-116358009D01*
X178905056Y-116358008D01*
X178900249Y-116356854D01*
X178809116Y-116349682D01*
X178707615Y-116341693D01*
X178707606Y-116341693D01*
X178705158Y-116341500D01*
X178574842Y-116341500D01*
X178572394Y-116341693D01*
X178572385Y-116341693D01*
X178470884Y-116349682D01*
X178379751Y-116356854D01*
X178374944Y-116358008D01*
X178374938Y-116358009D01*
X178214931Y-116396424D01*
X178125911Y-116417796D01*
X178121340Y-116419689D01*
X178121338Y-116419690D01*
X177889303Y-116515802D01*
X177889299Y-116515804D01*
X177884729Y-116517697D01*
X177662144Y-116654097D01*
X177463637Y-116823637D01*
X177294097Y-117022144D01*
X177157697Y-117244729D01*
X177057796Y-117485911D01*
X177056641Y-117490723D01*
X176998009Y-117734938D01*
X176998008Y-117734944D01*
X176996854Y-117739751D01*
X176976372Y-118000000D01*
X171153726Y-118000000D01*
X171149770Y-117972376D01*
X171148497Y-117954514D01*
X171148497Y-116289286D01*
X180932750Y-116289286D01*
X180949443Y-116459536D01*
X181003440Y-116621856D01*
X181007087Y-116627878D01*
X181007088Y-116627880D01*
X181088406Y-116762154D01*
X181088409Y-116762157D01*
X181092056Y-116768180D01*
X181210889Y-116891234D01*
X181354030Y-116984903D01*
X181360634Y-116987359D01*
X181360636Y-116987360D01*
X181507757Y-117042074D01*
X181507759Y-117042074D01*
X181514367Y-117044532D01*
X181593454Y-117055085D01*
X181676949Y-117066226D01*
X181676953Y-117066226D01*
X181683930Y-117067157D01*
X181690941Y-117066519D01*
X181690945Y-117066519D01*
X181847273Y-117052292D01*
X181847275Y-117052292D01*
X181854292Y-117051653D01*
X181860990Y-117049477D01*
X181860993Y-117049476D01*
X182010289Y-117000966D01*
X182010291Y-117000965D01*
X182016985Y-116998790D01*
X182163924Y-116911197D01*
X182287805Y-116793227D01*
X182301079Y-116773249D01*
X182378570Y-116656614D01*
X182382471Y-116650743D01*
X182433011Y-116517697D01*
X182440718Y-116497408D01*
X182440719Y-116497406D01*
X182443218Y-116490826D01*
X182453644Y-116416641D01*
X182466475Y-116325347D01*
X182466475Y-116325344D01*
X182467026Y-116321425D01*
X182467325Y-116300000D01*
X182448256Y-116130000D01*
X182391999Y-115968450D01*
X182375518Y-115942074D01*
X182305081Y-115829352D01*
X182301348Y-115823378D01*
X182288159Y-115810096D01*
X182185772Y-115706992D01*
X182180809Y-115701994D01*
X182115539Y-115660573D01*
X182042316Y-115614104D01*
X182042313Y-115614102D01*
X182036373Y-115610333D01*
X182029740Y-115607971D01*
X181881854Y-115555311D01*
X181881849Y-115555310D01*
X181875219Y-115552949D01*
X181868231Y-115552116D01*
X181868228Y-115552115D01*
X181752655Y-115538334D01*
X181705357Y-115532694D01*
X181698354Y-115533430D01*
X181698353Y-115533430D01*
X181653958Y-115538096D01*
X181535228Y-115550575D01*
X181525071Y-115554033D01*
X181379956Y-115603434D01*
X181379953Y-115603435D01*
X181373289Y-115605704D01*
X181227588Y-115695340D01*
X181222557Y-115700267D01*
X181222554Y-115700269D01*
X181215689Y-115706992D01*
X181105366Y-115815028D01*
X181101547Y-115820953D01*
X181101546Y-115820955D01*
X181096135Y-115829352D01*
X181012698Y-115958820D01*
X181010287Y-115965443D01*
X181010286Y-115965446D01*
X180956600Y-116112947D01*
X180956599Y-116112952D01*
X180954190Y-116119570D01*
X180932750Y-116289286D01*
X171148497Y-116289286D01*
X171148497Y-115189286D01*
X175932750Y-115189286D01*
X175949443Y-115359536D01*
X176003440Y-115521856D01*
X176007087Y-115527878D01*
X176007088Y-115527880D01*
X176088406Y-115662154D01*
X176088409Y-115662157D01*
X176092056Y-115668180D01*
X176210889Y-115791234D01*
X176354030Y-115884903D01*
X176360634Y-115887359D01*
X176360636Y-115887360D01*
X176507757Y-115942074D01*
X176507759Y-115942074D01*
X176514367Y-115944532D01*
X176593454Y-115955085D01*
X176676949Y-115966226D01*
X176676953Y-115966226D01*
X176683930Y-115967157D01*
X176690941Y-115966519D01*
X176690945Y-115966519D01*
X176847273Y-115952292D01*
X176847275Y-115952292D01*
X176854292Y-115951653D01*
X176860990Y-115949477D01*
X176860993Y-115949476D01*
X177010289Y-115900966D01*
X177010291Y-115900965D01*
X177016985Y-115898790D01*
X177133469Y-115829352D01*
X177157872Y-115814805D01*
X177157874Y-115814804D01*
X177163924Y-115811197D01*
X177287805Y-115693227D01*
X177301079Y-115673249D01*
X177378570Y-115556614D01*
X177382471Y-115550743D01*
X177443218Y-115390826D01*
X177467026Y-115221425D01*
X177467325Y-115200000D01*
X177448256Y-115030000D01*
X177391999Y-114868450D01*
X177301348Y-114723378D01*
X177288159Y-114710096D01*
X177185772Y-114606992D01*
X177180809Y-114601994D01*
X177115539Y-114560573D01*
X177042316Y-114514104D01*
X177042313Y-114514102D01*
X177036373Y-114510333D01*
X177029740Y-114507971D01*
X176881854Y-114455311D01*
X176881849Y-114455310D01*
X176875219Y-114452949D01*
X176868231Y-114452116D01*
X176868228Y-114452115D01*
X176752655Y-114438334D01*
X176705357Y-114432694D01*
X176698354Y-114433430D01*
X176698353Y-114433430D01*
X176653958Y-114438096D01*
X176535228Y-114450575D01*
X176525071Y-114454033D01*
X176379956Y-114503434D01*
X176379953Y-114503435D01*
X176373289Y-114505704D01*
X176227588Y-114595340D01*
X176222557Y-114600267D01*
X176222554Y-114600269D01*
X176215689Y-114606992D01*
X176105366Y-114715028D01*
X176101547Y-114720953D01*
X176101546Y-114720955D01*
X176096135Y-114729352D01*
X176012698Y-114858820D01*
X176010287Y-114865443D01*
X176010286Y-114865446D01*
X175956600Y-115012947D01*
X175956599Y-115012952D01*
X175954190Y-115019570D01*
X175932750Y-115189286D01*
X171148497Y-115189286D01*
X171148497Y-109489286D01*
X179432750Y-109489286D01*
X179449443Y-109659536D01*
X179503440Y-109821856D01*
X179507087Y-109827878D01*
X179507088Y-109827880D01*
X179588406Y-109962154D01*
X179588409Y-109962157D01*
X179592056Y-109968180D01*
X179710889Y-110091234D01*
X179854030Y-110184903D01*
X179860634Y-110187359D01*
X179860636Y-110187360D01*
X180007757Y-110242074D01*
X180007759Y-110242074D01*
X180014367Y-110244532D01*
X180093454Y-110255085D01*
X180176949Y-110266226D01*
X180176953Y-110266226D01*
X180183930Y-110267157D01*
X180190941Y-110266519D01*
X180190945Y-110266519D01*
X180347273Y-110252292D01*
X180347275Y-110252292D01*
X180354292Y-110251653D01*
X180360990Y-110249477D01*
X180360993Y-110249476D01*
X180510289Y-110200966D01*
X180510291Y-110200965D01*
X180516985Y-110198790D01*
X180663924Y-110111197D01*
X180787805Y-109993227D01*
X180801079Y-109973249D01*
X180878570Y-109856614D01*
X180882471Y-109850743D01*
X180943218Y-109690826D01*
X180967026Y-109521425D01*
X180967325Y-109500000D01*
X180948256Y-109330000D01*
X180918494Y-109244532D01*
X180894314Y-109175097D01*
X180894313Y-109175095D01*
X180891999Y-109168450D01*
X180801348Y-109023378D01*
X180788159Y-109010096D01*
X180685772Y-108906992D01*
X180680809Y-108901994D01*
X180600050Y-108850743D01*
X180542316Y-108814104D01*
X180542313Y-108814102D01*
X180536373Y-108810333D01*
X180529740Y-108807971D01*
X180381854Y-108755311D01*
X180381849Y-108755310D01*
X180375219Y-108752949D01*
X180368231Y-108752116D01*
X180368228Y-108752115D01*
X180252655Y-108738334D01*
X180205357Y-108732694D01*
X180198354Y-108733430D01*
X180198353Y-108733430D01*
X180153958Y-108738096D01*
X180035228Y-108750575D01*
X180025071Y-108754033D01*
X179879956Y-108803434D01*
X179879953Y-108803435D01*
X179873289Y-108805704D01*
X179727588Y-108895340D01*
X179722557Y-108900267D01*
X179722554Y-108900269D01*
X179715689Y-108906992D01*
X179605366Y-109015028D01*
X179601547Y-109020953D01*
X179601546Y-109020955D01*
X179596135Y-109029352D01*
X179512698Y-109158820D01*
X179510287Y-109165443D01*
X179510286Y-109165446D01*
X179456600Y-109312947D01*
X179456599Y-109312952D01*
X179454190Y-109319570D01*
X179432750Y-109489286D01*
X171148497Y-109489286D01*
X171148497Y-107589286D01*
X171532750Y-107589286D01*
X171549443Y-107759536D01*
X171603440Y-107921856D01*
X171607087Y-107927878D01*
X171607088Y-107927880D01*
X171688406Y-108062154D01*
X171688409Y-108062157D01*
X171692056Y-108068180D01*
X171810889Y-108191234D01*
X171954030Y-108284903D01*
X171960634Y-108287359D01*
X171960636Y-108287360D01*
X172107757Y-108342074D01*
X172107759Y-108342074D01*
X172114367Y-108344532D01*
X172193454Y-108355085D01*
X172276949Y-108366226D01*
X172276953Y-108366226D01*
X172283930Y-108367157D01*
X172290941Y-108366519D01*
X172290945Y-108366519D01*
X172447273Y-108352292D01*
X172447275Y-108352292D01*
X172454292Y-108351653D01*
X172460990Y-108349477D01*
X172460993Y-108349476D01*
X172610289Y-108300966D01*
X172610291Y-108300965D01*
X172616985Y-108298790D01*
X172715142Y-108240277D01*
X172757872Y-108214805D01*
X172757874Y-108214804D01*
X172763924Y-108211197D01*
X172887805Y-108093227D01*
X172901079Y-108073249D01*
X172978570Y-107956614D01*
X172982471Y-107950743D01*
X173022191Y-107846179D01*
X173040718Y-107797408D01*
X173040719Y-107797406D01*
X173043218Y-107790826D01*
X173047616Y-107759536D01*
X173066475Y-107625347D01*
X173066475Y-107625344D01*
X173067026Y-107621425D01*
X173067325Y-107600000D01*
X173048256Y-107430000D01*
X173045941Y-107423354D01*
X173045940Y-107423347D01*
X173037406Y-107398842D01*
X173033892Y-107327933D01*
X173069273Y-107266380D01*
X173132315Y-107233727D01*
X173200314Y-107239306D01*
X173214367Y-107244532D01*
X173293454Y-107255085D01*
X173376949Y-107266226D01*
X173376953Y-107266226D01*
X173383930Y-107267157D01*
X173390941Y-107266519D01*
X173390945Y-107266519D01*
X173547273Y-107252292D01*
X173547275Y-107252292D01*
X173554292Y-107251653D01*
X173560990Y-107249477D01*
X173560993Y-107249476D01*
X173710289Y-107200966D01*
X173710291Y-107200965D01*
X173716985Y-107198790D01*
X173835938Y-107127880D01*
X173857872Y-107114805D01*
X173857874Y-107114804D01*
X173863924Y-107111197D01*
X173987805Y-106993227D01*
X174005745Y-106966226D01*
X174051467Y-106897408D01*
X174082471Y-106850743D01*
X174105817Y-106789286D01*
X178932750Y-106789286D01*
X178949443Y-106959536D01*
X179003440Y-107121856D01*
X179007087Y-107127878D01*
X179007088Y-107127880D01*
X179088406Y-107262154D01*
X179088409Y-107262157D01*
X179092056Y-107268180D01*
X179210889Y-107391234D01*
X179225761Y-107400966D01*
X179325489Y-107466226D01*
X179354030Y-107484903D01*
X179360634Y-107487359D01*
X179360636Y-107487360D01*
X179507757Y-107542074D01*
X179507759Y-107542074D01*
X179514367Y-107544532D01*
X179593454Y-107555085D01*
X179676949Y-107566226D01*
X179676953Y-107566226D01*
X179683930Y-107567157D01*
X179690941Y-107566519D01*
X179690945Y-107566519D01*
X179847273Y-107552292D01*
X179847275Y-107552292D01*
X179854292Y-107551653D01*
X179860990Y-107549477D01*
X179860993Y-107549476D01*
X180010289Y-107500966D01*
X180010291Y-107500965D01*
X180016985Y-107498790D01*
X180071612Y-107466226D01*
X180157872Y-107414805D01*
X180157874Y-107414804D01*
X180163924Y-107411197D01*
X180180836Y-107395092D01*
X180185399Y-107390747D01*
X180248524Y-107358256D01*
X180319195Y-107365050D01*
X180341279Y-107376559D01*
X180354030Y-107384903D01*
X180360634Y-107387359D01*
X180360636Y-107387360D01*
X180507757Y-107442074D01*
X180507759Y-107442074D01*
X180514367Y-107444532D01*
X180593454Y-107455085D01*
X180676949Y-107466226D01*
X180676953Y-107466226D01*
X180683930Y-107467157D01*
X180690941Y-107466519D01*
X180690945Y-107466519D01*
X180847273Y-107452292D01*
X180847275Y-107452292D01*
X180854292Y-107451653D01*
X180860990Y-107449477D01*
X180860993Y-107449476D01*
X181010289Y-107400966D01*
X181010291Y-107400965D01*
X181016985Y-107398790D01*
X181084982Y-107358256D01*
X181157872Y-107314805D01*
X181157874Y-107314804D01*
X181163924Y-107311197D01*
X181287805Y-107193227D01*
X181293336Y-107184903D01*
X181339908Y-107114805D01*
X181382471Y-107050743D01*
X181426473Y-106934907D01*
X181440718Y-106897408D01*
X181440719Y-106897406D01*
X181443218Y-106890826D01*
X181444198Y-106883854D01*
X181466475Y-106725347D01*
X181466475Y-106725344D01*
X181467026Y-106721425D01*
X181467325Y-106700000D01*
X181454906Y-106589286D01*
X182632750Y-106589286D01*
X182649443Y-106759536D01*
X182703440Y-106921856D01*
X182707087Y-106927878D01*
X182707088Y-106927880D01*
X182788406Y-107062154D01*
X182788409Y-107062157D01*
X182792056Y-107068180D01*
X182910889Y-107191234D01*
X182921360Y-107198086D01*
X183028475Y-107268180D01*
X183054030Y-107284903D01*
X183060634Y-107287359D01*
X183060636Y-107287360D01*
X183207757Y-107342074D01*
X183207759Y-107342074D01*
X183214367Y-107344532D01*
X183293454Y-107355085D01*
X183376949Y-107366226D01*
X183376953Y-107366226D01*
X183383930Y-107367157D01*
X183390941Y-107366519D01*
X183390945Y-107366519D01*
X183547273Y-107352292D01*
X183547275Y-107352292D01*
X183554292Y-107351653D01*
X183560990Y-107349477D01*
X183560993Y-107349476D01*
X183710289Y-107300966D01*
X183710291Y-107300965D01*
X183716985Y-107298790D01*
X183771120Y-107266519D01*
X183857872Y-107214805D01*
X183857874Y-107214804D01*
X183863924Y-107211197D01*
X183987805Y-107093227D01*
X184001079Y-107073249D01*
X184045288Y-107006708D01*
X184099645Y-106961037D01*
X184166900Y-106951542D01*
X184276948Y-106966226D01*
X184276953Y-106966226D01*
X184283930Y-106967157D01*
X184290941Y-106966519D01*
X184290945Y-106966519D01*
X184447273Y-106952292D01*
X184447275Y-106952292D01*
X184454292Y-106951653D01*
X184460990Y-106949477D01*
X184460993Y-106949476D01*
X184610289Y-106900966D01*
X184610291Y-106900965D01*
X184616985Y-106898790D01*
X184699101Y-106849839D01*
X184757872Y-106814805D01*
X184757874Y-106814804D01*
X184763924Y-106811197D01*
X184887805Y-106693227D01*
X184894033Y-106683854D01*
X184978570Y-106556614D01*
X184982471Y-106550743D01*
X185043218Y-106390826D01*
X185053038Y-106320955D01*
X185066475Y-106225347D01*
X185066475Y-106225344D01*
X185067026Y-106221425D01*
X185067325Y-106200000D01*
X185048256Y-106030000D01*
X185045107Y-106020955D01*
X184994314Y-105875097D01*
X184994313Y-105875095D01*
X184991999Y-105868450D01*
X184980830Y-105850575D01*
X184905081Y-105729352D01*
X184901348Y-105723378D01*
X184888159Y-105710096D01*
X184785772Y-105606992D01*
X184780809Y-105601994D01*
X184667364Y-105530000D01*
X184642316Y-105514104D01*
X184642313Y-105514102D01*
X184636373Y-105510333D01*
X184629740Y-105507971D01*
X184481854Y-105455311D01*
X184481849Y-105455310D01*
X184475219Y-105452949D01*
X184468231Y-105452116D01*
X184468228Y-105452115D01*
X184352655Y-105438334D01*
X184305357Y-105432694D01*
X184298354Y-105433430D01*
X184298353Y-105433430D01*
X184253958Y-105438096D01*
X184135228Y-105450575D01*
X184125071Y-105454033D01*
X183979956Y-105503434D01*
X183979953Y-105503435D01*
X183973289Y-105505704D01*
X183827588Y-105595340D01*
X183822557Y-105600267D01*
X183822554Y-105600269D01*
X183815689Y-105606992D01*
X183705366Y-105715028D01*
X183701547Y-105720953D01*
X183701546Y-105720955D01*
X183656188Y-105791337D01*
X183602474Y-105837762D01*
X183535359Y-105848196D01*
X183405357Y-105832694D01*
X183398354Y-105833430D01*
X183398353Y-105833430D01*
X183357137Y-105837762D01*
X183235228Y-105850575D01*
X183225071Y-105854033D01*
X183079956Y-105903434D01*
X183079953Y-105903435D01*
X183073289Y-105905704D01*
X182927588Y-105995340D01*
X182922557Y-106000267D01*
X182922554Y-106000269D01*
X182868759Y-106052949D01*
X182805366Y-106115028D01*
X182801547Y-106120953D01*
X182801546Y-106120955D01*
X182777144Y-106158820D01*
X182712698Y-106258820D01*
X182710287Y-106265443D01*
X182710286Y-106265446D01*
X182656600Y-106412947D01*
X182656599Y-106412952D01*
X182654190Y-106419570D01*
X182632750Y-106589286D01*
X181454906Y-106589286D01*
X181448256Y-106530000D01*
X181436521Y-106496299D01*
X181394314Y-106375097D01*
X181394313Y-106375095D01*
X181391999Y-106368450D01*
X181365825Y-106326562D01*
X181305081Y-106229352D01*
X181301348Y-106223378D01*
X181180809Y-106101994D01*
X181098625Y-106049839D01*
X181042316Y-106014104D01*
X181042313Y-106014102D01*
X181036373Y-106010333D01*
X181029740Y-106007971D01*
X180881854Y-105955311D01*
X180881849Y-105955310D01*
X180875219Y-105952949D01*
X180868231Y-105952116D01*
X180868228Y-105952115D01*
X180752655Y-105938334D01*
X180705357Y-105932694D01*
X180698354Y-105933430D01*
X180698353Y-105933430D01*
X180653958Y-105938096D01*
X180535228Y-105950575D01*
X180525071Y-105954033D01*
X180379956Y-106003434D01*
X180379953Y-106003435D01*
X180373289Y-106005704D01*
X180227588Y-106095340D01*
X180214693Y-106107968D01*
X180214460Y-106108196D01*
X180151795Y-106141567D01*
X180081036Y-106135761D01*
X180058794Y-106124561D01*
X180036373Y-106110333D01*
X180029734Y-106107969D01*
X180029732Y-106107968D01*
X179881854Y-106055311D01*
X179881849Y-106055310D01*
X179875219Y-106052949D01*
X179868231Y-106052116D01*
X179868228Y-106052115D01*
X179741451Y-106036998D01*
X179705357Y-106032694D01*
X179698354Y-106033430D01*
X179698353Y-106033430D01*
X179653958Y-106038096D01*
X179535228Y-106050575D01*
X179525071Y-106054033D01*
X179379956Y-106103434D01*
X179379953Y-106103435D01*
X179373289Y-106105704D01*
X179227588Y-106195340D01*
X179222557Y-106200267D01*
X179222554Y-106200269D01*
X179163573Y-106258028D01*
X179105366Y-106315028D01*
X179012698Y-106458820D01*
X179010287Y-106465443D01*
X179010286Y-106465446D01*
X178956600Y-106612947D01*
X178956599Y-106612952D01*
X178954190Y-106619570D01*
X178932750Y-106789286D01*
X174105817Y-106789286D01*
X174130105Y-106725347D01*
X174140718Y-106697408D01*
X174140719Y-106697406D01*
X174143218Y-106690826D01*
X174152250Y-106626562D01*
X174166475Y-106525347D01*
X174166475Y-106525344D01*
X174167026Y-106521425D01*
X174167325Y-106500000D01*
X174148256Y-106330000D01*
X174145107Y-106320955D01*
X174094314Y-106175097D01*
X174094313Y-106175095D01*
X174091999Y-106168450D01*
X174055684Y-106110333D01*
X174005081Y-106029352D01*
X174001348Y-106023378D01*
X173988159Y-106010096D01*
X173885772Y-105906992D01*
X173880809Y-105901994D01*
X173772923Y-105833528D01*
X173742316Y-105814104D01*
X173742313Y-105814102D01*
X173736373Y-105810333D01*
X173729740Y-105807971D01*
X173581854Y-105755311D01*
X173581849Y-105755310D01*
X173575219Y-105752949D01*
X173568231Y-105752116D01*
X173568228Y-105752115D01*
X173452655Y-105738334D01*
X173405357Y-105732694D01*
X173398354Y-105733430D01*
X173398353Y-105733430D01*
X173353958Y-105738096D01*
X173235228Y-105750575D01*
X173225071Y-105754033D01*
X173079956Y-105803434D01*
X173079953Y-105803435D01*
X173073289Y-105805704D01*
X172927588Y-105895340D01*
X172922557Y-105900267D01*
X172922554Y-105900269D01*
X172868759Y-105952949D01*
X172805366Y-106015028D01*
X172801547Y-106020953D01*
X172801546Y-106020955D01*
X172759032Y-106086924D01*
X172712698Y-106158820D01*
X172710287Y-106165443D01*
X172710286Y-106165446D01*
X172656600Y-106312947D01*
X172656599Y-106312952D01*
X172654190Y-106319570D01*
X172632750Y-106489286D01*
X172649443Y-106659536D01*
X172664295Y-106704183D01*
X172666819Y-106775132D01*
X172630582Y-106836184D01*
X172567090Y-106867954D01*
X172502473Y-106862653D01*
X172481855Y-106855312D01*
X172475219Y-106852949D01*
X172468231Y-106852116D01*
X172468228Y-106852115D01*
X172352655Y-106838334D01*
X172305357Y-106832694D01*
X172298354Y-106833430D01*
X172298353Y-106833430D01*
X172272151Y-106836184D01*
X172135228Y-106850575D01*
X172125071Y-106854033D01*
X171979956Y-106903434D01*
X171979953Y-106903435D01*
X171973289Y-106905704D01*
X171827588Y-106995340D01*
X171822557Y-107000267D01*
X171822554Y-107000269D01*
X171771012Y-107050743D01*
X171705366Y-107115028D01*
X171701547Y-107120953D01*
X171701546Y-107120955D01*
X171697083Y-107127880D01*
X171612698Y-107258820D01*
X171610287Y-107265443D01*
X171610286Y-107265446D01*
X171556600Y-107412947D01*
X171556599Y-107412952D01*
X171554190Y-107419570D01*
X171532750Y-107589286D01*
X171148497Y-107589286D01*
X171148497Y-105689286D01*
X176932750Y-105689286D01*
X176949443Y-105859536D01*
X177003440Y-106021856D01*
X177007087Y-106027878D01*
X177007088Y-106027880D01*
X177088406Y-106162154D01*
X177088409Y-106162157D01*
X177092056Y-106168180D01*
X177210889Y-106291234D01*
X177259969Y-106323351D01*
X177319763Y-106362479D01*
X177354030Y-106384903D01*
X177360634Y-106387359D01*
X177360636Y-106387360D01*
X177507757Y-106442074D01*
X177507759Y-106442074D01*
X177514367Y-106444532D01*
X177593454Y-106455085D01*
X177676949Y-106466226D01*
X177676953Y-106466226D01*
X177683930Y-106467157D01*
X177690941Y-106466519D01*
X177690945Y-106466519D01*
X177847273Y-106452292D01*
X177847275Y-106452292D01*
X177854292Y-106451653D01*
X177860990Y-106449477D01*
X177860993Y-106449476D01*
X178010289Y-106400966D01*
X178010291Y-106400965D01*
X178016985Y-106398790D01*
X178067881Y-106368450D01*
X178157872Y-106314805D01*
X178157874Y-106314804D01*
X178163924Y-106311197D01*
X178287805Y-106193227D01*
X178301079Y-106173249D01*
X178378570Y-106056614D01*
X178382471Y-106050743D01*
X178437077Y-105906992D01*
X178440718Y-105897408D01*
X178440719Y-105897406D01*
X178443218Y-105890826D01*
X178448875Y-105850575D01*
X178466475Y-105725347D01*
X178466475Y-105725344D01*
X178467026Y-105721425D01*
X178467325Y-105700000D01*
X178448256Y-105530000D01*
X178442721Y-105514104D01*
X178394314Y-105375097D01*
X178394313Y-105375095D01*
X178391999Y-105368450D01*
X178301348Y-105223378D01*
X178288159Y-105210096D01*
X178185772Y-105106992D01*
X178180809Y-105101994D01*
X178115539Y-105060573D01*
X178042316Y-105014104D01*
X178042313Y-105014102D01*
X178036373Y-105010333D01*
X178029740Y-105007971D01*
X177881854Y-104955311D01*
X177881849Y-104955310D01*
X177875219Y-104952949D01*
X177868231Y-104952116D01*
X177868228Y-104952115D01*
X177752655Y-104938334D01*
X177705357Y-104932694D01*
X177698354Y-104933430D01*
X177698353Y-104933430D01*
X177653958Y-104938096D01*
X177535228Y-104950575D01*
X177525071Y-104954033D01*
X177379956Y-105003434D01*
X177379953Y-105003435D01*
X177373289Y-105005704D01*
X177227588Y-105095340D01*
X177222557Y-105100267D01*
X177222554Y-105100269D01*
X177215689Y-105106992D01*
X177105366Y-105215028D01*
X177101547Y-105220953D01*
X177101546Y-105220955D01*
X177096135Y-105229352D01*
X177012698Y-105358820D01*
X177010287Y-105365443D01*
X177010286Y-105365446D01*
X176956600Y-105512947D01*
X176956599Y-105512952D01*
X176954190Y-105519570D01*
X176932750Y-105689286D01*
X171148497Y-105689286D01*
X171148497Y-102989286D01*
X176632750Y-102989286D01*
X176649443Y-103159536D01*
X176703440Y-103321856D01*
X176707087Y-103327878D01*
X176707088Y-103327880D01*
X176788406Y-103462154D01*
X176788409Y-103462157D01*
X176792056Y-103468180D01*
X176910889Y-103591234D01*
X177054030Y-103684903D01*
X177060634Y-103687359D01*
X177060636Y-103687360D01*
X177207757Y-103742074D01*
X177207759Y-103742074D01*
X177214367Y-103744532D01*
X177293454Y-103755085D01*
X177376949Y-103766226D01*
X177376953Y-103766226D01*
X177383930Y-103767157D01*
X177390941Y-103766519D01*
X177390945Y-103766519D01*
X177547273Y-103752292D01*
X177547275Y-103752292D01*
X177554292Y-103751653D01*
X177560990Y-103749477D01*
X177560993Y-103749476D01*
X177710289Y-103700966D01*
X177710291Y-103700965D01*
X177716985Y-103698790D01*
X177752369Y-103677697D01*
X177857872Y-103614805D01*
X177857874Y-103614804D01*
X177863924Y-103611197D01*
X177987805Y-103493227D01*
X178001079Y-103473249D01*
X178057717Y-103388001D01*
X178082471Y-103350743D01*
X178143218Y-103190826D01*
X178167026Y-103021425D01*
X178167325Y-103000000D01*
X178151147Y-102855775D01*
X178777176Y-102855775D01*
X178793869Y-103026025D01*
X178847866Y-103188345D01*
X178851513Y-103194367D01*
X178851514Y-103194369D01*
X178932832Y-103328643D01*
X178932835Y-103328646D01*
X178936482Y-103334669D01*
X179055315Y-103457723D01*
X179071295Y-103468180D01*
X179187973Y-103544532D01*
X179198456Y-103551392D01*
X179205060Y-103553848D01*
X179205062Y-103553849D01*
X179352183Y-103608563D01*
X179352185Y-103608563D01*
X179358793Y-103611021D01*
X179437880Y-103621574D01*
X179521375Y-103632715D01*
X179521379Y-103632715D01*
X179528356Y-103633646D01*
X179535367Y-103633008D01*
X179535371Y-103633008D01*
X179691699Y-103618781D01*
X179691701Y-103618781D01*
X179698718Y-103618142D01*
X179705416Y-103615966D01*
X179705419Y-103615965D01*
X179854715Y-103567455D01*
X179854717Y-103567454D01*
X179861411Y-103565279D01*
X179928172Y-103525482D01*
X179996927Y-103507783D01*
X180036608Y-103515614D01*
X180107765Y-103542077D01*
X180107767Y-103542078D01*
X180114367Y-103544532D01*
X180121348Y-103545463D01*
X180121350Y-103545464D01*
X180276949Y-103566226D01*
X180276953Y-103566226D01*
X180283930Y-103567157D01*
X180322296Y-103563665D01*
X180391947Y-103577412D01*
X180424349Y-103601620D01*
X180510889Y-103691234D01*
X180521866Y-103698417D01*
X180625489Y-103766226D01*
X180654030Y-103784903D01*
X180660634Y-103787359D01*
X180660636Y-103787360D01*
X180807757Y-103842074D01*
X180807759Y-103842074D01*
X180814367Y-103844532D01*
X180893454Y-103855085D01*
X180976949Y-103866226D01*
X180976953Y-103866226D01*
X180983930Y-103867157D01*
X180990941Y-103866519D01*
X180990945Y-103866519D01*
X181147273Y-103852292D01*
X181147275Y-103852292D01*
X181154292Y-103851653D01*
X181160990Y-103849477D01*
X181160993Y-103849476D01*
X181310289Y-103800966D01*
X181310291Y-103800965D01*
X181316985Y-103798790D01*
X181371612Y-103766226D01*
X181457872Y-103714805D01*
X181457874Y-103714804D01*
X181463924Y-103711197D01*
X181587805Y-103593227D01*
X181598313Y-103577412D01*
X181670886Y-103468180D01*
X181682471Y-103450743D01*
X181728853Y-103328643D01*
X181740718Y-103297408D01*
X181740719Y-103297406D01*
X181743218Y-103290826D01*
X181748017Y-103256677D01*
X181777304Y-103192004D01*
X181836908Y-103153430D01*
X181907904Y-103153205D01*
X181963424Y-103186683D01*
X181983745Y-103207725D01*
X182016677Y-103270618D01*
X182018114Y-103311041D01*
X182011951Y-103359823D01*
X182028644Y-103530073D01*
X182082641Y-103692393D01*
X182086288Y-103698415D01*
X182086289Y-103698417D01*
X182167607Y-103832691D01*
X182167610Y-103832694D01*
X182171257Y-103838717D01*
X182290090Y-103961771D01*
X182433231Y-104055440D01*
X182439835Y-104057896D01*
X182439837Y-104057897D01*
X182586958Y-104112611D01*
X182586960Y-104112611D01*
X182593568Y-104115069D01*
X182672655Y-104125622D01*
X182756150Y-104136763D01*
X182756154Y-104136763D01*
X182763131Y-104137694D01*
X182770142Y-104137056D01*
X182770146Y-104137056D01*
X182926474Y-104122829D01*
X182926476Y-104122829D01*
X182933493Y-104122190D01*
X182940191Y-104120014D01*
X182940194Y-104120013D01*
X183089490Y-104071503D01*
X183089492Y-104071502D01*
X183096186Y-104069327D01*
X183243125Y-103981734D01*
X183367006Y-103863764D01*
X183379165Y-103845464D01*
X183441492Y-103751653D01*
X183461672Y-103721280D01*
X183516323Y-103577412D01*
X183519919Y-103567945D01*
X183519920Y-103567943D01*
X183522419Y-103561363D01*
X183524363Y-103547534D01*
X183545676Y-103395884D01*
X183545676Y-103395881D01*
X183546227Y-103391962D01*
X183546526Y-103370537D01*
X183527457Y-103200537D01*
X183524076Y-103190826D01*
X183473515Y-103045634D01*
X183473514Y-103045632D01*
X183471200Y-103038987D01*
X183463101Y-103026025D01*
X183384282Y-102899889D01*
X183380549Y-102893915D01*
X183375587Y-102888918D01*
X183375582Y-102888912D01*
X183350805Y-102863962D01*
X183316997Y-102801532D01*
X183315436Y-102757642D01*
X183319975Y-102725347D01*
X183319975Y-102725344D01*
X183320526Y-102721425D01*
X183320825Y-102700000D01*
X183301756Y-102530000D01*
X183298607Y-102520955D01*
X183247814Y-102375097D01*
X183247813Y-102375095D01*
X183245499Y-102368450D01*
X183209184Y-102310333D01*
X183158581Y-102229352D01*
X183154848Y-102223378D01*
X183141659Y-102210096D01*
X183083330Y-102151359D01*
X183034309Y-102101994D01*
X182952125Y-102049839D01*
X182895816Y-102014104D01*
X182895813Y-102014102D01*
X182889873Y-102010333D01*
X182883240Y-102007971D01*
X182735354Y-101955311D01*
X182735349Y-101955310D01*
X182728719Y-101952949D01*
X182721731Y-101952116D01*
X182721728Y-101952115D01*
X182606155Y-101938334D01*
X182558857Y-101932694D01*
X182551854Y-101933430D01*
X182551853Y-101933430D01*
X182507458Y-101938096D01*
X182388728Y-101950575D01*
X182378571Y-101954033D01*
X182233456Y-102003434D01*
X182233453Y-102003435D01*
X182226789Y-102005704D01*
X182081088Y-102095340D01*
X182076057Y-102100267D01*
X182076054Y-102100269D01*
X182035505Y-102139978D01*
X181958866Y-102215028D01*
X181955047Y-102220953D01*
X181955046Y-102220955D01*
X181934427Y-102252949D01*
X181866198Y-102358820D01*
X181863787Y-102365443D01*
X181863786Y-102365446D01*
X181810100Y-102512947D01*
X181810099Y-102512952D01*
X181807690Y-102519570D01*
X181806128Y-102531935D01*
X181805147Y-102539700D01*
X181776765Y-102604776D01*
X181717705Y-102644177D01*
X181646719Y-102645393D01*
X181590735Y-102612691D01*
X181518253Y-102539700D01*
X181480809Y-102501994D01*
X181415539Y-102460573D01*
X181342316Y-102414104D01*
X181342313Y-102414102D01*
X181336373Y-102410333D01*
X181329740Y-102407971D01*
X181181854Y-102355311D01*
X181181849Y-102355310D01*
X181175219Y-102352949D01*
X181168231Y-102352116D01*
X181168228Y-102352115D01*
X181052655Y-102338334D01*
X181005357Y-102332694D01*
X180998354Y-102333430D01*
X180998353Y-102333430D01*
X180986669Y-102334658D01*
X180979593Y-102335402D01*
X180909755Y-102322630D01*
X180877016Y-102298875D01*
X180785777Y-102206996D01*
X180785773Y-102206993D01*
X180780809Y-102201994D01*
X180701020Y-102151359D01*
X180642316Y-102114104D01*
X180642313Y-102114102D01*
X180636373Y-102110333D01*
X180629740Y-102107971D01*
X180481854Y-102055311D01*
X180481849Y-102055310D01*
X180475219Y-102052949D01*
X180468231Y-102052116D01*
X180468228Y-102052115D01*
X180352655Y-102038334D01*
X180305357Y-102032694D01*
X180298354Y-102033430D01*
X180298353Y-102033430D01*
X180253958Y-102038096D01*
X180135228Y-102050575D01*
X179973289Y-102105704D01*
X179917578Y-102139978D01*
X179849077Y-102158636D01*
X179809290Y-102151359D01*
X179772487Y-102138254D01*
X179726279Y-102121800D01*
X179726277Y-102121799D01*
X179719645Y-102119438D01*
X179712657Y-102118605D01*
X179712654Y-102118604D01*
X179597081Y-102104823D01*
X179549783Y-102099183D01*
X179542780Y-102099919D01*
X179542779Y-102099919D01*
X179498384Y-102104585D01*
X179379654Y-102117064D01*
X179369497Y-102120522D01*
X179224382Y-102169923D01*
X179224379Y-102169924D01*
X179217715Y-102172193D01*
X179072014Y-102261829D01*
X179066983Y-102266756D01*
X179066980Y-102266758D01*
X179024895Y-102307971D01*
X178949792Y-102381517D01*
X178945973Y-102387442D01*
X178945972Y-102387444D01*
X178909181Y-102444532D01*
X178857124Y-102525309D01*
X178854713Y-102531932D01*
X178854712Y-102531935D01*
X178801026Y-102679436D01*
X178801025Y-102679441D01*
X178798616Y-102686059D01*
X178777176Y-102855775D01*
X178151147Y-102855775D01*
X178148256Y-102830000D01*
X178144628Y-102819580D01*
X178094314Y-102675097D01*
X178094313Y-102675095D01*
X178091999Y-102668450D01*
X178001348Y-102523378D01*
X177988159Y-102510096D01*
X177885772Y-102406992D01*
X177880809Y-102401994D01*
X177803526Y-102352949D01*
X177742316Y-102314104D01*
X177742313Y-102314102D01*
X177736373Y-102310333D01*
X177729740Y-102307971D01*
X177581854Y-102255311D01*
X177581849Y-102255310D01*
X177575219Y-102252949D01*
X177568231Y-102252116D01*
X177568228Y-102252115D01*
X177452655Y-102238334D01*
X177405357Y-102232694D01*
X177398354Y-102233430D01*
X177398353Y-102233430D01*
X177353958Y-102238096D01*
X177235228Y-102250575D01*
X177225071Y-102254033D01*
X177079956Y-102303434D01*
X177079953Y-102303435D01*
X177073289Y-102305704D01*
X176927588Y-102395340D01*
X176922557Y-102400267D01*
X176922554Y-102400269D01*
X176876403Y-102445464D01*
X176805366Y-102515028D01*
X176801547Y-102520953D01*
X176801546Y-102520955D01*
X176798740Y-102525309D01*
X176712698Y-102658820D01*
X176710287Y-102665443D01*
X176710286Y-102665446D01*
X176656600Y-102812947D01*
X176656599Y-102812952D01*
X176654190Y-102819570D01*
X176632750Y-102989286D01*
X171148497Y-102989286D01*
X171148497Y-101689286D01*
X172932750Y-101689286D01*
X172949443Y-101859536D01*
X173003440Y-102021856D01*
X173007087Y-102027878D01*
X173007088Y-102027880D01*
X173088406Y-102162154D01*
X173088409Y-102162157D01*
X173092056Y-102168180D01*
X173210889Y-102291234D01*
X173241396Y-102311197D01*
X173341319Y-102376585D01*
X173354030Y-102384903D01*
X173360634Y-102387359D01*
X173360636Y-102387360D01*
X173507757Y-102442074D01*
X173507759Y-102442074D01*
X173514367Y-102444532D01*
X173593454Y-102455085D01*
X173676949Y-102466226D01*
X173676953Y-102466226D01*
X173683930Y-102467157D01*
X173690941Y-102466519D01*
X173690945Y-102466519D01*
X173847273Y-102452292D01*
X173847275Y-102452292D01*
X173854292Y-102451653D01*
X173860990Y-102449477D01*
X173860993Y-102449476D01*
X174010289Y-102400966D01*
X174010291Y-102400965D01*
X174016985Y-102398790D01*
X174072920Y-102365446D01*
X174157872Y-102314805D01*
X174157874Y-102314804D01*
X174163924Y-102311197D01*
X174287805Y-102193227D01*
X174301079Y-102173249D01*
X174349733Y-102100017D01*
X174382471Y-102050743D01*
X174443218Y-101890826D01*
X174467026Y-101721425D01*
X174467325Y-101700000D01*
X174448256Y-101530000D01*
X174431477Y-101481815D01*
X174394314Y-101375097D01*
X174394313Y-101375095D01*
X174391999Y-101368450D01*
X174375518Y-101342074D01*
X174305081Y-101229352D01*
X174301348Y-101223378D01*
X174288159Y-101210096D01*
X174222846Y-101144326D01*
X174180809Y-101101994D01*
X174055013Y-101022162D01*
X174042316Y-101014104D01*
X174042313Y-101014102D01*
X174036373Y-101010333D01*
X174029740Y-101007971D01*
X173881854Y-100955311D01*
X173881849Y-100955310D01*
X173875219Y-100952949D01*
X173868231Y-100952116D01*
X173868228Y-100952115D01*
X173752655Y-100938334D01*
X173705357Y-100932694D01*
X173698354Y-100933430D01*
X173698353Y-100933430D01*
X173653958Y-100938096D01*
X173535228Y-100950575D01*
X173526636Y-100953500D01*
X173379956Y-101003434D01*
X173379953Y-101003435D01*
X173373289Y-101005704D01*
X173227588Y-101095340D01*
X173222557Y-101100267D01*
X173222554Y-101100269D01*
X173163573Y-101158028D01*
X173105366Y-101215028D01*
X173101547Y-101220953D01*
X173101546Y-101220955D01*
X173070337Y-101269382D01*
X173012698Y-101358820D01*
X173010287Y-101365443D01*
X173010286Y-101365446D01*
X172956600Y-101512947D01*
X172956599Y-101512952D01*
X172954190Y-101519570D01*
X172932750Y-101689286D01*
X171148497Y-101689286D01*
X171148497Y-99389286D01*
X175304739Y-99389286D01*
X175321432Y-99559536D01*
X175375429Y-99721856D01*
X175379076Y-99727878D01*
X175379077Y-99727880D01*
X175460395Y-99862154D01*
X175460398Y-99862157D01*
X175464045Y-99868180D01*
X175582878Y-99991234D01*
X175726019Y-100084903D01*
X175732623Y-100087359D01*
X175732625Y-100087360D01*
X175879746Y-100142074D01*
X175879748Y-100142074D01*
X175886356Y-100144532D01*
X175965443Y-100155085D01*
X176048938Y-100166226D01*
X176048942Y-100166226D01*
X176055919Y-100167157D01*
X176062930Y-100166519D01*
X176062934Y-100166519D01*
X176219262Y-100152292D01*
X176219264Y-100152292D01*
X176226281Y-100151653D01*
X176232979Y-100149477D01*
X176232982Y-100149476D01*
X176382274Y-100100967D01*
X176386455Y-100099608D01*
X176386458Y-100099608D01*
X176388974Y-100098790D01*
X176389118Y-100099232D01*
X176455033Y-100089925D01*
X176476933Y-100100315D01*
X176500535Y-100104353D01*
X176510796Y-100099994D01*
X177135905Y-99474885D01*
X177198217Y-99440859D01*
X177269032Y-99445924D01*
X177314095Y-99474885D01*
X177495115Y-99655905D01*
X177529141Y-99718217D01*
X177524076Y-99789032D01*
X177495115Y-99834095D01*
X177470160Y-99859050D01*
X177421671Y-99889232D01*
X177379964Y-99903431D01*
X177379959Y-99903433D01*
X177373289Y-99905704D01*
X177227588Y-99995340D01*
X177222557Y-100000267D01*
X177222554Y-100000269D01*
X177171012Y-100050743D01*
X177105366Y-100115028D01*
X177101547Y-100120953D01*
X177101546Y-100120955D01*
X177047197Y-100205288D01*
X177012698Y-100258820D01*
X177010289Y-100265440D01*
X177010287Y-100265443D01*
X176989237Y-100323278D01*
X176959932Y-100369278D01*
X176871232Y-100457979D01*
X176864475Y-100470353D01*
X176867339Y-100474179D01*
X176867912Y-100474492D01*
X176918139Y-100524670D01*
X176933229Y-100585496D01*
X176932750Y-100589286D01*
X176933437Y-100596293D01*
X176933437Y-100596296D01*
X176936604Y-100628597D01*
X176949443Y-100759536D01*
X177003440Y-100921856D01*
X177007087Y-100927878D01*
X177007088Y-100927880D01*
X177088406Y-101062154D01*
X177088409Y-101062157D01*
X177092056Y-101068180D01*
X177210889Y-101191234D01*
X177354030Y-101284903D01*
X177360634Y-101287359D01*
X177360636Y-101287360D01*
X177507757Y-101342074D01*
X177507759Y-101342074D01*
X177514367Y-101344532D01*
X177593454Y-101355085D01*
X177676949Y-101366226D01*
X177676953Y-101366226D01*
X177683930Y-101367157D01*
X177690941Y-101366519D01*
X177690945Y-101366519D01*
X177847273Y-101352292D01*
X177847275Y-101352292D01*
X177854292Y-101351653D01*
X177860990Y-101349477D01*
X177860993Y-101349476D01*
X178010289Y-101300966D01*
X178010291Y-101300965D01*
X178016985Y-101298790D01*
X178136554Y-101227513D01*
X178157872Y-101214805D01*
X178157874Y-101214804D01*
X178163924Y-101211197D01*
X178287805Y-101093227D01*
X178335021Y-101022161D01*
X178389378Y-100976492D01*
X178459797Y-100967460D01*
X178523921Y-100997934D01*
X178536780Y-101011767D01*
X178538525Y-101014648D01*
X178657358Y-101137702D01*
X178663254Y-101141560D01*
X178784582Y-101220955D01*
X178800499Y-101231371D01*
X178807103Y-101233827D01*
X178807105Y-101233828D01*
X178954226Y-101288542D01*
X178954228Y-101288542D01*
X178960836Y-101291000D01*
X179035526Y-101300966D01*
X179123418Y-101312694D01*
X179123422Y-101312694D01*
X179130399Y-101313625D01*
X179137410Y-101312987D01*
X179137414Y-101312987D01*
X179293742Y-101298760D01*
X179293744Y-101298760D01*
X179300761Y-101298121D01*
X179307459Y-101295945D01*
X179307462Y-101295944D01*
X179378542Y-101272848D01*
X179449510Y-101270820D01*
X179486471Y-101287248D01*
X179512441Y-101304243D01*
X179585868Y-101352292D01*
X179602309Y-101363051D01*
X179608913Y-101365507D01*
X179608915Y-101365508D01*
X179756036Y-101420222D01*
X179756038Y-101420222D01*
X179762646Y-101422680D01*
X179841733Y-101433233D01*
X179925228Y-101444374D01*
X179925232Y-101444374D01*
X179932209Y-101445305D01*
X179939220Y-101444667D01*
X179939222Y-101444667D01*
X179942439Y-101444374D01*
X179948073Y-101443861D01*
X180017725Y-101457605D01*
X180050124Y-101481811D01*
X180110889Y-101544734D01*
X180254030Y-101638403D01*
X180260634Y-101640859D01*
X180260636Y-101640860D01*
X180407757Y-101695574D01*
X180407759Y-101695574D01*
X180414367Y-101698032D01*
X180493454Y-101708585D01*
X180576949Y-101719726D01*
X180576953Y-101719726D01*
X180583930Y-101720657D01*
X180590941Y-101720019D01*
X180590945Y-101720019D01*
X180747273Y-101705792D01*
X180747275Y-101705792D01*
X180754292Y-101705153D01*
X180760990Y-101702977D01*
X180760993Y-101702976D01*
X180910289Y-101654466D01*
X180910291Y-101654465D01*
X180916985Y-101652290D01*
X181063924Y-101564697D01*
X181187805Y-101446727D01*
X181282471Y-101304243D01*
X181343218Y-101144326D01*
X181344198Y-101137354D01*
X181366475Y-100978847D01*
X181366475Y-100978844D01*
X181367026Y-100974925D01*
X181367325Y-100953500D01*
X181348256Y-100783500D01*
X181337471Y-100752527D01*
X181294314Y-100628597D01*
X181294313Y-100628595D01*
X181291999Y-100621950D01*
X181252743Y-100559127D01*
X181233607Y-100490757D01*
X181254472Y-100422896D01*
X181295079Y-100384129D01*
X181417424Y-100311197D01*
X181541305Y-100193227D01*
X181559245Y-100166226D01*
X181604049Y-100098790D01*
X181635971Y-100050743D01*
X181677352Y-99941808D01*
X181694218Y-99897408D01*
X181694219Y-99897406D01*
X181696718Y-99890826D01*
X181709565Y-99799417D01*
X181719975Y-99725347D01*
X181719975Y-99725344D01*
X181720526Y-99721425D01*
X181720825Y-99700000D01*
X181701756Y-99530000D01*
X181682564Y-99474885D01*
X181647814Y-99375097D01*
X181647813Y-99375095D01*
X181645499Y-99368450D01*
X181639482Y-99358820D01*
X181638731Y-99357619D01*
X181619595Y-99289250D01*
X181633265Y-99234272D01*
X181635971Y-99230199D01*
X181640009Y-99219570D01*
X181694218Y-99076864D01*
X181694219Y-99076862D01*
X181696718Y-99070282D01*
X181705256Y-99009532D01*
X181719975Y-98904803D01*
X181719975Y-98904800D01*
X181720526Y-98900881D01*
X181720825Y-98879456D01*
X181701756Y-98709456D01*
X181671167Y-98621614D01*
X181669904Y-98617986D01*
X181666392Y-98547076D01*
X181683948Y-98506823D01*
X181722462Y-98448854D01*
X181748510Y-98409649D01*
X181809257Y-98249732D01*
X181812030Y-98230000D01*
X181832514Y-98084253D01*
X181832514Y-98084250D01*
X181833065Y-98080331D01*
X181833364Y-98058906D01*
X181814295Y-97888906D01*
X181803783Y-97858717D01*
X181760353Y-97734003D01*
X181760352Y-97734001D01*
X181758038Y-97727356D01*
X181720502Y-97667285D01*
X181671120Y-97588258D01*
X181667387Y-97582284D01*
X181546848Y-97460900D01*
X181474213Y-97414805D01*
X181408355Y-97373010D01*
X181408352Y-97373008D01*
X181402412Y-97369239D01*
X181395779Y-97366877D01*
X181247893Y-97314217D01*
X181247888Y-97314216D01*
X181241258Y-97311855D01*
X181234270Y-97311022D01*
X181234267Y-97311021D01*
X181118694Y-97297240D01*
X181071396Y-97291600D01*
X181064393Y-97292336D01*
X181064392Y-97292336D01*
X181019997Y-97297002D01*
X180901267Y-97309481D01*
X180892851Y-97312346D01*
X180752382Y-97360166D01*
X180681449Y-97363184D01*
X180620145Y-97327374D01*
X180587934Y-97264105D01*
X180587053Y-97225580D01*
X180586941Y-97225571D01*
X180587027Y-97224452D01*
X180587002Y-97223353D01*
X180587244Y-97221628D01*
X180587851Y-97213741D01*
X180588058Y-97198962D01*
X180587671Y-97191061D01*
X180568692Y-97021855D01*
X180565590Y-97008202D01*
X180508292Y-96843665D01*
X180510247Y-96842984D01*
X180500476Y-96782866D01*
X180528780Y-96717755D01*
X180586563Y-96678676D01*
X180610283Y-96670969D01*
X180610294Y-96670964D01*
X180616985Y-96668790D01*
X180710663Y-96612947D01*
X180757872Y-96584805D01*
X180757874Y-96584804D01*
X180763924Y-96581197D01*
X180887805Y-96463227D01*
X180892525Y-96456124D01*
X180948738Y-96371515D01*
X180982471Y-96320743D01*
X181033256Y-96187052D01*
X181040718Y-96167408D01*
X181040719Y-96167406D01*
X181043218Y-96160826D01*
X181044340Y-96152845D01*
X181066475Y-95995347D01*
X181066475Y-95995344D01*
X181067026Y-95991425D01*
X181067325Y-95970000D01*
X181048256Y-95800000D01*
X181045898Y-95793227D01*
X180994314Y-95645097D01*
X180994313Y-95645095D01*
X180991999Y-95638450D01*
X180974282Y-95610096D01*
X180905081Y-95499352D01*
X180901348Y-95493378D01*
X180894003Y-95485981D01*
X180816877Y-95408315D01*
X180780809Y-95371994D01*
X180664023Y-95297880D01*
X180642316Y-95284104D01*
X180642313Y-95284102D01*
X180636373Y-95280333D01*
X180629740Y-95277971D01*
X180481854Y-95225311D01*
X180481849Y-95225310D01*
X180475219Y-95222949D01*
X180468231Y-95222116D01*
X180468228Y-95222115D01*
X180352655Y-95208334D01*
X180305357Y-95202694D01*
X180298354Y-95203430D01*
X180298353Y-95203430D01*
X180253958Y-95208096D01*
X180135228Y-95220575D01*
X180125071Y-95224033D01*
X179979956Y-95273434D01*
X179979953Y-95273435D01*
X179973289Y-95275704D01*
X179827588Y-95365340D01*
X179822557Y-95370267D01*
X179822554Y-95370269D01*
X179773956Y-95417860D01*
X179705366Y-95485028D01*
X179701547Y-95490953D01*
X179701546Y-95490955D01*
X179678521Y-95526683D01*
X179612698Y-95628820D01*
X179610287Y-95635443D01*
X179610286Y-95635446D01*
X179556600Y-95782947D01*
X179556599Y-95782952D01*
X179554190Y-95789570D01*
X179532750Y-95959286D01*
X179549443Y-96129536D01*
X179596206Y-96270109D01*
X179598729Y-96341061D01*
X179562492Y-96402113D01*
X179517253Y-96429159D01*
X179435463Y-96457002D01*
X179424855Y-96461994D01*
X179416016Y-96471799D01*
X179419841Y-96480631D01*
X180045115Y-97105905D01*
X180079141Y-97168217D01*
X180074076Y-97239032D01*
X180045115Y-97284095D01*
X179864095Y-97465115D01*
X179801783Y-97499141D01*
X179730968Y-97494076D01*
X179685905Y-97465115D01*
X179150310Y-96929520D01*
X179136370Y-96921908D01*
X179134534Y-96922040D01*
X179127919Y-96926291D01*
X178589095Y-97465115D01*
X178526783Y-97499141D01*
X178455968Y-97494076D01*
X178410905Y-97465115D01*
X178229885Y-97284095D01*
X178195859Y-97221783D01*
X178200924Y-97150968D01*
X178229885Y-97105905D01*
X178852913Y-96482877D01*
X178859671Y-96470500D01*
X178855105Y-96464400D01*
X178849802Y-96461813D01*
X178692309Y-96405732D01*
X178678685Y-96402536D01*
X178512670Y-96382741D01*
X178498673Y-96382643D01*
X178332404Y-96400118D01*
X178318725Y-96403126D01*
X178160463Y-96457002D01*
X178147793Y-96462964D01*
X178110743Y-96485758D01*
X178042242Y-96504416D01*
X177974528Y-96483077D01*
X177929100Y-96428517D01*
X177920380Y-96358058D01*
X177926933Y-96333696D01*
X177940718Y-96297408D01*
X177940719Y-96297406D01*
X177943218Y-96290826D01*
X177957272Y-96190826D01*
X177966475Y-96125347D01*
X177966475Y-96125344D01*
X177967026Y-96121425D01*
X177967325Y-96100000D01*
X177948256Y-95930000D01*
X177941709Y-95911197D01*
X177894314Y-95775097D01*
X177894313Y-95775095D01*
X177891999Y-95768450D01*
X177885494Y-95758039D01*
X177805081Y-95629352D01*
X177801348Y-95623378D01*
X177788159Y-95610096D01*
X177708926Y-95530308D01*
X177680809Y-95501994D01*
X177588241Y-95443249D01*
X177542316Y-95414104D01*
X177542313Y-95414102D01*
X177536373Y-95410333D01*
X177529740Y-95407971D01*
X177381854Y-95355311D01*
X177381849Y-95355310D01*
X177375219Y-95352949D01*
X177368231Y-95352116D01*
X177368228Y-95352115D01*
X177252655Y-95338334D01*
X177205357Y-95332694D01*
X177198354Y-95333430D01*
X177198353Y-95333430D01*
X177153958Y-95338096D01*
X177035228Y-95350575D01*
X177025071Y-95354033D01*
X176879956Y-95403434D01*
X176879953Y-95403435D01*
X176873289Y-95405704D01*
X176727588Y-95495340D01*
X176722557Y-95500267D01*
X176722554Y-95500269D01*
X176665475Y-95556165D01*
X176605366Y-95615028D01*
X176601547Y-95620953D01*
X176601546Y-95620955D01*
X176578085Y-95657360D01*
X176512698Y-95758820D01*
X176510287Y-95765443D01*
X176510286Y-95765446D01*
X176456600Y-95912947D01*
X176456599Y-95912952D01*
X176454190Y-95919570D01*
X176432750Y-96089286D01*
X176449443Y-96259536D01*
X176503440Y-96421856D01*
X176507087Y-96427878D01*
X176507088Y-96427880D01*
X176539035Y-96480631D01*
X176587850Y-96561234D01*
X176587892Y-96561304D01*
X176606071Y-96629934D01*
X176586027Y-96694831D01*
X176500503Y-96827537D01*
X176494278Y-96840078D01*
X176474775Y-96893662D01*
X176432680Y-96950834D01*
X176366359Y-96976172D01*
X176314107Y-96969267D01*
X176253846Y-96947809D01*
X176253840Y-96947808D01*
X176247208Y-96945446D01*
X176240220Y-96944613D01*
X176240217Y-96944612D01*
X176124644Y-96930831D01*
X176077346Y-96925191D01*
X176070343Y-96925927D01*
X176070342Y-96925927D01*
X176025947Y-96930593D01*
X175907217Y-96943072D01*
X175897060Y-96946530D01*
X175751945Y-96995931D01*
X175751942Y-96995932D01*
X175745278Y-96998201D01*
X175599577Y-97087837D01*
X175594546Y-97092764D01*
X175594543Y-97092766D01*
X175558686Y-97127880D01*
X175477355Y-97207525D01*
X175473536Y-97213450D01*
X175473535Y-97213452D01*
X175438763Y-97267408D01*
X175384687Y-97351317D01*
X175382276Y-97357940D01*
X175382275Y-97357943D01*
X175328589Y-97505444D01*
X175328588Y-97505449D01*
X175326179Y-97512067D01*
X175304739Y-97681783D01*
X175321432Y-97852033D01*
X175373729Y-98009243D01*
X175376252Y-98080192D01*
X175372576Y-98092094D01*
X175326179Y-98219570D01*
X175304739Y-98389286D01*
X175321432Y-98559536D01*
X175375429Y-98721856D01*
X175379077Y-98727879D01*
X175379079Y-98727884D01*
X175444334Y-98835635D01*
X175462513Y-98904264D01*
X175442469Y-98969160D01*
X175384687Y-99058820D01*
X175382276Y-99065443D01*
X175382275Y-99065446D01*
X175328589Y-99212947D01*
X175328588Y-99212952D01*
X175326179Y-99219570D01*
X175304739Y-99389286D01*
X171148497Y-99389286D01*
X171148497Y-95485981D01*
X171168499Y-95417860D01*
X171222155Y-95371367D01*
X171292429Y-95361263D01*
X171357009Y-95390757D01*
X171383616Y-95422981D01*
X171440623Y-95521720D01*
X171445041Y-95526627D01*
X171445042Y-95526628D01*
X171567363Y-95662479D01*
X171571926Y-95667547D01*
X171577268Y-95671428D01*
X171577270Y-95671430D01*
X171725337Y-95779007D01*
X171730679Y-95782888D01*
X171736707Y-95785572D01*
X171736709Y-95785573D01*
X171903913Y-95860017D01*
X171909944Y-95862702D01*
X171972507Y-95876000D01*
X172095428Y-95902128D01*
X172095432Y-95902128D01*
X172101885Y-95903500D01*
X172298115Y-95903500D01*
X172304568Y-95902128D01*
X172304572Y-95902128D01*
X172427493Y-95876000D01*
X172490056Y-95862702D01*
X172496087Y-95860017D01*
X172663291Y-95785573D01*
X172663293Y-95785572D01*
X172669321Y-95782888D01*
X172674663Y-95779007D01*
X172822730Y-95671430D01*
X172822732Y-95671428D01*
X172828074Y-95667547D01*
X172837247Y-95657360D01*
X172923798Y-95561234D01*
X172954909Y-95526683D01*
X173015354Y-95489443D01*
X173086337Y-95490795D01*
X173145322Y-95530308D01*
X173173580Y-95595439D01*
X173173551Y-95626779D01*
X173165190Y-95692966D01*
X173136809Y-95758039D01*
X173123954Y-95770469D01*
X173124039Y-95770556D01*
X173001817Y-95890244D01*
X172997998Y-95896169D01*
X172997997Y-95896171D01*
X172976196Y-95930000D01*
X172909149Y-96034036D01*
X172906738Y-96040659D01*
X172906737Y-96040662D01*
X172853051Y-96188163D01*
X172853050Y-96188168D01*
X172850641Y-96194786D01*
X172829201Y-96364502D01*
X172845894Y-96534752D01*
X172899891Y-96697072D01*
X172903538Y-96703094D01*
X172903539Y-96703096D01*
X172967079Y-96808014D01*
X172985258Y-96876644D01*
X172983556Y-96889490D01*
X172984190Y-96889570D01*
X172962750Y-97059286D01*
X172979443Y-97229536D01*
X173033440Y-97391856D01*
X173037087Y-97397878D01*
X173037088Y-97397880D01*
X173111529Y-97520797D01*
X173122056Y-97538180D01*
X173126947Y-97543245D01*
X173126948Y-97543246D01*
X173130055Y-97546464D01*
X173162984Y-97609363D01*
X173156680Y-97680079D01*
X173127570Y-97724010D01*
X173070366Y-97780028D01*
X173066547Y-97785953D01*
X173066546Y-97785955D01*
X173062949Y-97791537D01*
X172977698Y-97923820D01*
X172975287Y-97930443D01*
X172975286Y-97930446D01*
X172921600Y-98077947D01*
X172921599Y-98077952D01*
X172919190Y-98084570D01*
X172897750Y-98254286D01*
X172914443Y-98424536D01*
X172968440Y-98586856D01*
X172972087Y-98592878D01*
X172972088Y-98592880D01*
X173053406Y-98727154D01*
X173053409Y-98727157D01*
X173057056Y-98733180D01*
X173175889Y-98856234D01*
X173244117Y-98900881D01*
X173278496Y-98923378D01*
X173319030Y-98949903D01*
X173325634Y-98952359D01*
X173325636Y-98952360D01*
X173472757Y-99007074D01*
X173472759Y-99007074D01*
X173479367Y-99009532D01*
X173558454Y-99020085D01*
X173641949Y-99031226D01*
X173641953Y-99031226D01*
X173648930Y-99032157D01*
X173655941Y-99031519D01*
X173655945Y-99031519D01*
X173812273Y-99017292D01*
X173812275Y-99017292D01*
X173819292Y-99016653D01*
X173825990Y-99014477D01*
X173825993Y-99014476D01*
X173975289Y-98965966D01*
X173975291Y-98965965D01*
X173981985Y-98963790D01*
X174128924Y-98876197D01*
X174252805Y-98758227D01*
X174257778Y-98750743D01*
X174343570Y-98621614D01*
X174347471Y-98615743D01*
X174408218Y-98455826D01*
X174432026Y-98286425D01*
X174432325Y-98265000D01*
X174413256Y-98095000D01*
X174408100Y-98080192D01*
X174359314Y-97940097D01*
X174359313Y-97940095D01*
X174356999Y-97933450D01*
X174325010Y-97882257D01*
X174270083Y-97794355D01*
X174270082Y-97794354D01*
X174266348Y-97788378D01*
X174261379Y-97783374D01*
X174257682Y-97778710D01*
X174231042Y-97712900D01*
X174244211Y-97643136D01*
X174269533Y-97609197D01*
X174312698Y-97568091D01*
X174312701Y-97568088D01*
X174317805Y-97563227D01*
X174328943Y-97546464D01*
X174369843Y-97484903D01*
X174412471Y-97420743D01*
X174461211Y-97292434D01*
X174470718Y-97267408D01*
X174470719Y-97267406D01*
X174473218Y-97260826D01*
X174479536Y-97215875D01*
X174496475Y-97095347D01*
X174496475Y-97095344D01*
X174497026Y-97091425D01*
X174497325Y-97070000D01*
X174478256Y-96900000D01*
X174458941Y-96844532D01*
X174424314Y-96745097D01*
X174424313Y-96745095D01*
X174421999Y-96738450D01*
X174359307Y-96638122D01*
X174340171Y-96569753D01*
X174341387Y-96553816D01*
X174344067Y-96534752D01*
X174359016Y-96428382D01*
X174388304Y-96363708D01*
X174396898Y-96354672D01*
X174457031Y-96297408D01*
X174514457Y-96242722D01*
X174519082Y-96235762D01*
X174605225Y-96106105D01*
X174609123Y-96100238D01*
X174611623Y-96093656D01*
X174613656Y-96089701D01*
X174662585Y-96038257D01*
X174731560Y-96021433D01*
X174769642Y-96029201D01*
X174804261Y-96042076D01*
X174804267Y-96042078D01*
X174810867Y-96044532D01*
X174817848Y-96045463D01*
X174817850Y-96045464D01*
X174973449Y-96066226D01*
X174973453Y-96066226D01*
X174980430Y-96067157D01*
X174987441Y-96066519D01*
X174987445Y-96066519D01*
X175143773Y-96052292D01*
X175143775Y-96052292D01*
X175150792Y-96051653D01*
X175157490Y-96049477D01*
X175157493Y-96049476D01*
X175306789Y-96000966D01*
X175306791Y-96000965D01*
X175313485Y-95998790D01*
X175379754Y-95959286D01*
X175454372Y-95914805D01*
X175454374Y-95914804D01*
X175460424Y-95911197D01*
X175584305Y-95793227D01*
X175589391Y-95785573D01*
X175662790Y-95675097D01*
X175678971Y-95650743D01*
X175727353Y-95523378D01*
X175737218Y-95497408D01*
X175737219Y-95497406D01*
X175739718Y-95490826D01*
X175747964Y-95432154D01*
X175762975Y-95325347D01*
X175762975Y-95325344D01*
X175763526Y-95321425D01*
X175763825Y-95300000D01*
X175744756Y-95130000D01*
X175738209Y-95111197D01*
X175690814Y-94975097D01*
X175690813Y-94975095D01*
X175688499Y-94968450D01*
X175682773Y-94959286D01*
X181232750Y-94959286D01*
X181249443Y-95129536D01*
X181303440Y-95291856D01*
X181307087Y-95297878D01*
X181307088Y-95297880D01*
X181388406Y-95432154D01*
X181388409Y-95432157D01*
X181392056Y-95438180D01*
X181510889Y-95561234D01*
X181516785Y-95565092D01*
X181647673Y-95650743D01*
X181654030Y-95654903D01*
X181660634Y-95657359D01*
X181660636Y-95657360D01*
X181807757Y-95712074D01*
X181807759Y-95712074D01*
X181814367Y-95714532D01*
X181893454Y-95725085D01*
X181976949Y-95736226D01*
X181976953Y-95736226D01*
X181983930Y-95737157D01*
X182010639Y-95734726D01*
X182080290Y-95748473D01*
X182131454Y-95797695D01*
X182147884Y-95866764D01*
X182147064Y-95875980D01*
X182132750Y-95989286D01*
X182149443Y-96159536D01*
X182203440Y-96321856D01*
X182207087Y-96327878D01*
X182210493Y-96333502D01*
X182228669Y-96402132D01*
X182215751Y-96454083D01*
X182212698Y-96458820D01*
X182210289Y-96465440D01*
X182210288Y-96465441D01*
X182156600Y-96612947D01*
X182156599Y-96612952D01*
X182154190Y-96619570D01*
X182132750Y-96789286D01*
X182149443Y-96959536D01*
X182203440Y-97121856D01*
X182207087Y-97127878D01*
X182207088Y-97127880D01*
X182288406Y-97262154D01*
X182288409Y-97262157D01*
X182292056Y-97268180D01*
X182410889Y-97391234D01*
X182464955Y-97426614D01*
X182527737Y-97467697D01*
X182554030Y-97484903D01*
X182560634Y-97487359D01*
X182560636Y-97487360D01*
X182707757Y-97542074D01*
X182707759Y-97542074D01*
X182714367Y-97544532D01*
X182793454Y-97555085D01*
X182876949Y-97566226D01*
X182876953Y-97566226D01*
X182883930Y-97567157D01*
X182890941Y-97566519D01*
X182890945Y-97566519D01*
X183047273Y-97552292D01*
X183047275Y-97552292D01*
X183054292Y-97551653D01*
X183060990Y-97549477D01*
X183060993Y-97549476D01*
X183210289Y-97500966D01*
X183210291Y-97500965D01*
X183216985Y-97498790D01*
X183272162Y-97465898D01*
X183357872Y-97414805D01*
X183357874Y-97414804D01*
X183363924Y-97411197D01*
X183487805Y-97293227D01*
X183493873Y-97284095D01*
X183578570Y-97156614D01*
X183582471Y-97150743D01*
X183631431Y-97021855D01*
X183640718Y-96997408D01*
X183640719Y-96997406D01*
X183643218Y-96990826D01*
X183649596Y-96945446D01*
X183666475Y-96825347D01*
X183666475Y-96825344D01*
X183667026Y-96821425D01*
X183667325Y-96800000D01*
X183648256Y-96630000D01*
X183635451Y-96593227D01*
X183594314Y-96475097D01*
X183594313Y-96475095D01*
X183591999Y-96468450D01*
X183588268Y-96462480D01*
X183585223Y-96456124D01*
X183587683Y-96454945D01*
X183571888Y-96398533D01*
X183583656Y-96351193D01*
X183582471Y-96350743D01*
X183640718Y-96197408D01*
X183640719Y-96197406D01*
X183643218Y-96190826D01*
X183644198Y-96183854D01*
X183666475Y-96025347D01*
X183666475Y-96025344D01*
X183667026Y-96021425D01*
X183667325Y-96000000D01*
X183648256Y-95830000D01*
X183637007Y-95797695D01*
X183594314Y-95675097D01*
X183594313Y-95675095D01*
X183591999Y-95668450D01*
X183580935Y-95650743D01*
X183505081Y-95529352D01*
X183501348Y-95523378D01*
X183494024Y-95516002D01*
X183405781Y-95427141D01*
X183371974Y-95364710D01*
X183377286Y-95293912D01*
X183420031Y-95237226D01*
X183456251Y-95218524D01*
X183510286Y-95200967D01*
X183510289Y-95200966D01*
X183516985Y-95198790D01*
X183607496Y-95144835D01*
X183657872Y-95114805D01*
X183657874Y-95114804D01*
X183663924Y-95111197D01*
X183787805Y-94993227D01*
X183882471Y-94850743D01*
X183943218Y-94690826D01*
X183945170Y-94676940D01*
X183966475Y-94525347D01*
X183966475Y-94525344D01*
X183967026Y-94521425D01*
X183967325Y-94500000D01*
X183948256Y-94330000D01*
X183945577Y-94322305D01*
X183894314Y-94175097D01*
X183894313Y-94175095D01*
X183891999Y-94168450D01*
X183801348Y-94023378D01*
X183788159Y-94010096D01*
X183685772Y-93906992D01*
X183680809Y-93901994D01*
X183613511Y-93859286D01*
X183542316Y-93814104D01*
X183542313Y-93814102D01*
X183536373Y-93810333D01*
X183529740Y-93807971D01*
X183381854Y-93755311D01*
X183381849Y-93755310D01*
X183375219Y-93752949D01*
X183368231Y-93752116D01*
X183368228Y-93752115D01*
X183252655Y-93738334D01*
X183205357Y-93732694D01*
X183198354Y-93733430D01*
X183198353Y-93733430D01*
X183153958Y-93738096D01*
X183035228Y-93750575D01*
X183025071Y-93754033D01*
X182879956Y-93803434D01*
X182879953Y-93803435D01*
X182873289Y-93805704D01*
X182727588Y-93895340D01*
X182722557Y-93900267D01*
X182722554Y-93900269D01*
X182715689Y-93906992D01*
X182605366Y-94015028D01*
X182601547Y-94020953D01*
X182601546Y-94020955D01*
X182596135Y-94029352D01*
X182512698Y-94158820D01*
X182496109Y-94204399D01*
X182454016Y-94261568D01*
X182387695Y-94286906D01*
X182335443Y-94280001D01*
X182181857Y-94225312D01*
X182181851Y-94225311D01*
X182175219Y-94222949D01*
X182168231Y-94222116D01*
X182168228Y-94222115D01*
X182052655Y-94208334D01*
X182005357Y-94202694D01*
X181998354Y-94203430D01*
X181998353Y-94203430D01*
X181953958Y-94208096D01*
X181835228Y-94220575D01*
X181825071Y-94224033D01*
X181679956Y-94273434D01*
X181679953Y-94273435D01*
X181673289Y-94275704D01*
X181527588Y-94365340D01*
X181522557Y-94370267D01*
X181522554Y-94370269D01*
X181463573Y-94428028D01*
X181405366Y-94485028D01*
X181401547Y-94490953D01*
X181401546Y-94490955D01*
X181379382Y-94525347D01*
X181312698Y-94628820D01*
X181310287Y-94635443D01*
X181310286Y-94635446D01*
X181256600Y-94782947D01*
X181256599Y-94782952D01*
X181254190Y-94789570D01*
X181232750Y-94959286D01*
X175682773Y-94959286D01*
X175597848Y-94823378D01*
X175584659Y-94810096D01*
X175504924Y-94729803D01*
X175477309Y-94701994D01*
X175382308Y-94641705D01*
X175338816Y-94614104D01*
X175338813Y-94614102D01*
X175332873Y-94610333D01*
X175326240Y-94607971D01*
X175178354Y-94555311D01*
X175178349Y-94555310D01*
X175171719Y-94552949D01*
X175164731Y-94552116D01*
X175164728Y-94552115D01*
X175049155Y-94538334D01*
X175001857Y-94532694D01*
X174994854Y-94533430D01*
X174994853Y-94533430D01*
X174950458Y-94538096D01*
X174831728Y-94550575D01*
X174821571Y-94554033D01*
X174676456Y-94603434D01*
X174676453Y-94603435D01*
X174669789Y-94605704D01*
X174524088Y-94695340D01*
X174519057Y-94700267D01*
X174519054Y-94700269D01*
X174473063Y-94745307D01*
X174401866Y-94815028D01*
X174398047Y-94820953D01*
X174398046Y-94820955D01*
X174313017Y-94952893D01*
X174313015Y-94952898D01*
X174309198Y-94958820D01*
X174308664Y-94960287D01*
X174261934Y-95010815D01*
X174193201Y-95028602D01*
X174155016Y-95021368D01*
X174101871Y-95002444D01*
X174094883Y-95001611D01*
X174094880Y-95001610D01*
X173975340Y-94987356D01*
X173932009Y-94982189D01*
X173925006Y-94982925D01*
X173925005Y-94982925D01*
X173880610Y-94987591D01*
X173761880Y-95000070D01*
X173751723Y-95003528D01*
X173606608Y-95052929D01*
X173606605Y-95052930D01*
X173599941Y-95055199D01*
X173454240Y-95144835D01*
X173449209Y-95149762D01*
X173449206Y-95149764D01*
X173332018Y-95264523D01*
X173330037Y-95262500D01*
X173280754Y-95294996D01*
X173209763Y-95295830D01*
X173149590Y-95258150D01*
X173119341Y-95193920D01*
X173118529Y-95161358D01*
X173138642Y-94970000D01*
X173137952Y-94963435D01*
X173118820Y-94781409D01*
X173118820Y-94781408D01*
X173118130Y-94774845D01*
X173108533Y-94745307D01*
X173088833Y-94684675D01*
X173086806Y-94613708D01*
X173090684Y-94601511D01*
X173123971Y-94512718D01*
X173123973Y-94512712D01*
X173126745Y-94505316D01*
X173133500Y-94443134D01*
X173133500Y-93859286D01*
X176886250Y-93859286D01*
X176902943Y-94029536D01*
X176956940Y-94191856D01*
X176960587Y-94197878D01*
X176960588Y-94197880D01*
X177041906Y-94332154D01*
X177041909Y-94332157D01*
X177045556Y-94338180D01*
X177164389Y-94461234D01*
X177217612Y-94496062D01*
X177274866Y-94533528D01*
X177307530Y-94554903D01*
X177314134Y-94557359D01*
X177314136Y-94557360D01*
X177461257Y-94612074D01*
X177461259Y-94612074D01*
X177467867Y-94614532D01*
X177546954Y-94625085D01*
X177630449Y-94636226D01*
X177630453Y-94636226D01*
X177637430Y-94637157D01*
X177644441Y-94636519D01*
X177644445Y-94636519D01*
X177800773Y-94622292D01*
X177800775Y-94622292D01*
X177807792Y-94621653D01*
X177814490Y-94619477D01*
X177814498Y-94619475D01*
X177841025Y-94610855D01*
X177911992Y-94608826D01*
X177948955Y-94625255D01*
X178006717Y-94663053D01*
X178013321Y-94665509D01*
X178013323Y-94665510D01*
X178160444Y-94720224D01*
X178160446Y-94720224D01*
X178167054Y-94722682D01*
X178246141Y-94733235D01*
X178329636Y-94744376D01*
X178329640Y-94744376D01*
X178336617Y-94745307D01*
X178343628Y-94744669D01*
X178343632Y-94744669D01*
X178499960Y-94730442D01*
X178499962Y-94730442D01*
X178506979Y-94729803D01*
X178513677Y-94727627D01*
X178513680Y-94727626D01*
X178662976Y-94679116D01*
X178662978Y-94679115D01*
X178669672Y-94676940D01*
X178727617Y-94642398D01*
X178810559Y-94592955D01*
X178810561Y-94592954D01*
X178816611Y-94589347D01*
X178940492Y-94471377D01*
X179035158Y-94328893D01*
X179083097Y-94202694D01*
X179093405Y-94175558D01*
X179093406Y-94175556D01*
X179095905Y-94168976D01*
X179117541Y-94015028D01*
X179119162Y-94003497D01*
X179119162Y-94003494D01*
X179119713Y-93999575D01*
X179120012Y-93978150D01*
X179100943Y-93808150D01*
X179081721Y-93752949D01*
X179047001Y-93653247D01*
X179047000Y-93653245D01*
X179044686Y-93646600D01*
X178954035Y-93501528D01*
X178833496Y-93380144D01*
X178768226Y-93338723D01*
X178695003Y-93292254D01*
X178695000Y-93292252D01*
X178689060Y-93288483D01*
X178682427Y-93286121D01*
X178534541Y-93233461D01*
X178534536Y-93233460D01*
X178527906Y-93231099D01*
X178520918Y-93230266D01*
X178520915Y-93230265D01*
X178405342Y-93216484D01*
X178358044Y-93210844D01*
X178351041Y-93211580D01*
X178351040Y-93211580D01*
X178306645Y-93216246D01*
X178187915Y-93228725D01*
X178181249Y-93230994D01*
X178181246Y-93230995D01*
X178165799Y-93236254D01*
X178094866Y-93239273D01*
X178057677Y-93223362D01*
X177995822Y-93184107D01*
X177995813Y-93184103D01*
X177989873Y-93180333D01*
X177978710Y-93176358D01*
X177835354Y-93125311D01*
X177835349Y-93125310D01*
X177828719Y-93122949D01*
X177821731Y-93122116D01*
X177821728Y-93122115D01*
X177706155Y-93108334D01*
X177658857Y-93102694D01*
X177651854Y-93103430D01*
X177651853Y-93103430D01*
X177607458Y-93108096D01*
X177488728Y-93120575D01*
X177478571Y-93124033D01*
X177333456Y-93173434D01*
X177333453Y-93173435D01*
X177326789Y-93175704D01*
X177181088Y-93265340D01*
X177176057Y-93270267D01*
X177176054Y-93270269D01*
X177153604Y-93292254D01*
X177058866Y-93385028D01*
X177055047Y-93390953D01*
X177055046Y-93390955D01*
X177048326Y-93401383D01*
X176966198Y-93528820D01*
X176963787Y-93535443D01*
X176963786Y-93535446D01*
X176910100Y-93682947D01*
X176910099Y-93682952D01*
X176907690Y-93689570D01*
X176886250Y-93859286D01*
X173133500Y-93859286D01*
X173133500Y-93496866D01*
X173126745Y-93434684D01*
X173075615Y-93298295D01*
X172988261Y-93181739D01*
X172871705Y-93094385D01*
X172735316Y-93043255D01*
X172673134Y-93036500D01*
X171726866Y-93036500D01*
X171664684Y-93043255D01*
X171528295Y-93094385D01*
X171411739Y-93181739D01*
X171377077Y-93227989D01*
X171375323Y-93230329D01*
X171318464Y-93272844D01*
X171247646Y-93277870D01*
X171185352Y-93243810D01*
X171151362Y-93181479D01*
X171148497Y-93154764D01*
X171148497Y-92689286D01*
X180532750Y-92689286D01*
X180549443Y-92859536D01*
X180603440Y-93021856D01*
X180607087Y-93027878D01*
X180607088Y-93027880D01*
X180688406Y-93162154D01*
X180688409Y-93162157D01*
X180692056Y-93168180D01*
X180810889Y-93291234D01*
X180833972Y-93306339D01*
X180940992Y-93376371D01*
X180954030Y-93384903D01*
X180960634Y-93387359D01*
X180960636Y-93387360D01*
X181107757Y-93442074D01*
X181107759Y-93442074D01*
X181114367Y-93444532D01*
X181193454Y-93455085D01*
X181276949Y-93466226D01*
X181276953Y-93466226D01*
X181283930Y-93467157D01*
X181290941Y-93466519D01*
X181290945Y-93466519D01*
X181447273Y-93452292D01*
X181447275Y-93452292D01*
X181454292Y-93451653D01*
X181460990Y-93449477D01*
X181460993Y-93449476D01*
X181610289Y-93400966D01*
X181610291Y-93400965D01*
X181616985Y-93398790D01*
X181763924Y-93311197D01*
X181887805Y-93193227D01*
X181893865Y-93184107D01*
X181953475Y-93094385D01*
X181982471Y-93050743D01*
X182043218Y-92890826D01*
X182067026Y-92721425D01*
X182067325Y-92700000D01*
X182066123Y-92689286D01*
X182832750Y-92689286D01*
X182849443Y-92859536D01*
X182903440Y-93021856D01*
X182907087Y-93027878D01*
X182907088Y-93027880D01*
X182988406Y-93162154D01*
X182988409Y-93162157D01*
X182992056Y-93168180D01*
X183110889Y-93291234D01*
X183133972Y-93306339D01*
X183240992Y-93376371D01*
X183254030Y-93384903D01*
X183260634Y-93387359D01*
X183260636Y-93387360D01*
X183407757Y-93442074D01*
X183407759Y-93442074D01*
X183414367Y-93444532D01*
X183493454Y-93455085D01*
X183576949Y-93466226D01*
X183576953Y-93466226D01*
X183583930Y-93467157D01*
X183590941Y-93466519D01*
X183590945Y-93466519D01*
X183747273Y-93452292D01*
X183747275Y-93452292D01*
X183754292Y-93451653D01*
X183760990Y-93449477D01*
X183760993Y-93449476D01*
X183916985Y-93398790D01*
X183917828Y-93401383D01*
X183975849Y-93393197D01*
X184001509Y-93399770D01*
X184115260Y-93442074D01*
X184115262Y-93442074D01*
X184121870Y-93444532D01*
X184200957Y-93455085D01*
X184284452Y-93466226D01*
X184284456Y-93466226D01*
X184291433Y-93467157D01*
X184298444Y-93466519D01*
X184298448Y-93466519D01*
X184454776Y-93452292D01*
X184454778Y-93452292D01*
X184461795Y-93451653D01*
X184468493Y-93449477D01*
X184468496Y-93449476D01*
X184617792Y-93400966D01*
X184617794Y-93400965D01*
X184624488Y-93398790D01*
X184771427Y-93311197D01*
X184895308Y-93193227D01*
X184901368Y-93184107D01*
X184960978Y-93094385D01*
X184989974Y-93050743D01*
X185050721Y-92890826D01*
X185074529Y-92721425D01*
X185074828Y-92700000D01*
X185055759Y-92530000D01*
X184999502Y-92368450D01*
X184908851Y-92223378D01*
X184895662Y-92210096D01*
X184793275Y-92106992D01*
X184788312Y-92101994D01*
X184662037Y-92021858D01*
X184649819Y-92014104D01*
X184649816Y-92014102D01*
X184643876Y-92010333D01*
X184637243Y-92007971D01*
X184489357Y-91955311D01*
X184489352Y-91955310D01*
X184482722Y-91952949D01*
X184475734Y-91952116D01*
X184475731Y-91952115D01*
X184360158Y-91938334D01*
X184312860Y-91932694D01*
X184305857Y-91933430D01*
X184305856Y-91933430D01*
X184261461Y-91938096D01*
X184142731Y-91950575D01*
X183994675Y-92000978D01*
X183992974Y-92001557D01*
X183922041Y-92004575D01*
X183910101Y-92000978D01*
X183781854Y-91955311D01*
X183781849Y-91955310D01*
X183775219Y-91952949D01*
X183768231Y-91952116D01*
X183768228Y-91952115D01*
X183652655Y-91938334D01*
X183605357Y-91932694D01*
X183598354Y-91933430D01*
X183598353Y-91933430D01*
X183553958Y-91938096D01*
X183435228Y-91950575D01*
X183425071Y-91954033D01*
X183279956Y-92003434D01*
X183279953Y-92003435D01*
X183273289Y-92005704D01*
X183127588Y-92095340D01*
X183122557Y-92100267D01*
X183122554Y-92100269D01*
X183115689Y-92106992D01*
X183005366Y-92215028D01*
X183001547Y-92220953D01*
X183001546Y-92220955D01*
X182996135Y-92229352D01*
X182912698Y-92358820D01*
X182910287Y-92365443D01*
X182910286Y-92365446D01*
X182856600Y-92512947D01*
X182856599Y-92512952D01*
X182854190Y-92519570D01*
X182832750Y-92689286D01*
X182066123Y-92689286D01*
X182048256Y-92530000D01*
X181991999Y-92368450D01*
X181901348Y-92223378D01*
X181888159Y-92210096D01*
X181785772Y-92106992D01*
X181780809Y-92101994D01*
X181654534Y-92021858D01*
X181642316Y-92014104D01*
X181642313Y-92014102D01*
X181636373Y-92010333D01*
X181629740Y-92007971D01*
X181481854Y-91955311D01*
X181481849Y-91955310D01*
X181475219Y-91952949D01*
X181468231Y-91952116D01*
X181468228Y-91952115D01*
X181352655Y-91938334D01*
X181305357Y-91932694D01*
X181298354Y-91933430D01*
X181298353Y-91933430D01*
X181253958Y-91938096D01*
X181135228Y-91950575D01*
X181125071Y-91954033D01*
X180979956Y-92003434D01*
X180979953Y-92003435D01*
X180973289Y-92005704D01*
X180827588Y-92095340D01*
X180822557Y-92100267D01*
X180822554Y-92100269D01*
X180815689Y-92106992D01*
X180705366Y-92215028D01*
X180701547Y-92220953D01*
X180701546Y-92220955D01*
X180696135Y-92229352D01*
X180612698Y-92358820D01*
X180610287Y-92365443D01*
X180610286Y-92365446D01*
X180556600Y-92512947D01*
X180556599Y-92512952D01*
X180554190Y-92519570D01*
X180532750Y-92689286D01*
X171148497Y-92689286D01*
X171148497Y-90227562D01*
X180101026Y-90227562D01*
X180117719Y-90397812D01*
X180171716Y-90560132D01*
X180175363Y-90566154D01*
X180175364Y-90566156D01*
X180256682Y-90700430D01*
X180256685Y-90700433D01*
X180260332Y-90706456D01*
X180379165Y-90829510D01*
X180522306Y-90923179D01*
X180528910Y-90925635D01*
X180528912Y-90925636D01*
X180676033Y-90980350D01*
X180676035Y-90980350D01*
X180682643Y-90982808D01*
X180761730Y-90993361D01*
X180845225Y-91004502D01*
X180845229Y-91004502D01*
X180852206Y-91005433D01*
X180859217Y-91004795D01*
X180859221Y-91004795D01*
X181015549Y-90990568D01*
X181015551Y-90990568D01*
X181022568Y-90989929D01*
X181029266Y-90987753D01*
X181029269Y-90987752D01*
X181178565Y-90939242D01*
X181178567Y-90939241D01*
X181185261Y-90937066D01*
X181332200Y-90849473D01*
X181456081Y-90731503D01*
X181469355Y-90711525D01*
X181546846Y-90594890D01*
X181550747Y-90589019D01*
X181611494Y-90429102D01*
X181635302Y-90259701D01*
X181635601Y-90238276D01*
X181616532Y-90068276D01*
X181562994Y-89914532D01*
X181562590Y-89913373D01*
X181562589Y-89913371D01*
X181560275Y-89906726D01*
X181469624Y-89761654D01*
X181456435Y-89748372D01*
X181354048Y-89645268D01*
X181349085Y-89640270D01*
X181283815Y-89598849D01*
X181210592Y-89552380D01*
X181210589Y-89552378D01*
X181204649Y-89548609D01*
X181198016Y-89546247D01*
X181050130Y-89493587D01*
X181050125Y-89493586D01*
X181043495Y-89491225D01*
X181036507Y-89490392D01*
X181036504Y-89490391D01*
X180920931Y-89476610D01*
X180873633Y-89470970D01*
X180866630Y-89471706D01*
X180866629Y-89471706D01*
X180822234Y-89476372D01*
X180703504Y-89488851D01*
X180694677Y-89491856D01*
X180548232Y-89541710D01*
X180548229Y-89541711D01*
X180541565Y-89543980D01*
X180395864Y-89633616D01*
X180390833Y-89638543D01*
X180390830Y-89638545D01*
X180383965Y-89645268D01*
X180273642Y-89753304D01*
X180269823Y-89759229D01*
X180269822Y-89759231D01*
X180266045Y-89765092D01*
X180180974Y-89897096D01*
X180178563Y-89903719D01*
X180178562Y-89903722D01*
X180124876Y-90051223D01*
X180124875Y-90051228D01*
X180122466Y-90057846D01*
X180101026Y-90227562D01*
X171148497Y-90227562D01*
X171148497Y-89159286D01*
X182432750Y-89159286D01*
X182449443Y-89329536D01*
X182503440Y-89491856D01*
X182507087Y-89497878D01*
X182507088Y-89497880D01*
X182588406Y-89632154D01*
X182588409Y-89632157D01*
X182592056Y-89638180D01*
X182710889Y-89761234D01*
X182854030Y-89854903D01*
X182860634Y-89857359D01*
X182860636Y-89857360D01*
X183007757Y-89912074D01*
X183007759Y-89912074D01*
X183014367Y-89914532D01*
X183093454Y-89925085D01*
X183176949Y-89936226D01*
X183176953Y-89936226D01*
X183183930Y-89937157D01*
X183190941Y-89936519D01*
X183190945Y-89936519D01*
X183347273Y-89922292D01*
X183347275Y-89922292D01*
X183354292Y-89921653D01*
X183360990Y-89919477D01*
X183360993Y-89919476D01*
X183510289Y-89870966D01*
X183510291Y-89870965D01*
X183516985Y-89868790D01*
X183663924Y-89781197D01*
X183787805Y-89663227D01*
X183801079Y-89643249D01*
X183867032Y-89543980D01*
X183882471Y-89520743D01*
X183943218Y-89360826D01*
X183967026Y-89191425D01*
X183967325Y-89170000D01*
X183948256Y-89000000D01*
X183896820Y-88852292D01*
X183894314Y-88845097D01*
X183894313Y-88845095D01*
X183891999Y-88838450D01*
X183860075Y-88787360D01*
X183805081Y-88699352D01*
X183801348Y-88693378D01*
X183788159Y-88680096D01*
X183685772Y-88576992D01*
X183680809Y-88571994D01*
X183615539Y-88530573D01*
X183542316Y-88484104D01*
X183542313Y-88484102D01*
X183536373Y-88480333D01*
X183529740Y-88477971D01*
X183381854Y-88425311D01*
X183381849Y-88425310D01*
X183375219Y-88422949D01*
X183368231Y-88422116D01*
X183368228Y-88422115D01*
X183252655Y-88408334D01*
X183205357Y-88402694D01*
X183198354Y-88403430D01*
X183198353Y-88403430D01*
X183153958Y-88408096D01*
X183035228Y-88420575D01*
X183025071Y-88424033D01*
X182879956Y-88473434D01*
X182879953Y-88473435D01*
X182873289Y-88475704D01*
X182727588Y-88565340D01*
X182722557Y-88570267D01*
X182722554Y-88570269D01*
X182685391Y-88606662D01*
X182605366Y-88685028D01*
X182601547Y-88690953D01*
X182601546Y-88690955D01*
X182598880Y-88695092D01*
X182512698Y-88828820D01*
X182510287Y-88835443D01*
X182510286Y-88835446D01*
X182456600Y-88982947D01*
X182456599Y-88982952D01*
X182454190Y-88989570D01*
X182432750Y-89159286D01*
X171148497Y-89159286D01*
X171148497Y-88731380D01*
X171168499Y-88663259D01*
X171222155Y-88616766D01*
X171292429Y-88606662D01*
X171357009Y-88636156D01*
X171365125Y-88643844D01*
X171410889Y-88691234D01*
X171554030Y-88784903D01*
X171560634Y-88787359D01*
X171560636Y-88787360D01*
X171707757Y-88842074D01*
X171707759Y-88842074D01*
X171714367Y-88844532D01*
X171793454Y-88855085D01*
X171876949Y-88866226D01*
X171876953Y-88866226D01*
X171883930Y-88867157D01*
X171890941Y-88866519D01*
X171890945Y-88866519D01*
X172047273Y-88852292D01*
X172047275Y-88852292D01*
X172054292Y-88851653D01*
X172060990Y-88849477D01*
X172060993Y-88849476D01*
X172210289Y-88800966D01*
X172210291Y-88800965D01*
X172216985Y-88798790D01*
X172363924Y-88711197D01*
X172487805Y-88593227D01*
X172498592Y-88576992D01*
X172562811Y-88480333D01*
X172582471Y-88450743D01*
X172643218Y-88290826D01*
X172667026Y-88121425D01*
X172667325Y-88100000D01*
X172648256Y-87930000D01*
X172591999Y-87768450D01*
X172501348Y-87623378D01*
X172380809Y-87501994D01*
X172315539Y-87460573D01*
X172242316Y-87414104D01*
X172242313Y-87414102D01*
X172236373Y-87410333D01*
X172229740Y-87407971D01*
X172081854Y-87355311D01*
X172081849Y-87355310D01*
X172075219Y-87352949D01*
X172068231Y-87352116D01*
X172068228Y-87352115D01*
X171952655Y-87338334D01*
X171905357Y-87332694D01*
X171898354Y-87333430D01*
X171898353Y-87333430D01*
X171853958Y-87338096D01*
X171735228Y-87350575D01*
X171725071Y-87354033D01*
X171579956Y-87403434D01*
X171579953Y-87403435D01*
X171573289Y-87405704D01*
X171427588Y-87495340D01*
X171362652Y-87558929D01*
X171299989Y-87592298D01*
X171229231Y-87586492D01*
X171172844Y-87543353D01*
X171148731Y-87476576D01*
X171148497Y-87468904D01*
X171148497Y-86789286D01*
X176532750Y-86789286D01*
X176549443Y-86959536D01*
X176603440Y-87121856D01*
X176607087Y-87127878D01*
X176607088Y-87127880D01*
X176688406Y-87262154D01*
X176688409Y-87262157D01*
X176692056Y-87268180D01*
X176810889Y-87391234D01*
X176954030Y-87484903D01*
X176960634Y-87487359D01*
X176960636Y-87487360D01*
X177107757Y-87542074D01*
X177107759Y-87542074D01*
X177114367Y-87544532D01*
X177193454Y-87555085D01*
X177276949Y-87566226D01*
X177276953Y-87566226D01*
X177283930Y-87567157D01*
X177290941Y-87566519D01*
X177290945Y-87566519D01*
X177447273Y-87552292D01*
X177447275Y-87552292D01*
X177454292Y-87551653D01*
X177460990Y-87549477D01*
X177460993Y-87549476D01*
X177610289Y-87500966D01*
X177610291Y-87500965D01*
X177616985Y-87498790D01*
X177763924Y-87411197D01*
X177887805Y-87293227D01*
X177901079Y-87273249D01*
X177978570Y-87156614D01*
X177982471Y-87150743D01*
X178043218Y-86990826D01*
X178067026Y-86821425D01*
X178067325Y-86800000D01*
X178048256Y-86630000D01*
X177991999Y-86468450D01*
X177901348Y-86323378D01*
X177888159Y-86310096D01*
X177785772Y-86206992D01*
X177780809Y-86201994D01*
X177715539Y-86160573D01*
X177642316Y-86114104D01*
X177642313Y-86114102D01*
X177636373Y-86110333D01*
X177629740Y-86107971D01*
X177481854Y-86055311D01*
X177481849Y-86055310D01*
X177475219Y-86052949D01*
X177468231Y-86052116D01*
X177468228Y-86052115D01*
X177352655Y-86038334D01*
X177305357Y-86032694D01*
X177298354Y-86033430D01*
X177298353Y-86033430D01*
X177253958Y-86038096D01*
X177135228Y-86050575D01*
X177125071Y-86054033D01*
X176979956Y-86103434D01*
X176979953Y-86103435D01*
X176973289Y-86105704D01*
X176827588Y-86195340D01*
X176822557Y-86200267D01*
X176822554Y-86200269D01*
X176771174Y-86250584D01*
X176705366Y-86315028D01*
X176701547Y-86320953D01*
X176701546Y-86320955D01*
X176665698Y-86376580D01*
X176612698Y-86458820D01*
X176610287Y-86465443D01*
X176610286Y-86465446D01*
X176556600Y-86612947D01*
X176556599Y-86612952D01*
X176554190Y-86619570D01*
X176532750Y-86789286D01*
X171148497Y-86789286D01*
X171148497Y-85297436D01*
X171168499Y-85229315D01*
X171222155Y-85182822D01*
X171292429Y-85172718D01*
X171357009Y-85202212D01*
X171379016Y-85227067D01*
X171398334Y-85255762D01*
X171402013Y-85259619D01*
X171402015Y-85259621D01*
X171415301Y-85273548D01*
X171563326Y-85428718D01*
X171755100Y-85571402D01*
X171759851Y-85573818D01*
X171759855Y-85573820D01*
X171963414Y-85677314D01*
X171968172Y-85679733D01*
X172081428Y-85714900D01*
X172191349Y-85749032D01*
X172191355Y-85749033D01*
X172196452Y-85750616D01*
X172314226Y-85766226D01*
X172428127Y-85781323D01*
X172428131Y-85781323D01*
X172433411Y-85782023D01*
X172438740Y-85781823D01*
X172438741Y-85781823D01*
X172536509Y-85778152D01*
X172672274Y-85773055D01*
X172774275Y-85751653D01*
X172900984Y-85725067D01*
X172900987Y-85725066D01*
X172906211Y-85723970D01*
X173128533Y-85636171D01*
X173332883Y-85512168D01*
X173433496Y-85424861D01*
X173509386Y-85359007D01*
X173509388Y-85359005D01*
X173513419Y-85355507D01*
X173546491Y-85315173D01*
X173568242Y-85288646D01*
X173626902Y-85248651D01*
X173697872Y-85246720D01*
X173758621Y-85283465D01*
X173788991Y-85342663D01*
X173796030Y-85376211D01*
X173883829Y-85598533D01*
X174007832Y-85802883D01*
X174011329Y-85806913D01*
X174101090Y-85910353D01*
X174164493Y-85983419D01*
X174168619Y-85986802D01*
X174168623Y-85986806D01*
X174224588Y-86032694D01*
X174349333Y-86134978D01*
X174353969Y-86137617D01*
X174353972Y-86137619D01*
X174464032Y-86200269D01*
X174557066Y-86253227D01*
X174781753Y-86334784D01*
X174787002Y-86335733D01*
X174787005Y-86335734D01*
X175012885Y-86376580D01*
X175012893Y-86376581D01*
X175016969Y-86377318D01*
X175035359Y-86378185D01*
X175040544Y-86378430D01*
X175040551Y-86378430D01*
X175042032Y-86378500D01*
X175610012Y-86378500D01*
X175788175Y-86363383D01*
X175793339Y-86362043D01*
X175793343Y-86362042D01*
X176014375Y-86304673D01*
X176014380Y-86304671D01*
X176019540Y-86303332D01*
X176136636Y-86250584D01*
X176232619Y-86207347D01*
X176232622Y-86207346D01*
X176237480Y-86205157D01*
X176244741Y-86200269D01*
X176372726Y-86114104D01*
X176435762Y-86071666D01*
X176452907Y-86055311D01*
X176604861Y-85910353D01*
X176608718Y-85906674D01*
X176751402Y-85714900D01*
X176758487Y-85700966D01*
X176857314Y-85506586D01*
X176857314Y-85506585D01*
X176859733Y-85501828D01*
X176912410Y-85332181D01*
X176951713Y-85273056D01*
X177016742Y-85244566D01*
X177086851Y-85255756D01*
X177123910Y-85282573D01*
X177263326Y-85428718D01*
X177455100Y-85571402D01*
X177459851Y-85573818D01*
X177459855Y-85573820D01*
X177663414Y-85677314D01*
X177668172Y-85679733D01*
X177781428Y-85714900D01*
X177891349Y-85749032D01*
X177891355Y-85749033D01*
X177896452Y-85750616D01*
X178014226Y-85766226D01*
X178128127Y-85781323D01*
X178128131Y-85781323D01*
X178133411Y-85782023D01*
X178138740Y-85781823D01*
X178138741Y-85781823D01*
X178236509Y-85778152D01*
X178372274Y-85773055D01*
X178474275Y-85751653D01*
X178600984Y-85725067D01*
X178600987Y-85725066D01*
X178606211Y-85723970D01*
X178828533Y-85636171D01*
X179032883Y-85512168D01*
X179133496Y-85424861D01*
X179209386Y-85359007D01*
X179209388Y-85359005D01*
X179213419Y-85355507D01*
X179216802Y-85351381D01*
X179216806Y-85351377D01*
X179354165Y-85183854D01*
X179364978Y-85170667D01*
X179381141Y-85142274D01*
X179468227Y-84989286D01*
X183232750Y-84989286D01*
X183249443Y-85159536D01*
X183303440Y-85321856D01*
X183307087Y-85327878D01*
X183307088Y-85327880D01*
X183388406Y-85462154D01*
X183388409Y-85462157D01*
X183392056Y-85468180D01*
X183510889Y-85591234D01*
X183516785Y-85595092D01*
X183642433Y-85677314D01*
X183654030Y-85684903D01*
X183660634Y-85687359D01*
X183660636Y-85687360D01*
X183807757Y-85742074D01*
X183807759Y-85742074D01*
X183814367Y-85744532D01*
X183893454Y-85755085D01*
X183976949Y-85766226D01*
X183976953Y-85766226D01*
X183983930Y-85767157D01*
X183990941Y-85766519D01*
X183990945Y-85766519D01*
X184147273Y-85752292D01*
X184147275Y-85752292D01*
X184154292Y-85751653D01*
X184160990Y-85749477D01*
X184160993Y-85749476D01*
X184310289Y-85700966D01*
X184310291Y-85700965D01*
X184316985Y-85698790D01*
X184353011Y-85677314D01*
X184457872Y-85614805D01*
X184457874Y-85614804D01*
X184463924Y-85611197D01*
X184587805Y-85493227D01*
X184601079Y-85473249D01*
X184678570Y-85356614D01*
X184682471Y-85350743D01*
X184743218Y-85190826D01*
X184767026Y-85021425D01*
X184767325Y-85000000D01*
X184748256Y-84830000D01*
X184718052Y-84743263D01*
X184694314Y-84675097D01*
X184694313Y-84675095D01*
X184691999Y-84668450D01*
X184601348Y-84523378D01*
X184588159Y-84510096D01*
X184485772Y-84406992D01*
X184480809Y-84401994D01*
X184415539Y-84360573D01*
X184342316Y-84314104D01*
X184342313Y-84314102D01*
X184336373Y-84310333D01*
X184329740Y-84307971D01*
X184181854Y-84255311D01*
X184181849Y-84255310D01*
X184175219Y-84252949D01*
X184168231Y-84252116D01*
X184168228Y-84252115D01*
X184052655Y-84238334D01*
X184005357Y-84232694D01*
X183998354Y-84233430D01*
X183998353Y-84233430D01*
X183953958Y-84238096D01*
X183835228Y-84250575D01*
X183825071Y-84254033D01*
X183679956Y-84303434D01*
X183679953Y-84303435D01*
X183673289Y-84305704D01*
X183527588Y-84395340D01*
X183522557Y-84400267D01*
X183522554Y-84400269D01*
X183476403Y-84445464D01*
X183405366Y-84515028D01*
X183401547Y-84520953D01*
X183401546Y-84520955D01*
X183396135Y-84529352D01*
X183312698Y-84658820D01*
X183310287Y-84665443D01*
X183310286Y-84665446D01*
X183256600Y-84812947D01*
X183256599Y-84812952D01*
X183254190Y-84819570D01*
X183232750Y-84989286D01*
X179468227Y-84989286D01*
X179480584Y-84967577D01*
X179483227Y-84962934D01*
X179564784Y-84738247D01*
X179565734Y-84732995D01*
X179606579Y-84507120D01*
X179606580Y-84507114D01*
X179607318Y-84503031D01*
X179607513Y-84498886D01*
X179607698Y-84497260D01*
X179635257Y-84431830D01*
X179693815Y-84391687D01*
X179764780Y-84389574D01*
X179776808Y-84393374D01*
X179914367Y-84444532D01*
X179993454Y-84455085D01*
X180076949Y-84466226D01*
X180076953Y-84466226D01*
X180083930Y-84467157D01*
X180090941Y-84466519D01*
X180090945Y-84466519D01*
X180247273Y-84452292D01*
X180247275Y-84452292D01*
X180254292Y-84451653D01*
X180260990Y-84449477D01*
X180260993Y-84449476D01*
X180410289Y-84400966D01*
X180410291Y-84400965D01*
X180416985Y-84398790D01*
X180563924Y-84311197D01*
X180687805Y-84193227D01*
X180782471Y-84050743D01*
X180833923Y-83915296D01*
X180840718Y-83897408D01*
X180840719Y-83897406D01*
X180843218Y-83890826D01*
X180851361Y-83832885D01*
X180866475Y-83725347D01*
X180866475Y-83725344D01*
X180867026Y-83721425D01*
X180867325Y-83700000D01*
X180848256Y-83530000D01*
X180837970Y-83500460D01*
X180794314Y-83375097D01*
X180794313Y-83375095D01*
X180791999Y-83368450D01*
X180741342Y-83287381D01*
X180705081Y-83229352D01*
X180701348Y-83223378D01*
X180580809Y-83101994D01*
X180478265Y-83036918D01*
X180442316Y-83014104D01*
X180442313Y-83014102D01*
X180436373Y-83010333D01*
X180429740Y-83007971D01*
X180281854Y-82955311D01*
X180281849Y-82955310D01*
X180275219Y-82952949D01*
X180268231Y-82952116D01*
X180268228Y-82952115D01*
X180152655Y-82938334D01*
X180105357Y-82932694D01*
X180098354Y-82933430D01*
X180098353Y-82933430D01*
X180053958Y-82938096D01*
X179935228Y-82950575D01*
X179925071Y-82954033D01*
X179779956Y-83003434D01*
X179779953Y-83003435D01*
X179773289Y-83005704D01*
X179627588Y-83095340D01*
X179622557Y-83100267D01*
X179622554Y-83100269D01*
X179543814Y-83177377D01*
X179481149Y-83210747D01*
X179410390Y-83204941D01*
X179351137Y-83157720D01*
X179341117Y-83142837D01*
X179301666Y-83084238D01*
X179284026Y-83065746D01*
X179203175Y-82980993D01*
X179136674Y-82911282D01*
X179026470Y-82829288D01*
X181176228Y-82829288D01*
X181206722Y-83030922D01*
X181208928Y-83036917D01*
X181208928Y-83036918D01*
X181232237Y-83100269D01*
X181277137Y-83222306D01*
X181355338Y-83348430D01*
X181367751Y-83368450D01*
X181384598Y-83395622D01*
X181388979Y-83400255D01*
X181388980Y-83400256D01*
X181483738Y-83500460D01*
X181524714Y-83543791D01*
X181529944Y-83547453D01*
X181529945Y-83547454D01*
X181660487Y-83638860D01*
X181691761Y-83660758D01*
X181757986Y-83689416D01*
X181855988Y-83731825D01*
X181878916Y-83741747D01*
X181885164Y-83743052D01*
X181885163Y-83743052D01*
X182073788Y-83782459D01*
X182073792Y-83782459D01*
X182078533Y-83783450D01*
X182083370Y-83783703D01*
X182083374Y-83783704D01*
X182083440Y-83783707D01*
X182085212Y-83783800D01*
X182234967Y-83783800D01*
X182307613Y-83776421D01*
X182380534Y-83769014D01*
X182380535Y-83769014D01*
X182386883Y-83768369D01*
X182581478Y-83707386D01*
X182759837Y-83608521D01*
X182914673Y-83475810D01*
X183039661Y-83314676D01*
X183042474Y-83308959D01*
X183042481Y-83308948D01*
X183084427Y-83223702D01*
X183132449Y-83171411D01*
X183201119Y-83153385D01*
X183268634Y-83175345D01*
X183309105Y-83222218D01*
X183309137Y-83222306D01*
X183349485Y-83287381D01*
X183399751Y-83368450D01*
X183416598Y-83395622D01*
X183420979Y-83400255D01*
X183420980Y-83400256D01*
X183515738Y-83500460D01*
X183556714Y-83543791D01*
X183561944Y-83547453D01*
X183561945Y-83547454D01*
X183692487Y-83638860D01*
X183723761Y-83660758D01*
X183789986Y-83689416D01*
X183887988Y-83731825D01*
X183910916Y-83741747D01*
X183917164Y-83743052D01*
X183917163Y-83743052D01*
X184105788Y-83782459D01*
X184105792Y-83782459D01*
X184110533Y-83783450D01*
X184115370Y-83783703D01*
X184115374Y-83783704D01*
X184115440Y-83783707D01*
X184117212Y-83783800D01*
X184266967Y-83783800D01*
X184339613Y-83776421D01*
X184412534Y-83769014D01*
X184412535Y-83769014D01*
X184418883Y-83768369D01*
X184613478Y-83707386D01*
X184791837Y-83608521D01*
X184946673Y-83475810D01*
X185071661Y-83314676D01*
X185161696Y-83131701D01*
X185169434Y-83101994D01*
X185211490Y-82940541D01*
X185211490Y-82940538D01*
X185213100Y-82934359D01*
X185218606Y-82829288D01*
X185223438Y-82737094D01*
X185223438Y-82737090D01*
X185223772Y-82730712D01*
X185193278Y-82529078D01*
X185191072Y-82523082D01*
X185125067Y-82343684D01*
X185125066Y-82343683D01*
X185122863Y-82337694D01*
X185015402Y-82164378D01*
X184875286Y-82016209D01*
X184778425Y-81948386D01*
X184713472Y-81902906D01*
X184713471Y-81902905D01*
X184708239Y-81899242D01*
X184521084Y-81818253D01*
X184470627Y-81807712D01*
X184326212Y-81777541D01*
X184326208Y-81777541D01*
X184321467Y-81776550D01*
X184316630Y-81776297D01*
X184316626Y-81776296D01*
X184316560Y-81776293D01*
X184314788Y-81776200D01*
X184165033Y-81776200D01*
X184092387Y-81783579D01*
X184019466Y-81790986D01*
X184019465Y-81790986D01*
X184013117Y-81791631D01*
X183818522Y-81852614D01*
X183640163Y-81951479D01*
X183485327Y-82084190D01*
X183360339Y-82245324D01*
X183357526Y-82251041D01*
X183357519Y-82251052D01*
X183315573Y-82336298D01*
X183267551Y-82388589D01*
X183198881Y-82406615D01*
X183131366Y-82384655D01*
X183090895Y-82337782D01*
X183090863Y-82337694D01*
X182983402Y-82164378D01*
X182843286Y-82016209D01*
X182746425Y-81948386D01*
X182681472Y-81902906D01*
X182681471Y-81902905D01*
X182676239Y-81899242D01*
X182489084Y-81818253D01*
X182438627Y-81807712D01*
X182294212Y-81777541D01*
X182294208Y-81777541D01*
X182289467Y-81776550D01*
X182284630Y-81776297D01*
X182284626Y-81776296D01*
X182284560Y-81776293D01*
X182282788Y-81776200D01*
X182133033Y-81776200D01*
X182060387Y-81783579D01*
X181987466Y-81790986D01*
X181987465Y-81790986D01*
X181981117Y-81791631D01*
X181786522Y-81852614D01*
X181608163Y-81951479D01*
X181453327Y-82084190D01*
X181328339Y-82245324D01*
X181238304Y-82428299D01*
X181236695Y-82434477D01*
X181236694Y-82434479D01*
X181191741Y-82607058D01*
X181186900Y-82625641D01*
X181185054Y-82660863D01*
X181178890Y-82778500D01*
X181176228Y-82829288D01*
X179026470Y-82829288D01*
X178944900Y-82768598D01*
X178940149Y-82766182D01*
X178940145Y-82766180D01*
X178736586Y-82662686D01*
X178736585Y-82662686D01*
X178731828Y-82660267D01*
X178589362Y-82616030D01*
X178508651Y-82590968D01*
X178508645Y-82590967D01*
X178503548Y-82589384D01*
X178376117Y-82572494D01*
X178271873Y-82558677D01*
X178271869Y-82558677D01*
X178266589Y-82557977D01*
X178261260Y-82558177D01*
X178261259Y-82558177D01*
X178163491Y-82561848D01*
X178027726Y-82566945D01*
X177940816Y-82585181D01*
X177799016Y-82614933D01*
X177799013Y-82614934D01*
X177793789Y-82616030D01*
X177571467Y-82703829D01*
X177367117Y-82827832D01*
X177363087Y-82831329D01*
X177251707Y-82927980D01*
X177186581Y-82984493D01*
X177183198Y-82988619D01*
X177183194Y-82988623D01*
X177104795Y-83084238D01*
X177035022Y-83169333D01*
X177032383Y-83173969D01*
X177032381Y-83173972D01*
X177004073Y-83223702D01*
X176916773Y-83377066D01*
X176835216Y-83601753D01*
X176834267Y-83607002D01*
X176834266Y-83607005D01*
X176793420Y-83832885D01*
X176793419Y-83832893D01*
X176792682Y-83836969D01*
X176791500Y-83862032D01*
X176791500Y-83914136D01*
X176771498Y-83982257D01*
X176717842Y-84028750D01*
X176647568Y-84038854D01*
X176582988Y-84009360D01*
X176570334Y-83996716D01*
X176561442Y-83986468D01*
X176535507Y-83956581D01*
X176531381Y-83953198D01*
X176531377Y-83953194D01*
X176354795Y-83808407D01*
X176350667Y-83805022D01*
X176346031Y-83802383D01*
X176346028Y-83802381D01*
X176147577Y-83689416D01*
X176142934Y-83686773D01*
X175918247Y-83605216D01*
X175912998Y-83604267D01*
X175912995Y-83604266D01*
X175687115Y-83563420D01*
X175687107Y-83563419D01*
X175683031Y-83562682D01*
X175664641Y-83561815D01*
X175659456Y-83561570D01*
X175659449Y-83561570D01*
X175657968Y-83561500D01*
X175089988Y-83561500D01*
X174911825Y-83576617D01*
X174906661Y-83577957D01*
X174906657Y-83577958D01*
X174685625Y-83635327D01*
X174685620Y-83635329D01*
X174680460Y-83636668D01*
X174675594Y-83638860D01*
X174467381Y-83732653D01*
X174467378Y-83732654D01*
X174462520Y-83734843D01*
X174264238Y-83868334D01*
X174260381Y-83872013D01*
X174260379Y-83872015D01*
X174121472Y-84004526D01*
X174058375Y-84037073D01*
X173987698Y-84030342D01*
X173931881Y-83986468D01*
X173909120Y-83915296D01*
X173908613Y-83915317D01*
X173908535Y-83913464D01*
X173908500Y-83913356D01*
X173908500Y-83909988D01*
X173893383Y-83731825D01*
X173875596Y-83663294D01*
X173834673Y-83505625D01*
X173834671Y-83505620D01*
X173833332Y-83500460D01*
X173786106Y-83395622D01*
X173737347Y-83287381D01*
X173737346Y-83287378D01*
X173735157Y-83282520D01*
X173601666Y-83084238D01*
X173584026Y-83065746D01*
X173503175Y-82980993D01*
X173436674Y-82911282D01*
X173244900Y-82768598D01*
X173240149Y-82766182D01*
X173240145Y-82766180D01*
X173036586Y-82662686D01*
X173036585Y-82662686D01*
X173031828Y-82660267D01*
X172889362Y-82616030D01*
X172808651Y-82590968D01*
X172808645Y-82590967D01*
X172803548Y-82589384D01*
X172676117Y-82572494D01*
X172571873Y-82558677D01*
X172571869Y-82558677D01*
X172566589Y-82557977D01*
X172561260Y-82558177D01*
X172561259Y-82558177D01*
X172463491Y-82561848D01*
X172327726Y-82566945D01*
X172240816Y-82585181D01*
X172099016Y-82614933D01*
X172099013Y-82614934D01*
X172093789Y-82616030D01*
X171871467Y-82703829D01*
X171667117Y-82827832D01*
X171663087Y-82831329D01*
X171551707Y-82927980D01*
X171486581Y-82984493D01*
X171483198Y-82988619D01*
X171483194Y-82988623D01*
X171371931Y-83124319D01*
X171313272Y-83164313D01*
X171242301Y-83166245D01*
X171181553Y-83129501D01*
X171150314Y-83065746D01*
X171148497Y-83044428D01*
X171148497Y-81615604D01*
X174237787Y-81615604D01*
X174247567Y-81826899D01*
X174248971Y-81832724D01*
X174248971Y-81832725D01*
X174293191Y-82016209D01*
X174297125Y-82032534D01*
X174299607Y-82037992D01*
X174299608Y-82037996D01*
X174343053Y-82133546D01*
X174384674Y-82225087D01*
X174507054Y-82397611D01*
X174659850Y-82543881D01*
X174837548Y-82658620D01*
X174843114Y-82660863D01*
X175028168Y-82735442D01*
X175028171Y-82735443D01*
X175033737Y-82737686D01*
X175241337Y-82778228D01*
X175246899Y-82778500D01*
X175402846Y-82778500D01*
X175560566Y-82763452D01*
X175763534Y-82703908D01*
X175847111Y-82660863D01*
X175946249Y-82609804D01*
X175946252Y-82609802D01*
X175951580Y-82607058D01*
X176117920Y-82476396D01*
X176121852Y-82471865D01*
X176121855Y-82471862D01*
X176252621Y-82321167D01*
X176256552Y-82316637D01*
X176259552Y-82311451D01*
X176259555Y-82311447D01*
X176359467Y-82138742D01*
X176362473Y-82133546D01*
X176431861Y-81933729D01*
X176436330Y-81902906D01*
X176461352Y-81730336D01*
X176461352Y-81730333D01*
X176462213Y-81724396D01*
X176453426Y-81534554D01*
X176470257Y-81465581D01*
X176521705Y-81416657D01*
X176591437Y-81403315D01*
X176623207Y-81410630D01*
X176714367Y-81444532D01*
X176793454Y-81455085D01*
X176876949Y-81466226D01*
X176876953Y-81466226D01*
X176883930Y-81467157D01*
X176890941Y-81466519D01*
X176890945Y-81466519D01*
X177047273Y-81452292D01*
X177047275Y-81452292D01*
X177054292Y-81451653D01*
X177060990Y-81449477D01*
X177060993Y-81449476D01*
X177210289Y-81400966D01*
X177210291Y-81400965D01*
X177216985Y-81398790D01*
X177363924Y-81311197D01*
X177487805Y-81193227D01*
X177582471Y-81050743D01*
X177643218Y-80890826D01*
X177646407Y-80868138D01*
X177666475Y-80725347D01*
X177666475Y-80725344D01*
X177667026Y-80721425D01*
X177667325Y-80700000D01*
X177648256Y-80530000D01*
X177612695Y-80427880D01*
X177594314Y-80375097D01*
X177594313Y-80375095D01*
X177591999Y-80368450D01*
X177501348Y-80223378D01*
X177488159Y-80210096D01*
X177385772Y-80106992D01*
X177380809Y-80101994D01*
X177360784Y-80089286D01*
X181032750Y-80089286D01*
X181049443Y-80259536D01*
X181103440Y-80421856D01*
X181107087Y-80427878D01*
X181107088Y-80427880D01*
X181188406Y-80562154D01*
X181188409Y-80562157D01*
X181192056Y-80568180D01*
X181310889Y-80691234D01*
X181454030Y-80784903D01*
X181460634Y-80787359D01*
X181460636Y-80787360D01*
X181607757Y-80842074D01*
X181607759Y-80842074D01*
X181614367Y-80844532D01*
X181693454Y-80855085D01*
X181776949Y-80866226D01*
X181776953Y-80866226D01*
X181783930Y-80867157D01*
X181790941Y-80866519D01*
X181790945Y-80866519D01*
X181947273Y-80852292D01*
X181947275Y-80852292D01*
X181954292Y-80851653D01*
X181960990Y-80849477D01*
X181960993Y-80849476D01*
X182110289Y-80800966D01*
X182110291Y-80800965D01*
X182116985Y-80798790D01*
X182224491Y-80734704D01*
X182257872Y-80714805D01*
X182257874Y-80714804D01*
X182263924Y-80711197D01*
X182387805Y-80593227D01*
X182397765Y-80578237D01*
X182478570Y-80456614D01*
X182482471Y-80450743D01*
X182543218Y-80290826D01*
X182567026Y-80121425D01*
X182567173Y-80110878D01*
X182567270Y-80103962D01*
X182567270Y-80103957D01*
X182567325Y-80100000D01*
X182548256Y-79930000D01*
X182491999Y-79768450D01*
X182401348Y-79623378D01*
X182388159Y-79610096D01*
X182285772Y-79506992D01*
X182280809Y-79501994D01*
X182215539Y-79460573D01*
X182142316Y-79414104D01*
X182142313Y-79414102D01*
X182136373Y-79410333D01*
X182129740Y-79407971D01*
X181981854Y-79355311D01*
X181981849Y-79355310D01*
X181975219Y-79352949D01*
X181968231Y-79352116D01*
X181968228Y-79352115D01*
X181852655Y-79338334D01*
X181805357Y-79332694D01*
X181798354Y-79333430D01*
X181798353Y-79333430D01*
X181753958Y-79338096D01*
X181635228Y-79350575D01*
X181625071Y-79354033D01*
X181479956Y-79403434D01*
X181479953Y-79403435D01*
X181473289Y-79405704D01*
X181327588Y-79495340D01*
X181322557Y-79500267D01*
X181322554Y-79500269D01*
X181315689Y-79506992D01*
X181205366Y-79615028D01*
X181201547Y-79620953D01*
X181201546Y-79620955D01*
X181196135Y-79629352D01*
X181112698Y-79758820D01*
X181110287Y-79765443D01*
X181110286Y-79765446D01*
X181056600Y-79912947D01*
X181056599Y-79912952D01*
X181054190Y-79919570D01*
X181032750Y-80089286D01*
X177360784Y-80089286D01*
X177315539Y-80060573D01*
X177242316Y-80014104D01*
X177242313Y-80014102D01*
X177236373Y-80010333D01*
X177229740Y-80007971D01*
X177081854Y-79955311D01*
X177081849Y-79955310D01*
X177075219Y-79952949D01*
X177068231Y-79952116D01*
X177068228Y-79952115D01*
X176941451Y-79936998D01*
X176905357Y-79932694D01*
X176898354Y-79933430D01*
X176898353Y-79933430D01*
X176853958Y-79938096D01*
X176735228Y-79950575D01*
X176725071Y-79954033D01*
X176579956Y-80003434D01*
X176579953Y-80003435D01*
X176573289Y-80005704D01*
X176427588Y-80095340D01*
X176422557Y-80100267D01*
X176422554Y-80100269D01*
X176363573Y-80158028D01*
X176305366Y-80215028D01*
X176301547Y-80220953D01*
X176301546Y-80220955D01*
X176296135Y-80229352D01*
X176212698Y-80358820D01*
X176210287Y-80365443D01*
X176210286Y-80365446D01*
X176156600Y-80512947D01*
X176156599Y-80512952D01*
X176154190Y-80519570D01*
X176138389Y-80644647D01*
X176110009Y-80709720D01*
X176050949Y-80749122D01*
X175979963Y-80750339D01*
X175945036Y-80734704D01*
X175867490Y-80684633D01*
X175862452Y-80681380D01*
X175802354Y-80657160D01*
X175671832Y-80604558D01*
X175671829Y-80604557D01*
X175666263Y-80602314D01*
X175458663Y-80561772D01*
X175453101Y-80561500D01*
X175297154Y-80561500D01*
X175139434Y-80576548D01*
X174936466Y-80636092D01*
X174931139Y-80638836D01*
X174931138Y-80638836D01*
X174753751Y-80730196D01*
X174753748Y-80730198D01*
X174748420Y-80732942D01*
X174582080Y-80863604D01*
X174578148Y-80868135D01*
X174578145Y-80868138D01*
X174459554Y-81004802D01*
X174443448Y-81023363D01*
X174440448Y-81028549D01*
X174440445Y-81028553D01*
X174348575Y-81187356D01*
X174337527Y-81206454D01*
X174268139Y-81406271D01*
X174267278Y-81412206D01*
X174267278Y-81412208D01*
X174261875Y-81449476D01*
X174237787Y-81615604D01*
X171148497Y-81615604D01*
X171148497Y-78689286D01*
X183932750Y-78689286D01*
X183949443Y-78859536D01*
X184003440Y-79021856D01*
X184007087Y-79027878D01*
X184007088Y-79027880D01*
X184088406Y-79162154D01*
X184088409Y-79162157D01*
X184092056Y-79168180D01*
X184210889Y-79291234D01*
X184354030Y-79384903D01*
X184360634Y-79387359D01*
X184360636Y-79387360D01*
X184507757Y-79442074D01*
X184507759Y-79442074D01*
X184514367Y-79444532D01*
X184593454Y-79455085D01*
X184676949Y-79466226D01*
X184676953Y-79466226D01*
X184683930Y-79467157D01*
X184690941Y-79466519D01*
X184690945Y-79466519D01*
X184847273Y-79452292D01*
X184847275Y-79452292D01*
X184854292Y-79451653D01*
X184860990Y-79449477D01*
X184860993Y-79449476D01*
X185010289Y-79400966D01*
X185010291Y-79400965D01*
X185016985Y-79398790D01*
X185099101Y-79349839D01*
X185157872Y-79314805D01*
X185157874Y-79314804D01*
X185163924Y-79311197D01*
X185287805Y-79193227D01*
X185301079Y-79173249D01*
X185378570Y-79056614D01*
X185382471Y-79050743D01*
X185443218Y-78890826D01*
X185467026Y-78721425D01*
X185467325Y-78700000D01*
X185448256Y-78530000D01*
X185418494Y-78444532D01*
X185394314Y-78375097D01*
X185394313Y-78375095D01*
X185391999Y-78368450D01*
X185301348Y-78223378D01*
X185288159Y-78210096D01*
X185185772Y-78106992D01*
X185180809Y-78101994D01*
X185100050Y-78050743D01*
X185042316Y-78014104D01*
X185042313Y-78014102D01*
X185036373Y-78010333D01*
X185029740Y-78007971D01*
X184881854Y-77955311D01*
X184881849Y-77955310D01*
X184875219Y-77952949D01*
X184868231Y-77952116D01*
X184868228Y-77952115D01*
X184752655Y-77938334D01*
X184705357Y-77932694D01*
X184698354Y-77933430D01*
X184698353Y-77933430D01*
X184653958Y-77938096D01*
X184535228Y-77950575D01*
X184525071Y-77954033D01*
X184379956Y-78003434D01*
X184379953Y-78003435D01*
X184373289Y-78005704D01*
X184227588Y-78095340D01*
X184222557Y-78100267D01*
X184222554Y-78100269D01*
X184215689Y-78106992D01*
X184105366Y-78215028D01*
X184101547Y-78220953D01*
X184101546Y-78220955D01*
X184096135Y-78229352D01*
X184012698Y-78358820D01*
X184010287Y-78365443D01*
X184010286Y-78365446D01*
X183956600Y-78512947D01*
X183956599Y-78512952D01*
X183954190Y-78519570D01*
X183932750Y-78689286D01*
X171148497Y-78689286D01*
X171148497Y-77696633D01*
X171168499Y-77628512D01*
X171222155Y-77582019D01*
X171292429Y-77571915D01*
X171331602Y-77584316D01*
X171513606Y-77676851D01*
X171523459Y-77680852D01*
X171741461Y-77748544D01*
X171751848Y-77750828D01*
X171778043Y-77754300D01*
X171792207Y-77752104D01*
X171796000Y-77738919D01*
X171796000Y-77737282D01*
X172304000Y-77737282D01*
X172307973Y-77750813D01*
X172318580Y-77752338D01*
X172450840Y-77724587D01*
X172461037Y-77721527D01*
X172673340Y-77637685D01*
X172682876Y-77632951D01*
X172878025Y-77514532D01*
X172886618Y-77508266D01*
X173059027Y-77358658D01*
X173066447Y-77351028D01*
X173211180Y-77174512D01*
X173217206Y-77165745D01*
X173330129Y-76967367D01*
X173334595Y-76957703D01*
X173412481Y-76743132D01*
X173415251Y-76732865D01*
X173456081Y-76507068D01*
X173457016Y-76498838D01*
X173457930Y-76479450D01*
X173458000Y-76476474D01*
X173458000Y-76442115D01*
X173456037Y-76435430D01*
X177242461Y-76435430D01*
X177256660Y-76602771D01*
X177258452Y-76613259D01*
X177315801Y-76834211D01*
X177319333Y-76844239D01*
X177413085Y-77052363D01*
X177418265Y-77061669D01*
X177545747Y-77251024D01*
X177552406Y-77259307D01*
X177709971Y-77424478D01*
X177717942Y-77431530D01*
X177901082Y-77567790D01*
X177910119Y-77573394D01*
X178113606Y-77676851D01*
X178123459Y-77680852D01*
X178341461Y-77748544D01*
X178351848Y-77750828D01*
X178378043Y-77754300D01*
X178392207Y-77752104D01*
X178396000Y-77738919D01*
X178396000Y-77737282D01*
X178904000Y-77737282D01*
X178907973Y-77750813D01*
X178918580Y-77752338D01*
X179050840Y-77724587D01*
X179061037Y-77721527D01*
X179142677Y-77689286D01*
X180832750Y-77689286D01*
X180849443Y-77859536D01*
X180903440Y-78021856D01*
X180907087Y-78027878D01*
X180907088Y-78027880D01*
X180988406Y-78162154D01*
X180988409Y-78162157D01*
X180992056Y-78168180D01*
X181110889Y-78291234D01*
X181116785Y-78295092D01*
X181224297Y-78365446D01*
X181254030Y-78384903D01*
X181260634Y-78387359D01*
X181260636Y-78387360D01*
X181407757Y-78442074D01*
X181407759Y-78442074D01*
X181414367Y-78444532D01*
X181493454Y-78455085D01*
X181576949Y-78466226D01*
X181576953Y-78466226D01*
X181583930Y-78467157D01*
X181590941Y-78466519D01*
X181590945Y-78466519D01*
X181747273Y-78452292D01*
X181747275Y-78452292D01*
X181754292Y-78451653D01*
X181760990Y-78449477D01*
X181760993Y-78449476D01*
X181910289Y-78400966D01*
X181910291Y-78400965D01*
X181916985Y-78398790D01*
X181972920Y-78365446D01*
X182057872Y-78314805D01*
X182057874Y-78314804D01*
X182063924Y-78311197D01*
X182187805Y-78193227D01*
X182201079Y-78173249D01*
X182278570Y-78056614D01*
X182282471Y-78050743D01*
X182343218Y-77890826D01*
X182362406Y-77754300D01*
X182366475Y-77725347D01*
X182366475Y-77725344D01*
X182367026Y-77721425D01*
X182367325Y-77700000D01*
X182348256Y-77530000D01*
X182291999Y-77368450D01*
X182201348Y-77223378D01*
X182188159Y-77210096D01*
X182085772Y-77106992D01*
X182080809Y-77101994D01*
X182002602Y-77052363D01*
X181942316Y-77014104D01*
X181942313Y-77014102D01*
X181936373Y-77010333D01*
X181929740Y-77007971D01*
X181781854Y-76955311D01*
X181781849Y-76955310D01*
X181775219Y-76952949D01*
X181768231Y-76952116D01*
X181768228Y-76952115D01*
X181652655Y-76938334D01*
X181605357Y-76932694D01*
X181598354Y-76933430D01*
X181598353Y-76933430D01*
X181553958Y-76938096D01*
X181435228Y-76950575D01*
X181425071Y-76954033D01*
X181279956Y-77003434D01*
X181279953Y-77003435D01*
X181273289Y-77005704D01*
X181127588Y-77095340D01*
X181122557Y-77100267D01*
X181122554Y-77100269D01*
X181115689Y-77106992D01*
X181005366Y-77215028D01*
X181001547Y-77220953D01*
X181001546Y-77220955D01*
X180996135Y-77229352D01*
X180912698Y-77358820D01*
X180910287Y-77365443D01*
X180910286Y-77365446D01*
X180856600Y-77512947D01*
X180856599Y-77512952D01*
X180854190Y-77519570D01*
X180832750Y-77689286D01*
X179142677Y-77689286D01*
X179273340Y-77637685D01*
X179282876Y-77632951D01*
X179478025Y-77514532D01*
X179486618Y-77508266D01*
X179659027Y-77358658D01*
X179666447Y-77351028D01*
X179811180Y-77174512D01*
X179817206Y-77165745D01*
X179930129Y-76967367D01*
X179934595Y-76957703D01*
X180012481Y-76743132D01*
X180015251Y-76732865D01*
X180056081Y-76507068D01*
X180057016Y-76498838D01*
X180057930Y-76479450D01*
X180058000Y-76476474D01*
X180058000Y-76442115D01*
X180053525Y-76426876D01*
X180052135Y-76425671D01*
X180044452Y-76424000D01*
X178922115Y-76424000D01*
X178906876Y-76428475D01*
X178905671Y-76429865D01*
X178904000Y-76437548D01*
X178904000Y-77737282D01*
X178396000Y-77737282D01*
X178396000Y-76442115D01*
X178391525Y-76426876D01*
X178390135Y-76425671D01*
X178382452Y-76424000D01*
X177260115Y-76424000D01*
X177244876Y-76428475D01*
X177243671Y-76429865D01*
X177242461Y-76435430D01*
X173456037Y-76435430D01*
X173453525Y-76426876D01*
X173452135Y-76425671D01*
X173444452Y-76424000D01*
X172322115Y-76424000D01*
X172306876Y-76428475D01*
X172305671Y-76429865D01*
X172304000Y-76437548D01*
X172304000Y-77737282D01*
X171796000Y-77737282D01*
X171796000Y-75897885D01*
X172304000Y-75897885D01*
X172308475Y-75913124D01*
X172309865Y-75914329D01*
X172317548Y-75916000D01*
X173439885Y-75916000D01*
X173455124Y-75911525D01*
X173456329Y-75910135D01*
X173457539Y-75904570D01*
X173456972Y-75897885D01*
X177242000Y-75897885D01*
X177246475Y-75913124D01*
X177247865Y-75914329D01*
X177255548Y-75916000D01*
X178377885Y-75916000D01*
X178393124Y-75911525D01*
X178394329Y-75910135D01*
X178396000Y-75902452D01*
X178396000Y-75897885D01*
X178904000Y-75897885D01*
X178908475Y-75913124D01*
X178909865Y-75914329D01*
X178917548Y-75916000D01*
X180039885Y-75916000D01*
X180055124Y-75911525D01*
X180056329Y-75910135D01*
X180057539Y-75904570D01*
X180043340Y-75737229D01*
X180041548Y-75726741D01*
X179984199Y-75505789D01*
X179980667Y-75495761D01*
X179977750Y-75489286D01*
X181132750Y-75489286D01*
X181149443Y-75659536D01*
X181203440Y-75821856D01*
X181207087Y-75827878D01*
X181207088Y-75827880D01*
X181288406Y-75962154D01*
X181288409Y-75962157D01*
X181292056Y-75968180D01*
X181410889Y-76091234D01*
X181416785Y-76095092D01*
X181521635Y-76163704D01*
X181554030Y-76184903D01*
X181560634Y-76187359D01*
X181560636Y-76187360D01*
X181707757Y-76242074D01*
X181707759Y-76242074D01*
X181714367Y-76244532D01*
X181793454Y-76255085D01*
X181876949Y-76266226D01*
X181876953Y-76266226D01*
X181883930Y-76267157D01*
X181890941Y-76266519D01*
X181890945Y-76266519D01*
X182047273Y-76252292D01*
X182047275Y-76252292D01*
X182054292Y-76251653D01*
X182060990Y-76249477D01*
X182060993Y-76249476D01*
X182210289Y-76200966D01*
X182210291Y-76200965D01*
X182216985Y-76198790D01*
X182252369Y-76177697D01*
X182357872Y-76114805D01*
X182357874Y-76114804D01*
X182363924Y-76111197D01*
X182477560Y-76002983D01*
X182540685Y-75970491D01*
X182611356Y-75977284D01*
X182636717Y-75991013D01*
X182707761Y-76040758D01*
X182894916Y-76121747D01*
X182901164Y-76123052D01*
X182901163Y-76123052D01*
X183089788Y-76162459D01*
X183089792Y-76162459D01*
X183094533Y-76163450D01*
X183099370Y-76163703D01*
X183099374Y-76163704D01*
X183099440Y-76163707D01*
X183101212Y-76163800D01*
X183250967Y-76163800D01*
X183323613Y-76156421D01*
X183396534Y-76149014D01*
X183396535Y-76149014D01*
X183402883Y-76148369D01*
X183597478Y-76087386D01*
X183775837Y-75988521D01*
X183930673Y-75855810D01*
X184055661Y-75694676D01*
X184145696Y-75511701D01*
X184153927Y-75480102D01*
X184195490Y-75320541D01*
X184195490Y-75320538D01*
X184197100Y-75314359D01*
X184204442Y-75174255D01*
X184207438Y-75117094D01*
X184207438Y-75117090D01*
X184207772Y-75110712D01*
X184177278Y-74909078D01*
X184174037Y-74900269D01*
X184109067Y-74723684D01*
X184109066Y-74723683D01*
X184106863Y-74717694D01*
X183999402Y-74544378D01*
X183859286Y-74396209D01*
X183762425Y-74328386D01*
X183697472Y-74282906D01*
X183697471Y-74282905D01*
X183692239Y-74279242D01*
X183561472Y-74222654D01*
X183510940Y-74200787D01*
X183510939Y-74200787D01*
X183505084Y-74198253D01*
X183454627Y-74187712D01*
X183310212Y-74157541D01*
X183310208Y-74157541D01*
X183305467Y-74156550D01*
X183300630Y-74156297D01*
X183300626Y-74156296D01*
X183300560Y-74156293D01*
X183298788Y-74156200D01*
X183149033Y-74156200D01*
X183076387Y-74163579D01*
X183003466Y-74170986D01*
X183003465Y-74170986D01*
X182997117Y-74171631D01*
X182802522Y-74232614D01*
X182624163Y-74331479D01*
X182469327Y-74464190D01*
X182344339Y-74625324D01*
X182341526Y-74631041D01*
X182341519Y-74631052D01*
X182300342Y-74714735D01*
X182252320Y-74767026D01*
X182183650Y-74785052D01*
X182145022Y-74777804D01*
X182081857Y-74755312D01*
X182081851Y-74755311D01*
X182075219Y-74752949D01*
X182068231Y-74752116D01*
X182068228Y-74752115D01*
X181952655Y-74738334D01*
X181905357Y-74732694D01*
X181898354Y-74733430D01*
X181898353Y-74733430D01*
X181853958Y-74738096D01*
X181735228Y-74750575D01*
X181725367Y-74753932D01*
X181579956Y-74803434D01*
X181579953Y-74803435D01*
X181573289Y-74805704D01*
X181427588Y-74895340D01*
X181422557Y-74900267D01*
X181422554Y-74900269D01*
X181394449Y-74927792D01*
X181305366Y-75015028D01*
X181212698Y-75158820D01*
X181210287Y-75165443D01*
X181210286Y-75165446D01*
X181156600Y-75312947D01*
X181156599Y-75312952D01*
X181154190Y-75319570D01*
X181132750Y-75489286D01*
X179977750Y-75489286D01*
X179886915Y-75287637D01*
X179881735Y-75278331D01*
X179754253Y-75088976D01*
X179747594Y-75080693D01*
X179590029Y-74915522D01*
X179582058Y-74908470D01*
X179398918Y-74772210D01*
X179389881Y-74766606D01*
X179186394Y-74663149D01*
X179176541Y-74659148D01*
X178958539Y-74591456D01*
X178948152Y-74589172D01*
X178921957Y-74585700D01*
X178907793Y-74587896D01*
X178904000Y-74601081D01*
X178904000Y-75897885D01*
X178396000Y-75897885D01*
X178396000Y-74602718D01*
X178392027Y-74589187D01*
X178381420Y-74587662D01*
X178249160Y-74615413D01*
X178238963Y-74618473D01*
X178026660Y-74702315D01*
X178017124Y-74707049D01*
X177821975Y-74825468D01*
X177813382Y-74831734D01*
X177640973Y-74981342D01*
X177633553Y-74988972D01*
X177488820Y-75165488D01*
X177482794Y-75174255D01*
X177369871Y-75372633D01*
X177365405Y-75382297D01*
X177287519Y-75596868D01*
X177284749Y-75607135D01*
X177243919Y-75832932D01*
X177242984Y-75841162D01*
X177242070Y-75860550D01*
X177242000Y-75863526D01*
X177242000Y-75897885D01*
X173456972Y-75897885D01*
X173443340Y-75737229D01*
X173441548Y-75726741D01*
X173384199Y-75505789D01*
X173380667Y-75495761D01*
X173286915Y-75287637D01*
X173281735Y-75278331D01*
X173154253Y-75088976D01*
X173147594Y-75080693D01*
X172990029Y-74915522D01*
X172982058Y-74908470D01*
X172798918Y-74772210D01*
X172789881Y-74766606D01*
X172586394Y-74663149D01*
X172576541Y-74659148D01*
X172436308Y-74615604D01*
X174237787Y-74615604D01*
X174247567Y-74826899D01*
X174248971Y-74832724D01*
X174248971Y-74832725D01*
X174286627Y-74988972D01*
X174297125Y-75032534D01*
X174299607Y-75037992D01*
X174299608Y-75037996D01*
X174343053Y-75133546D01*
X174384674Y-75225087D01*
X174507054Y-75397611D01*
X174659850Y-75543881D01*
X174837548Y-75658620D01*
X174843114Y-75660863D01*
X175028168Y-75735442D01*
X175028171Y-75735443D01*
X175033737Y-75737686D01*
X175241337Y-75778228D01*
X175246899Y-75778500D01*
X175402846Y-75778500D01*
X175560566Y-75763452D01*
X175763534Y-75703908D01*
X175849688Y-75659536D01*
X175946249Y-75609804D01*
X175946252Y-75609802D01*
X175951580Y-75607058D01*
X176117920Y-75476396D01*
X176121852Y-75471865D01*
X176121855Y-75471862D01*
X176240446Y-75335198D01*
X176256552Y-75316637D01*
X176259552Y-75311451D01*
X176259555Y-75311447D01*
X176359467Y-75138742D01*
X176362473Y-75133546D01*
X176431861Y-74933729D01*
X176435435Y-74909078D01*
X176461352Y-74730336D01*
X176461352Y-74730333D01*
X176462213Y-74724396D01*
X176452433Y-74513101D01*
X176402875Y-74307466D01*
X176391709Y-74282906D01*
X176317806Y-74120368D01*
X176315326Y-74114913D01*
X176192946Y-73942389D01*
X176040150Y-73796119D01*
X175862452Y-73681380D01*
X175757380Y-73639035D01*
X175671832Y-73604558D01*
X175671829Y-73604557D01*
X175666263Y-73602314D01*
X175458663Y-73561772D01*
X175453101Y-73561500D01*
X175297154Y-73561500D01*
X175139434Y-73576548D01*
X174936466Y-73636092D01*
X174931139Y-73638836D01*
X174931138Y-73638836D01*
X174753751Y-73730196D01*
X174753748Y-73730198D01*
X174748420Y-73732942D01*
X174582080Y-73863604D01*
X174578148Y-73868135D01*
X174578145Y-73868138D01*
X174509474Y-73947275D01*
X174443448Y-74023363D01*
X174440448Y-74028549D01*
X174440445Y-74028553D01*
X174393312Y-74110026D01*
X174337527Y-74206454D01*
X174268139Y-74406271D01*
X174267278Y-74412206D01*
X174267278Y-74412208D01*
X174239893Y-74601081D01*
X174237787Y-74615604D01*
X172436308Y-74615604D01*
X172358539Y-74591456D01*
X172348152Y-74589172D01*
X172321957Y-74585700D01*
X172307793Y-74587896D01*
X172304000Y-74601081D01*
X172304000Y-75897885D01*
X171796000Y-75897885D01*
X171796000Y-74602718D01*
X171792027Y-74589187D01*
X171781420Y-74587662D01*
X171649160Y-74615413D01*
X171638963Y-74618473D01*
X171426660Y-74702315D01*
X171417123Y-74707049D01*
X171339862Y-74753932D01*
X171271248Y-74772171D01*
X171203666Y-74750419D01*
X171158572Y-74695583D01*
X171148497Y-74646213D01*
X171148497Y-73691138D01*
X171149998Y-73671747D01*
X171152306Y-73656928D01*
X171153688Y-73648055D01*
X171152508Y-73639027D01*
X171152238Y-73608587D01*
X171152388Y-73607262D01*
X171159234Y-73546520D01*
X171165513Y-73519015D01*
X171192488Y-73441931D01*
X171204727Y-73416516D01*
X171248185Y-73347359D01*
X171265772Y-73325307D01*
X171323522Y-73267559D01*
X171345579Y-73249970D01*
X171414731Y-73206520D01*
X171440147Y-73194281D01*
X171517233Y-73167309D01*
X171544738Y-73161031D01*
X171600535Y-73154744D01*
X171616180Y-73153961D01*
X171624853Y-73154067D01*
X171633723Y-73155448D01*
X171642625Y-73154284D01*
X171642627Y-73154284D01*
X171657950Y-73152280D01*
X171665285Y-73151321D01*
X171681620Y-73150257D01*
X185590634Y-73150257D01*
X185610019Y-73151757D01*
G37*
%TD.AperFunction*%
%TD*%
M02*
