%TF.GenerationSoftware,KiCad,Pcbnew,(6.0.5)*%
%TF.CreationDate,2022-05-17T06:41:27+02:00*%
%TF.ProjectId,rp2040_magslide_controller,72703230-3430-45f6-9d61-67736c696465,rev?*%
%TF.SameCoordinates,Original*%
%TF.FileFunction,Legend,Top*%
%TF.FilePolarity,Positive*%
%FSLAX46Y46*%
G04 Gerber Fmt 4.6, Leading zero omitted, Abs format (unit mm)*
G04 Created by KiCad (PCBNEW (6.0.5)) date 2022-05-17 06:41:27*
%MOMM*%
%LPD*%
G01*
G04 APERTURE LIST*
%ADD10C,0.120000*%
G04 APERTURE END LIST*
D10*
%TO.C,C10*%
X185072164Y-103810000D02*
X185287836Y-103810000D01*
X185072164Y-104530000D02*
X185287836Y-104530000D01*
%TO.C,C19*%
X182740000Y-105210580D02*
X182740000Y-104929420D01*
X183760000Y-105210580D02*
X183760000Y-104929420D01*
%TO.C,C18*%
X172407836Y-101240000D02*
X172192164Y-101240000D01*
X172407836Y-101960000D02*
X172192164Y-101960000D01*
%TO.C,U3*%
X175540000Y-102080000D02*
X174890000Y-102080000D01*
X182110000Y-102080000D02*
X182110000Y-101430000D01*
X182110000Y-94860000D02*
X182110000Y-95510000D01*
X181460000Y-102080000D02*
X182110000Y-102080000D01*
X175540000Y-94860000D02*
X174890000Y-94860000D01*
X174890000Y-102080000D02*
X174890000Y-101430000D01*
X181460000Y-94860000D02*
X182110000Y-94860000D01*
%TO.C,Y1*%
X176500000Y-103070000D02*
X172500000Y-103070000D01*
X176500000Y-106370000D02*
X176500000Y-103070000D01*
%TO.C,R2*%
X172096359Y-98050000D02*
X172403641Y-98050000D01*
X172096359Y-97290000D02*
X172403641Y-97290000D01*
%TO.C,R6*%
X185420000Y-102623641D02*
X185420000Y-102316359D01*
X186180000Y-102623641D02*
X186180000Y-102316359D01*
%TO.C,C14*%
X172357836Y-96930000D02*
X172142164Y-96930000D01*
X172357836Y-96210000D02*
X172142164Y-96210000D01*
%TO.C,S4*%
X177080000Y-121750000D02*
X177080000Y-122400000D01*
X180200000Y-121750000D02*
X180200000Y-122400000D01*
X180200000Y-121750000D02*
X180200000Y-120075000D01*
X177080000Y-121750000D02*
X177080000Y-121100000D01*
%TO.C,C2*%
X174710000Y-91229420D02*
X174710000Y-91510580D01*
X173690000Y-91229420D02*
X173690000Y-91510580D01*
%TO.C,J1*%
X171505000Y-93285000D02*
X172200000Y-93285000D01*
X171505000Y-94655000D02*
X171505000Y-95530000D01*
X171505000Y-95530000D02*
X171805507Y-95530000D01*
X172594493Y-95530000D02*
X172895000Y-95530000D01*
X171505000Y-93970000D02*
X171505000Y-93285000D01*
X172808276Y-94655000D02*
X172895000Y-94655000D01*
X172895000Y-94655000D02*
X172895000Y-95530000D01*
X171505000Y-94655000D02*
X171591724Y-94655000D01*
%TO.C,R5*%
X172096359Y-98390000D02*
X172403641Y-98390000D01*
X172096359Y-99150000D02*
X172403641Y-99150000D01*
%TO.C,U4*%
X181610000Y-106430000D02*
X181610000Y-106255000D01*
X179065000Y-103210000D02*
X178390000Y-103210000D01*
X178390000Y-106430000D02*
X178390000Y-106255000D01*
X181610000Y-103210000D02*
X181610000Y-103385000D01*
X180935000Y-103210000D02*
X181610000Y-103210000D01*
X180935000Y-106430000D02*
X181610000Y-106430000D01*
X179065000Y-106430000D02*
X178390000Y-106430000D01*
%TO.C,C8*%
X185072164Y-105630000D02*
X185287836Y-105630000D01*
X185072164Y-104910000D02*
X185287836Y-104910000D01*
%TO.C,C1*%
X183992164Y-85610000D02*
X184207836Y-85610000D01*
X183992164Y-86330000D02*
X184207836Y-86330000D01*
%TO.C,C5*%
X177610000Y-104477836D02*
X177610000Y-104262164D01*
X176890000Y-104477836D02*
X176890000Y-104262164D01*
%TO.C,C4*%
X172110000Y-104962164D02*
X172110000Y-105177836D01*
X171390000Y-104962164D02*
X171390000Y-105177836D01*
%TO.C,J2*%
X172050000Y-72670000D02*
X178650000Y-72670000D01*
X172050000Y-84970000D02*
X172050000Y-72670000D01*
X178650000Y-84970000D02*
X172050000Y-84970000D01*
X178650000Y-72670000D02*
X178650000Y-84970000D01*
%TO.C,C12*%
X183742164Y-100680000D02*
X183957836Y-100680000D01*
X183742164Y-99960000D02*
X183957836Y-99960000D01*
%TO.C,U2*%
X173100000Y-89630000D02*
X174900000Y-89630000D01*
X173100000Y-86510000D02*
X172300000Y-86510000D01*
X173100000Y-89630000D02*
X172300000Y-89630000D01*
X173100000Y-86510000D02*
X173900000Y-86510000D01*
%TO.C,U1*%
X178150000Y-87105000D02*
X176500000Y-87105000D01*
X180900000Y-92295000D02*
X183650000Y-92295000D01*
X178150000Y-92295000D02*
X178150000Y-92035000D01*
X183650000Y-92295000D02*
X183650000Y-92035000D01*
X183650000Y-86845000D02*
X183650000Y-87105000D01*
X180900000Y-92295000D02*
X178150000Y-92295000D01*
X180900000Y-86845000D02*
X178150000Y-86845000D01*
X180900000Y-86845000D02*
X183650000Y-86845000D01*
X178150000Y-86845000D02*
X178150000Y-87105000D01*
%TO.C,S2*%
X180200000Y-114250000D02*
X180200000Y-113600000D01*
X177080000Y-114250000D02*
X177080000Y-115925000D01*
X180200000Y-114250000D02*
X180200000Y-114900000D01*
X177080000Y-114250000D02*
X177080000Y-113600000D01*
%TO.C,C15*%
X172387836Y-99610000D02*
X172172164Y-99610000D01*
X172387836Y-100330000D02*
X172172164Y-100330000D01*
%TO.C,C20*%
X184240000Y-102577836D02*
X184240000Y-102362164D01*
X184960000Y-102577836D02*
X184960000Y-102362164D01*
%TO.C,C9*%
X184659420Y-96480000D02*
X184940580Y-96480000D01*
X184659420Y-95460000D02*
X184940580Y-95460000D01*
%TO.C,C7*%
X171290000Y-91229420D02*
X171290000Y-91510580D01*
X172310000Y-91229420D02*
X172310000Y-91510580D01*
%TO.C,C13*%
X184592164Y-94930000D02*
X184807836Y-94930000D01*
X184592164Y-94210000D02*
X184807836Y-94210000D01*
%TO.C,C16*%
X182292164Y-93830000D02*
X182507836Y-93830000D01*
X182292164Y-93110000D02*
X182507836Y-93110000D01*
%TO.C,S1*%
X182390000Y-116440000D02*
X180715000Y-116440000D01*
X182390000Y-116440000D02*
X183040000Y-116440000D01*
X182390000Y-119560000D02*
X183040000Y-119560000D01*
X182390000Y-119560000D02*
X181740000Y-119560000D01*
%TO.C,C11*%
X184592164Y-93830000D02*
X184807836Y-93830000D01*
X184592164Y-93110000D02*
X184807836Y-93110000D01*
%TO.C,R7*%
X183020000Y-102623641D02*
X183020000Y-102316359D01*
X183780000Y-102623641D02*
X183780000Y-102316359D01*
%TO.C,R4*%
X181846359Y-85590000D02*
X182153641Y-85590000D01*
X181846359Y-86350000D02*
X182153641Y-86350000D01*
%TO.C,S3*%
X174890000Y-119560000D02*
X176565000Y-119560000D01*
X174890000Y-119560000D02*
X174240000Y-119560000D01*
X174890000Y-116440000D02*
X175540000Y-116440000D01*
X174890000Y-116440000D02*
X174240000Y-116440000D01*
%TO.C,J3*%
X181930000Y-76430000D02*
X181930000Y-75795000D01*
X181150000Y-83450000D02*
X181150000Y-75870000D01*
X185250000Y-75870000D02*
X185250000Y-83450000D01*
X181930000Y-75795000D02*
X182565000Y-75795000D01*
X184650000Y-84050000D02*
X181750000Y-84050000D01*
X185250000Y-83450000D02*
X184650000Y-84050000D01*
X183850000Y-73890000D02*
X185250000Y-75870000D01*
X182550000Y-73890000D02*
X183850000Y-73890000D01*
X181150000Y-83450000D02*
X181750000Y-84050000D01*
X181150000Y-75870000D02*
X182550000Y-73890000D01*
%TO.C,C17*%
X180407836Y-93110000D02*
X180192164Y-93110000D01*
X180407836Y-93830000D02*
X180192164Y-93830000D01*
%TD*%
M02*
