M48
; DRILL file {KiCad (6.0.4)} date Fri 15 Apr 2022 08:31:30 AM CEST
; FORMAT={-:-/ absolute / inch / decimal}
; #@! TF.CreationDate,2022-04-15T08:31:30+02:00
; #@! TF.GenerationSoftware,Kicad,Pcbnew,(6.0.4)
; #@! TF.FileFunction,Plated,1,4,PTH
FMAT,2
INCH
; #@! TA.AperFunction,Plated,PTH,ViaDrill
T1C0.0100
; #@! TA.AperFunction,Plated,PTH,ComponentDrill
T2C0.0138
; #@! TA.AperFunction,Plated,PTH,ViaDrill
T3C0.0157
; #@! TA.AperFunction,Plated,PTH,ComponentDrill
T4C0.0236
; #@! TA.AperFunction,Plated,PTH,ComponentDrill
T5C0.0315
; #@! TA.AperFunction,Plated,PTH,ComponentDrill
T6C0.0335
; #@! TA.AperFunction,Plated,PTH,ComponentDrill
T7C0.0394
%
G90
G05
T1
X6.4117Y-4.0732
X6.421Y-4.047
X6.4291Y-3.9409
X6.4764Y-4.8661
X6.478Y-4.74
X6.482Y-4.808
X6.4863Y-4.0727
X6.4876Y-4.0406
X6.4882Y-3.9252
X6.5104Y-4.0867
X6.5118Y-4.626
X6.524Y-3.9781
X6.5354Y-3.8622
X6.5395Y-4.0883
X6.541Y-4.137
X6.5428Y-4.1659
X6.548Y-3.9623
X6.564Y-4.232
X6.564Y-4.186
X6.572Y-4.564
X6.586Y-4.21
X6.5933Y-4.2369
X6.594Y-3.862
X6.5945Y-4.4803
X6.6063Y-4.7835
X6.6102Y-3.7835
X6.622Y-4.9252
X6.629Y-3.8658
X6.6299Y-4.0906
X6.6326Y-3.9606
X6.634Y-4.032
X6.634Y-4.132
X6.6417Y-3.748
X6.6508Y-3.844
X6.6614Y-4.311
X6.6732Y-4.2475
X6.6759Y-4.1518
X6.6759Y-3.8602
X6.68Y-4.564
X6.6981Y-3.8434
X6.722Y-3.872
X6.7402Y-3.9546
X6.7402Y-4.3376
X6.746Y-4.52
X6.756Y-4.87
X6.7677Y-5.0197
X6.776Y-4.522
X6.7813Y-4.2497
X6.815Y-3.3898
X6.815Y-4.2475
X6.8218Y-4.4409
X6.8622Y-3.9213
X6.9016Y-4.1102
X6.926Y-4.072
X6.932Y-4.79
X6.9449Y-3.7165
X6.9488Y-3.8622
X6.958Y-4.068
X6.9685Y-4.2475
X6.9814Y-4.7942
X6.9843Y-5.0118
X6.996Y-4.134
X6.996Y-4.42
X7.0039Y-4.5354
X7.02Y-3.84
X7.034Y-4.254
X7.036Y-3.956
X7.0433Y-4.9961
X7.046Y-4.566
X7.0547Y-5.106
X7.064Y-4.766
X7.0669Y-4.4843
X7.072Y-3.51
X7.0827Y-4.2323
X7.0827Y-4.9409
X7.086Y-3.56
X7.086Y-4.568
X7.094Y-3.462
X7.108Y-4.848
X7.1142Y-4.9409
X7.118Y-4.818
X7.1222Y-4.2283
X7.134Y-3.68
X7.1614Y-5.4173
X7.1618Y-3.8385
X7.166Y-3.866
X7.1772Y-4.8661
X7.19Y-3.94
X7.198Y-4.9
X7.29Y-3.352
X7.304Y-3.642
X7.308Y-3.894
X7.3189Y-5.5039
X7.326Y-3.866
X7.344Y-3.42
X7.3504Y-4.8307
X7.378Y-5.185
X7.384Y-3.51
X7.388Y-3.56
X7.3937Y-3.7992
X7.444Y-3.424
X7.4528Y-4.8307
X7.4724Y-5.1417
T2
X6.6748Y-4.0048
X6.6748Y-4.055
X6.6748Y-4.1052
X6.725Y-4.0048
X6.725Y-4.055
X6.725Y-4.1052
X6.7752Y-4.0048
X6.7752Y-4.055
X6.7752Y-4.1052
T3
X7.106Y-3.298
X7.145Y-4.685
X7.19Y-4.685
X7.2035Y-4.355
X7.229Y-4.6794
X7.2382Y-4.0802
X7.239Y-4.3719
X7.275Y-4.685
X7.28Y-4.08
X7.2885Y-4.295
X7.3Y-4.35
X7.3102Y-4.6674
X7.3485Y-4.29
X7.36Y-4.67
X7.38Y-4.335
X7.41Y-4.665
X7.4144Y-4.399
X7.42Y-4.36
T6
X6.9566Y-3.2356
X7.1534Y-3.2356
T7
X7.5708Y-3.4312
X7.5708Y-3.5312
X7.5708Y-3.6312
X7.5708Y-3.7312
X7.5708Y-3.8312
X7.5708Y-3.9312
X7.5708Y-4.0312
X7.5708Y-4.1312
X7.5708Y-4.2312
X7.5708Y-4.3312
X7.5708Y-4.4312
X7.5708Y-4.5312
X7.5708Y-4.6312
X7.5708Y-4.7312
X7.5708Y-4.8312
X7.5708Y-4.9312
X7.5708Y-5.0312
X7.5708Y-5.1312
X7.5708Y-5.2312
X7.5708Y-5.3312
X7.6708Y-3.4312
X7.6708Y-3.5312
X7.6708Y-3.6312
X7.6708Y-3.7312
X7.6708Y-3.8312
X7.6708Y-3.9312
X7.6708Y-4.0312
X7.6708Y-4.1312
X7.6708Y-4.2312
X7.6708Y-4.3312
X7.6708Y-4.4312
X7.6708Y-4.5312
X7.6708Y-4.6312
X7.6708Y-4.7312
X7.6708Y-4.8312
X7.6708Y-4.9312
X7.6708Y-5.0312
X7.6708Y-5.1312
X7.6708Y-5.2312
X7.6708Y-5.3312
T4
G00X6.9172Y-3.1431
M15
G01X6.9172Y-3.1155
M16
G05
G00X7.1928Y-3.1155
M15
G01X7.1928Y-3.1431
M16
G05
T5
G00X6.8151Y-5.5759
M15
G01X6.8151Y-5.5483
M16
G05
G00X6.8328Y-5.2609
M15
G01X6.8328Y-5.2334
M16
G05
G00X6.9588Y-5.2157
M15
G01X6.9312Y-5.2157
M16
G05
G00X7.0572Y-5.2609
M15
G01X7.0572Y-5.2334
M16
G05
G00X7.0749Y-5.5759
M15
G01X7.0749Y-5.5483
M16
G05
T0
M30
